G04 #@! TF.GenerationSoftware,KiCad,Pcbnew,8.0.8-8.0.8-0~ubuntu20.04.1*
G04 #@! TF.CreationDate,2025-01-23T22:26:11-05:00*
G04 #@! TF.ProjectId,sub_pcb,7375625f-7063-4622-9e6b-696361645f70,rev?*
G04 #@! TF.SameCoordinates,Original*
G04 #@! TF.FileFunction,Copper,L2,Bot*
G04 #@! TF.FilePolarity,Positive*
%FSLAX46Y46*%
G04 Gerber Fmt 4.6, Leading zero omitted, Abs format (unit mm)*
G04 Created by KiCad (PCBNEW 8.0.8-8.0.8-0~ubuntu20.04.1) date 2025-01-23 22:26:11*
%MOMM*%
%LPD*%
G01*
G04 APERTURE LIST*
G04 #@! TA.AperFunction,ComponentPad*
%ADD10R,1.700000X1.700000*%
G04 #@! TD*
G04 #@! TA.AperFunction,ComponentPad*
%ADD11O,1.700000X1.700000*%
G04 #@! TD*
G04 #@! TA.AperFunction,ComponentPad*
%ADD12C,1.524000*%
G04 #@! TD*
G04 #@! TA.AperFunction,ComponentPad*
%ADD13R,2.600000X2.600000*%
G04 #@! TD*
G04 #@! TA.AperFunction,ComponentPad*
%ADD14C,2.600000*%
G04 #@! TD*
G04 #@! TA.AperFunction,Conductor*
%ADD15C,0.200000*%
G04 #@! TD*
G04 APERTURE END LIST*
D10*
X115890000Y-87170000D03*
D11*
X113350000Y-87170000D03*
D10*
X96075000Y-86625000D03*
D11*
X93535000Y-86625000D03*
X90995000Y-86625000D03*
X88455000Y-86625000D03*
X85915000Y-86625000D03*
D12*
X120610000Y-95850000D03*
X123150000Y-95850000D03*
X125690000Y-95850000D03*
X128230000Y-95850000D03*
X130770000Y-95850000D03*
X133310000Y-95850000D03*
X135850000Y-95850000D03*
X138390000Y-95850000D03*
X120610000Y-83150000D03*
X123150000Y-83150000D03*
X125690000Y-83150000D03*
X128230000Y-83150000D03*
X130770000Y-83150000D03*
X133310000Y-83150000D03*
X135850000Y-83150000D03*
X138390000Y-83150000D03*
X138390000Y-88230000D03*
X138390000Y-85690000D03*
X136739000Y-86960000D03*
X125110000Y-43850000D03*
X127650000Y-43850000D03*
X130190000Y-43850000D03*
X132730000Y-43850000D03*
X135270000Y-43850000D03*
X137810000Y-43850000D03*
X140350000Y-43850000D03*
X142890000Y-43850000D03*
X125110000Y-31150000D03*
X127650000Y-31150000D03*
X130190000Y-31150000D03*
X132730000Y-31150000D03*
X135270000Y-31150000D03*
X137810000Y-31150000D03*
X140350000Y-31150000D03*
X142890000Y-31150000D03*
X142890000Y-36230000D03*
X142890000Y-33690000D03*
X141239000Y-34960000D03*
X130042000Y-75787000D03*
X127502000Y-75787000D03*
X124962000Y-75787000D03*
X122422000Y-75787000D03*
X119882000Y-75787000D03*
X117342000Y-75787000D03*
X114802000Y-75787000D03*
X112262000Y-75787000D03*
X109722000Y-75787000D03*
X107182000Y-75787000D03*
X104642000Y-75787000D03*
X102102000Y-75787000D03*
X99562000Y-75787000D03*
X97022000Y-75787000D03*
X94482000Y-75787000D03*
X130042000Y-50387000D03*
X127502000Y-50387000D03*
X124962000Y-50387000D03*
X122422000Y-50387000D03*
X119882000Y-50387000D03*
X117342000Y-50387000D03*
X114802000Y-50387000D03*
X112262000Y-50387000D03*
X109722000Y-50387000D03*
X107182000Y-50387000D03*
X104642000Y-50387000D03*
X102102000Y-50387000D03*
X99562000Y-50387000D03*
X97022000Y-50387000D03*
X94482000Y-50387000D03*
D10*
X107200000Y-42375000D03*
D11*
X109740000Y-42375000D03*
X112280000Y-42375000D03*
X114820000Y-42375000D03*
X100850000Y-86945000D03*
X103390000Y-86945000D03*
X105930000Y-86945000D03*
D10*
X108470000Y-86945000D03*
D11*
X97620000Y-42000000D03*
X95080000Y-42000000D03*
X92540000Y-42000000D03*
X90000000Y-42000000D03*
D10*
X87460000Y-42000000D03*
D13*
X151050000Y-62490000D03*
D14*
X157050000Y-62490000D03*
X154050000Y-57790000D03*
D15*
X125690000Y-95850000D02*
X125690000Y-93990000D01*
X125690000Y-93990000D02*
X125530000Y-93830000D01*
X125530000Y-93830000D02*
X104640000Y-93830000D01*
X104640000Y-93830000D02*
X100850000Y-90040000D01*
X100850000Y-90040000D02*
X100850000Y-86945000D01*
X93535000Y-86625000D02*
X93535000Y-86465000D01*
X93535000Y-86465000D02*
X99490000Y-80510000D01*
X99490000Y-80510000D02*
X131360000Y-80510000D01*
X131360000Y-80510000D02*
X146400000Y-65470000D01*
X146400000Y-65470000D02*
X146400000Y-62490000D01*
X146400000Y-62490000D02*
X146400000Y-31400000D01*
X146400000Y-31400000D02*
X143640000Y-28640000D01*
X143640000Y-28640000D02*
X103360000Y-28640000D01*
X103360000Y-28640000D02*
X90000000Y-42000000D01*
X151050000Y-62490000D02*
X146400000Y-62490000D01*
X128230000Y-95850000D02*
X128230000Y-94772370D01*
X128230000Y-94772370D02*
X126107630Y-92650000D01*
X126107630Y-92650000D02*
X106620000Y-92650000D01*
X106620000Y-92650000D02*
X103390000Y-89420000D01*
X103390000Y-89420000D02*
X103390000Y-86945000D01*
X133310000Y-95850000D02*
X127440000Y-89980000D01*
X127440000Y-89980000D02*
X110920000Y-89980000D01*
X110920000Y-89980000D02*
X108470000Y-87530000D01*
X108470000Y-87530000D02*
X108470000Y-86945000D01*
X130770000Y-95850000D02*
X126270000Y-91350000D01*
X126270000Y-91350000D02*
X110335000Y-91350000D01*
X110335000Y-91350000D02*
X105930000Y-86945000D01*
X85915000Y-86625000D02*
X96753000Y-75787000D01*
X96753000Y-75787000D02*
X97022000Y-75787000D01*
X92540000Y-42000000D02*
X92540000Y-41460000D01*
X92540000Y-41460000D02*
X94200000Y-39800000D01*
X97620000Y-41420000D02*
X97620000Y-42000000D01*
X94200000Y-39800000D02*
X96000000Y-39800000D01*
X96000000Y-39800000D02*
X97620000Y-41420000D01*
X102102000Y-75787000D02*
X87460000Y-61145000D01*
X87460000Y-61145000D02*
X87460000Y-42000000D01*
X117342000Y-75787000D02*
X117342000Y-73838000D01*
X145060000Y-39000000D02*
X135500000Y-39000000D01*
X117342000Y-73838000D02*
X145490000Y-45690000D01*
X145490000Y-45690000D02*
X145490000Y-39430000D01*
X145490000Y-39430000D02*
X145060000Y-39000000D01*
X135500000Y-39000000D02*
X127650000Y-31150000D01*
X114802000Y-75787000D02*
X114802000Y-74368000D01*
X114802000Y-74368000D02*
X144580000Y-44590000D01*
X125490000Y-40960000D02*
X125110000Y-40580000D01*
X144580000Y-44590000D02*
X144580000Y-42230000D01*
X144580000Y-42230000D02*
X143310000Y-40960000D01*
X143310000Y-40960000D02*
X125490000Y-40960000D01*
X125110000Y-40580000D02*
X125110000Y-31150000D01*
M02*
