G04 #@! TF.GenerationSoftware,KiCad,Pcbnew,8.0.8-8.0.8-0~ubuntu20.04.1*
G04 #@! TF.CreationDate,2025-01-23T22:26:11-05:00*
G04 #@! TF.ProjectId,sub_pcb,7375625f-7063-4622-9e6b-696361645f70,rev?*
G04 #@! TF.SameCoordinates,Original*
G04 #@! TF.FileFunction,Copper,L1,Top*
G04 #@! TF.FilePolarity,Positive*
%FSLAX46Y46*%
G04 Gerber Fmt 4.6, Leading zero omitted, Abs format (unit mm)*
G04 Created by KiCad (PCBNEW 8.0.8-8.0.8-0~ubuntu20.04.1) date 2025-01-23 22:26:11*
%MOMM*%
%LPD*%
G01*
G04 APERTURE LIST*
G04 #@! TA.AperFunction,ComponentPad*
%ADD10R,1.700000X1.700000*%
G04 #@! TD*
G04 #@! TA.AperFunction,ComponentPad*
%ADD11O,1.700000X1.700000*%
G04 #@! TD*
G04 #@! TA.AperFunction,ComponentPad*
%ADD12C,1.524000*%
G04 #@! TD*
G04 #@! TA.AperFunction,ComponentPad*
%ADD13R,2.600000X2.600000*%
G04 #@! TD*
G04 #@! TA.AperFunction,ComponentPad*
%ADD14C,2.600000*%
G04 #@! TD*
G04 #@! TA.AperFunction,Conductor*
%ADD15C,0.200000*%
G04 #@! TD*
G04 APERTURE END LIST*
D10*
X115890000Y-87170000D03*
D11*
X113350000Y-87170000D03*
D10*
X96075000Y-86625000D03*
D11*
X93535000Y-86625000D03*
X90995000Y-86625000D03*
X88455000Y-86625000D03*
X85915000Y-86625000D03*
D12*
X120610000Y-95850000D03*
X123150000Y-95850000D03*
X125690000Y-95850000D03*
X128230000Y-95850000D03*
X130770000Y-95850000D03*
X133310000Y-95850000D03*
X135850000Y-95850000D03*
X138390000Y-95850000D03*
X120610000Y-83150000D03*
X123150000Y-83150000D03*
X125690000Y-83150000D03*
X128230000Y-83150000D03*
X130770000Y-83150000D03*
X133310000Y-83150000D03*
X135850000Y-83150000D03*
X138390000Y-83150000D03*
X138390000Y-88230000D03*
X138390000Y-85690000D03*
X136739000Y-86960000D03*
X125110000Y-43850000D03*
X127650000Y-43850000D03*
X130190000Y-43850000D03*
X132730000Y-43850000D03*
X135270000Y-43850000D03*
X137810000Y-43850000D03*
X140350000Y-43850000D03*
X142890000Y-43850000D03*
X125110000Y-31150000D03*
X127650000Y-31150000D03*
X130190000Y-31150000D03*
X132730000Y-31150000D03*
X135270000Y-31150000D03*
X137810000Y-31150000D03*
X140350000Y-31150000D03*
X142890000Y-31150000D03*
X142890000Y-36230000D03*
X142890000Y-33690000D03*
X141239000Y-34960000D03*
X130042000Y-75787000D03*
X127502000Y-75787000D03*
X124962000Y-75787000D03*
X122422000Y-75787000D03*
X119882000Y-75787000D03*
X117342000Y-75787000D03*
X114802000Y-75787000D03*
X112262000Y-75787000D03*
X109722000Y-75787000D03*
X107182000Y-75787000D03*
X104642000Y-75787000D03*
X102102000Y-75787000D03*
X99562000Y-75787000D03*
X97022000Y-75787000D03*
X94482000Y-75787000D03*
X130042000Y-50387000D03*
X127502000Y-50387000D03*
X124962000Y-50387000D03*
X122422000Y-50387000D03*
X119882000Y-50387000D03*
X117342000Y-50387000D03*
X114802000Y-50387000D03*
X112262000Y-50387000D03*
X109722000Y-50387000D03*
X107182000Y-50387000D03*
X104642000Y-50387000D03*
X102102000Y-50387000D03*
X99562000Y-50387000D03*
X97022000Y-50387000D03*
X94482000Y-50387000D03*
D10*
X107200000Y-42375000D03*
D11*
X109740000Y-42375000D03*
X112280000Y-42375000D03*
X114820000Y-42375000D03*
X100850000Y-86945000D03*
X103390000Y-86945000D03*
X105930000Y-86945000D03*
D10*
X108470000Y-86945000D03*
D11*
X97620000Y-42000000D03*
X95080000Y-42000000D03*
X92540000Y-42000000D03*
X90000000Y-42000000D03*
D10*
X87460000Y-42000000D03*
D13*
X151050000Y-62490000D03*
D14*
X157050000Y-62490000D03*
X154050000Y-57790000D03*
D15*
X96075000Y-86625000D02*
X98309000Y-86625000D01*
X98309000Y-86625000D02*
X98552000Y-86868000D01*
X98552000Y-86868000D02*
X98552000Y-97028000D01*
X98552000Y-97028000D02*
X100584000Y-99060000D01*
X100584000Y-99060000D02*
X118364000Y-99060000D01*
X118364000Y-99060000D02*
X118364000Y-77305000D01*
X118364000Y-77305000D02*
X119882000Y-75787000D01*
X151050000Y-62490000D02*
X151050000Y-67150000D01*
X151050000Y-67150000D02*
X152400000Y-68500000D01*
X152400000Y-68500000D02*
X159640000Y-68500000D01*
X159640000Y-68500000D02*
X159640000Y-60600000D01*
X159640000Y-60600000D02*
X142890000Y-43850000D01*
X138390000Y-95850000D02*
X148970000Y-85270000D01*
X148970000Y-85270000D02*
X148970000Y-64570000D01*
X148970000Y-64570000D02*
X151050000Y-62490000D01*
X127650000Y-43850000D02*
X125870000Y-45630000D01*
X125870000Y-45630000D02*
X123130000Y-45630000D01*
X123130000Y-45630000D02*
X123000000Y-45500000D01*
X123000000Y-45500000D02*
X123000000Y-40840000D01*
X123000000Y-40840000D02*
X123280000Y-40560000D01*
X137000000Y-100000000D02*
X118800000Y-100000000D01*
X123280000Y-40560000D02*
X142170000Y-40560000D01*
X142170000Y-40560000D02*
X160960000Y-59350000D01*
X160960000Y-59350000D02*
X160960000Y-76040000D01*
X160960000Y-76040000D02*
X137000000Y-100000000D01*
X157050000Y-62490000D02*
X154690000Y-60130000D01*
X151630000Y-60130000D02*
X149500000Y-58000000D01*
X154690000Y-60130000D02*
X151630000Y-60130000D01*
X149500000Y-58000000D02*
X143700000Y-58000000D01*
X143700000Y-58000000D02*
X140350000Y-61350000D01*
X120610000Y-95850000D02*
X124580000Y-91880000D01*
X109722000Y-75787000D02*
X109722000Y-77962000D01*
X109722000Y-77962000D02*
X115890000Y-84130000D01*
X107182000Y-75787000D02*
X107182000Y-77587000D01*
X107182000Y-77587000D02*
X113350000Y-83755000D01*
X115890000Y-87170000D02*
X115890000Y-84130000D01*
X113350000Y-87170000D02*
X113350000Y-83755000D01*
X119000000Y-100000000D02*
X118800000Y-100000000D01*
X118800000Y-100000000D02*
X81000000Y-100000000D01*
X95080000Y-42000000D02*
X91880000Y-45200000D01*
X91880000Y-45200000D02*
X87200000Y-45200000D01*
X87200000Y-45200000D02*
X85600000Y-46800000D01*
X85600000Y-46800000D02*
X85600000Y-66905000D01*
X85600000Y-66905000D02*
X94482000Y-75787000D01*
X93220000Y-46400000D02*
X88600000Y-46400000D01*
X97620000Y-42000000D02*
X93220000Y-46400000D01*
X88600000Y-60800000D02*
X100304500Y-72504500D01*
X97022000Y-75787000D02*
X100304500Y-72504500D01*
X100304500Y-72504500D02*
X104089000Y-68720000D01*
X88600000Y-46400000D02*
X88600000Y-60800000D01*
X81000000Y-79787000D02*
X83893500Y-76893500D01*
X83893500Y-76893500D02*
X85000000Y-75787000D01*
X88455000Y-86625000D02*
X83893500Y-82063500D01*
X83893500Y-82063500D02*
X83893500Y-76893500D01*
X90995000Y-86625000D02*
X97022000Y-80598000D01*
X97022000Y-80598000D02*
X97022000Y-75787000D01*
X96075000Y-86625000D02*
X96344000Y-86625000D01*
X123150000Y-95850000D02*
X119000000Y-100000000D01*
X81000000Y-100000000D02*
X81000000Y-79787000D01*
X85000000Y-75787000D02*
X94482000Y-75787000D01*
X109740000Y-42375000D02*
X109740000Y-46440000D01*
X109740000Y-46440000D02*
X111260000Y-47960000D01*
X111260000Y-47960000D02*
X135260000Y-47960000D01*
X135260000Y-47960000D02*
X135300000Y-48000000D01*
X135300000Y-48000000D02*
X135300000Y-43880000D01*
X135300000Y-43880000D02*
X135270000Y-43850000D01*
X112280000Y-42375000D02*
X111077500Y-43577500D01*
X111077500Y-43577500D02*
X114750000Y-47250000D01*
X114750000Y-47250000D02*
X132730000Y-47250000D01*
X132730000Y-47250000D02*
X132730000Y-43850000D01*
X107200000Y-42375000D02*
X107200000Y-48700000D01*
X107200000Y-48700000D02*
X107300000Y-48800000D01*
X107300000Y-48800000D02*
X137700000Y-48800000D01*
X137700000Y-48800000D02*
X137810000Y-48690000D01*
X137810000Y-48690000D02*
X137810000Y-43850000D01*
X135850000Y-95850000D02*
X139820000Y-91880000D01*
X139820000Y-91880000D02*
X142000000Y-89700000D01*
X124580000Y-91880000D02*
X139820000Y-91880000D01*
X104089000Y-68720000D02*
X132980000Y-68720000D01*
X132980000Y-68720000D02*
X140350000Y-61350000D01*
X142890000Y-44370000D02*
X142890000Y-43850000D01*
X125110000Y-43850000D02*
X126840000Y-42120000D01*
X126840000Y-42120000D02*
X138620000Y-42120000D01*
X138620000Y-42120000D02*
X140350000Y-43850000D01*
X114820000Y-42375000D02*
X114820000Y-45820000D01*
X114820000Y-45820000D02*
X115420000Y-46420000D01*
X115420000Y-46420000D02*
X130190000Y-46420000D01*
X130190000Y-46420000D02*
X130190000Y-43850000D01*
X142000000Y-89700000D02*
X142000000Y-63000000D01*
X142000000Y-63000000D02*
X140350000Y-61350000D01*
X120610000Y-83150000D02*
X120610000Y-82770000D01*
X120610000Y-82770000D02*
X127502000Y-75878000D01*
X127502000Y-75878000D02*
X127502000Y-75787000D01*
X140350000Y-43850000D02*
X140350000Y-61350000D01*
X123150000Y-83150000D02*
X130042000Y-76258000D01*
X130042000Y-76258000D02*
X130042000Y-75787000D01*
X123150000Y-95850000D02*
X123000000Y-96000000D01*
X135500000Y-95500000D02*
X135850000Y-95850000D01*
M02*
