M48
; DRILL file {KiCad 8.0.8-8.0.8-0~ubuntu20.04.1} date 2025-01-23T22:26:57-0500
; FORMAT={-:-/ absolute / metric / decimal}
; #@! TF.CreationDate,2025-01-23T22:26:57-05:00
; #@! TF.GenerationSoftware,Kicad,Pcbnew,8.0.8-8.0.8-0~ubuntu20.04.1
; #@! TF.FileFunction,Plated,1,2,PTH
FMAT,2
METRIC
; #@! TA.AperFunction,Plated,PTH,ComponentDrill
T1C1.000
; #@! TA.AperFunction,Plated,PTH,ComponentDrill
T2C1.016
; #@! TA.AperFunction,Plated,PTH,ComponentDrill
T3C1.600
%
G90
G05
T1
X85.915Y-86.625
X87.46Y-42.0
X88.455Y-86.625
X90.0Y-42.0
X90.995Y-86.625
X92.54Y-42.0
X93.535Y-86.625
X95.08Y-42.0
X96.075Y-86.625
X97.62Y-42.0
X100.85Y-86.945
X103.39Y-86.945
X105.93Y-86.945
X107.2Y-42.375
X108.47Y-86.945
X109.74Y-42.375
X112.28Y-42.375
X113.35Y-87.17
X114.82Y-42.375
X115.89Y-87.17
T2
X94.482Y-50.387
X94.482Y-75.787
X97.022Y-50.387
X97.022Y-75.787
X99.562Y-50.387
X99.562Y-75.787
X102.102Y-50.387
X102.102Y-75.787
X104.642Y-50.387
X104.642Y-75.787
X107.182Y-50.387
X107.182Y-75.787
X109.722Y-50.387
X109.722Y-75.787
X112.262Y-50.387
X112.262Y-75.787
X114.802Y-50.387
X114.802Y-75.787
X117.342Y-50.387
X117.342Y-75.787
X119.882Y-50.387
X119.882Y-75.787
X120.61Y-83.15
X120.61Y-95.85
X122.422Y-50.387
X122.422Y-75.787
X123.15Y-83.15
X123.15Y-95.85
X124.962Y-50.387
X124.962Y-75.787
X125.11Y-31.15
X125.11Y-43.85
X125.69Y-83.15
X125.69Y-95.85
X127.502Y-50.387
X127.502Y-75.787
X127.65Y-31.15
X127.65Y-43.85
X128.23Y-83.15
X128.23Y-95.85
X130.042Y-50.387
X130.042Y-75.787
X130.19Y-31.15
X130.19Y-43.85
X130.77Y-83.15
X130.77Y-95.85
X132.73Y-31.15
X132.73Y-43.85
X133.31Y-83.15
X133.31Y-95.85
X135.27Y-31.15
X135.27Y-43.85
X135.85Y-83.15
X135.85Y-95.85
X136.739Y-86.96
X137.81Y-31.15
X137.81Y-43.85
X138.39Y-83.15
X138.39Y-85.69
X138.39Y-88.23
X138.39Y-95.85
X140.35Y-31.15
X140.35Y-43.85
X141.239Y-34.96
X142.89Y-31.15
X142.89Y-33.69
X142.89Y-36.23
X142.89Y-43.85
T3
X151.05Y-62.49
X154.05Y-57.79
X157.05Y-62.49
M30
