G04 #@! TF.GenerationSoftware,KiCad,Pcbnew,8.0.8-8.0.8-0~ubuntu20.04.1*
G04 #@! TF.CreationDate,2025-01-23T22:26:11-05:00*
G04 #@! TF.ProjectId,sub_pcb,7375625f-7063-4622-9e6b-696361645f70,rev?*
G04 #@! TF.SameCoordinates,Original*
G04 #@! TF.FileFunction,Legend,Top*
G04 #@! TF.FilePolarity,Positive*
%FSLAX46Y46*%
G04 Gerber Fmt 4.6, Leading zero omitted, Abs format (unit mm)*
G04 Created by KiCad (PCBNEW 8.0.8-8.0.8-0~ubuntu20.04.1) date 2025-01-23 22:26:11*
%MOMM*%
%LPD*%
G01*
G04 APERTURE LIST*
%ADD10C,0.150000*%
%ADD11C,0.200000*%
%ADD12C,0.100000*%
%ADD13C,0.120000*%
%ADD14C,0.000000*%
%ADD15C,0.127000*%
%ADD16C,3.200000*%
%ADD17R,1.700000X1.700000*%
%ADD18O,1.700000X1.700000*%
%ADD19C,1.728000*%
%ADD20R,2.600000X2.600000*%
%ADD21C,2.600000*%
G04 APERTURE END LIST*
D10*
X101576571Y-98451200D02*
X101719428Y-98498819D01*
X101719428Y-98498819D02*
X101957523Y-98498819D01*
X101957523Y-98498819D02*
X102052761Y-98451200D01*
X102052761Y-98451200D02*
X102100380Y-98403580D01*
X102100380Y-98403580D02*
X102147999Y-98308342D01*
X102147999Y-98308342D02*
X102147999Y-98213104D01*
X102147999Y-98213104D02*
X102100380Y-98117866D01*
X102100380Y-98117866D02*
X102052761Y-98070247D01*
X102052761Y-98070247D02*
X101957523Y-98022628D01*
X101957523Y-98022628D02*
X101767047Y-97975009D01*
X101767047Y-97975009D02*
X101671809Y-97927390D01*
X101671809Y-97927390D02*
X101624190Y-97879771D01*
X101624190Y-97879771D02*
X101576571Y-97784533D01*
X101576571Y-97784533D02*
X101576571Y-97689295D01*
X101576571Y-97689295D02*
X101624190Y-97594057D01*
X101624190Y-97594057D02*
X101671809Y-97546438D01*
X101671809Y-97546438D02*
X101767047Y-97498819D01*
X101767047Y-97498819D02*
X102005142Y-97498819D01*
X102005142Y-97498819D02*
X102147999Y-97546438D01*
X102433714Y-97498819D02*
X103005142Y-97498819D01*
X102719428Y-98498819D02*
X102719428Y-97498819D01*
X103338476Y-97975009D02*
X103671809Y-97975009D01*
X103814666Y-98498819D02*
X103338476Y-98498819D01*
X103338476Y-98498819D02*
X103338476Y-97498819D01*
X103338476Y-97498819D02*
X103814666Y-97498819D01*
X104243238Y-98498819D02*
X104243238Y-97498819D01*
X104243238Y-97498819D02*
X104624190Y-97498819D01*
X104624190Y-97498819D02*
X104719428Y-97546438D01*
X104719428Y-97546438D02*
X104767047Y-97594057D01*
X104767047Y-97594057D02*
X104814666Y-97689295D01*
X104814666Y-97689295D02*
X104814666Y-97832152D01*
X104814666Y-97832152D02*
X104767047Y-97927390D01*
X104767047Y-97927390D02*
X104719428Y-97975009D01*
X104719428Y-97975009D02*
X104624190Y-98022628D01*
X104624190Y-98022628D02*
X104243238Y-98022628D01*
X105243238Y-98498819D02*
X105243238Y-97498819D01*
X105243238Y-97498819D02*
X105624190Y-97498819D01*
X105624190Y-97498819D02*
X105719428Y-97546438D01*
X105719428Y-97546438D02*
X105767047Y-97594057D01*
X105767047Y-97594057D02*
X105814666Y-97689295D01*
X105814666Y-97689295D02*
X105814666Y-97832152D01*
X105814666Y-97832152D02*
X105767047Y-97927390D01*
X105767047Y-97927390D02*
X105719428Y-97975009D01*
X105719428Y-97975009D02*
X105624190Y-98022628D01*
X105624190Y-98022628D02*
X105243238Y-98022628D01*
X106243238Y-97975009D02*
X106576571Y-97975009D01*
X106719428Y-98498819D02*
X106243238Y-98498819D01*
X106243238Y-98498819D02*
X106243238Y-97498819D01*
X106243238Y-97498819D02*
X106719428Y-97498819D01*
X107719428Y-98498819D02*
X107386095Y-98022628D01*
X107148000Y-98498819D02*
X107148000Y-97498819D01*
X107148000Y-97498819D02*
X107528952Y-97498819D01*
X107528952Y-97498819D02*
X107624190Y-97546438D01*
X107624190Y-97546438D02*
X107671809Y-97594057D01*
X107671809Y-97594057D02*
X107719428Y-97689295D01*
X107719428Y-97689295D02*
X107719428Y-97832152D01*
X107719428Y-97832152D02*
X107671809Y-97927390D01*
X107671809Y-97927390D02*
X107624190Y-97975009D01*
X107624190Y-97975009D02*
X107528952Y-98022628D01*
X107528952Y-98022628D02*
X107148000Y-98022628D01*
X113307428Y-30072800D02*
X113164571Y-30025180D01*
X113164571Y-30025180D02*
X112926476Y-30025180D01*
X112926476Y-30025180D02*
X112831238Y-30072800D01*
X112831238Y-30072800D02*
X112783619Y-30120419D01*
X112783619Y-30120419D02*
X112736000Y-30215657D01*
X112736000Y-30215657D02*
X112736000Y-30310895D01*
X112736000Y-30310895D02*
X112783619Y-30406133D01*
X112783619Y-30406133D02*
X112831238Y-30453752D01*
X112831238Y-30453752D02*
X112926476Y-30501371D01*
X112926476Y-30501371D02*
X113116952Y-30548990D01*
X113116952Y-30548990D02*
X113212190Y-30596609D01*
X113212190Y-30596609D02*
X113259809Y-30644228D01*
X113259809Y-30644228D02*
X113307428Y-30739466D01*
X113307428Y-30739466D02*
X113307428Y-30834704D01*
X113307428Y-30834704D02*
X113259809Y-30929942D01*
X113259809Y-30929942D02*
X113212190Y-30977561D01*
X113212190Y-30977561D02*
X113116952Y-31025180D01*
X113116952Y-31025180D02*
X112878857Y-31025180D01*
X112878857Y-31025180D02*
X112736000Y-30977561D01*
X112450285Y-31025180D02*
X111878857Y-31025180D01*
X112164571Y-30025180D02*
X112164571Y-31025180D01*
X111545523Y-30548990D02*
X111212190Y-30548990D01*
X111069333Y-30025180D02*
X111545523Y-30025180D01*
X111545523Y-30025180D02*
X111545523Y-31025180D01*
X111545523Y-31025180D02*
X111069333Y-31025180D01*
X110640761Y-30025180D02*
X110640761Y-31025180D01*
X110640761Y-31025180D02*
X110259809Y-31025180D01*
X110259809Y-31025180D02*
X110164571Y-30977561D01*
X110164571Y-30977561D02*
X110116952Y-30929942D01*
X110116952Y-30929942D02*
X110069333Y-30834704D01*
X110069333Y-30834704D02*
X110069333Y-30691847D01*
X110069333Y-30691847D02*
X110116952Y-30596609D01*
X110116952Y-30596609D02*
X110164571Y-30548990D01*
X110164571Y-30548990D02*
X110259809Y-30501371D01*
X110259809Y-30501371D02*
X110640761Y-30501371D01*
X109640761Y-30025180D02*
X109640761Y-31025180D01*
X109640761Y-31025180D02*
X109259809Y-31025180D01*
X109259809Y-31025180D02*
X109164571Y-30977561D01*
X109164571Y-30977561D02*
X109116952Y-30929942D01*
X109116952Y-30929942D02*
X109069333Y-30834704D01*
X109069333Y-30834704D02*
X109069333Y-30691847D01*
X109069333Y-30691847D02*
X109116952Y-30596609D01*
X109116952Y-30596609D02*
X109164571Y-30548990D01*
X109164571Y-30548990D02*
X109259809Y-30501371D01*
X109259809Y-30501371D02*
X109640761Y-30501371D01*
X108640761Y-30548990D02*
X108307428Y-30548990D01*
X108164571Y-30025180D02*
X108640761Y-30025180D01*
X108640761Y-30025180D02*
X108640761Y-31025180D01*
X108640761Y-31025180D02*
X108164571Y-31025180D01*
X107164571Y-30025180D02*
X107497904Y-30501371D01*
X107735999Y-30025180D02*
X107735999Y-31025180D01*
X107735999Y-31025180D02*
X107355047Y-31025180D01*
X107355047Y-31025180D02*
X107259809Y-30977561D01*
X107259809Y-30977561D02*
X107212190Y-30929942D01*
X107212190Y-30929942D02*
X107164571Y-30834704D01*
X107164571Y-30834704D02*
X107164571Y-30691847D01*
X107164571Y-30691847D02*
X107212190Y-30596609D01*
X107212190Y-30596609D02*
X107259809Y-30548990D01*
X107259809Y-30548990D02*
X107355047Y-30501371D01*
X107355047Y-30501371D02*
X107735999Y-30501371D01*
X99503619Y-30469561D02*
X99598857Y-30517180D01*
X99598857Y-30517180D02*
X99741714Y-30517180D01*
X99741714Y-30517180D02*
X99884571Y-30469561D01*
X99884571Y-30469561D02*
X99979809Y-30374323D01*
X99979809Y-30374323D02*
X100027428Y-30279085D01*
X100027428Y-30279085D02*
X100075047Y-30088609D01*
X100075047Y-30088609D02*
X100075047Y-29945752D01*
X100075047Y-29945752D02*
X100027428Y-29755276D01*
X100027428Y-29755276D02*
X99979809Y-29660038D01*
X99979809Y-29660038D02*
X99884571Y-29564800D01*
X99884571Y-29564800D02*
X99741714Y-29517180D01*
X99741714Y-29517180D02*
X99646476Y-29517180D01*
X99646476Y-29517180D02*
X99503619Y-29564800D01*
X99503619Y-29564800D02*
X99456000Y-29612419D01*
X99456000Y-29612419D02*
X99456000Y-29945752D01*
X99456000Y-29945752D02*
X99646476Y-29945752D01*
X99027428Y-29517180D02*
X99027428Y-30517180D01*
X99027428Y-30517180D02*
X98456000Y-29517180D01*
X98456000Y-29517180D02*
X98456000Y-30517180D01*
X97979809Y-29517180D02*
X97979809Y-30517180D01*
X97979809Y-30517180D02*
X97741714Y-30517180D01*
X97741714Y-30517180D02*
X97598857Y-30469561D01*
X97598857Y-30469561D02*
X97503619Y-30374323D01*
X97503619Y-30374323D02*
X97456000Y-30279085D01*
X97456000Y-30279085D02*
X97408381Y-30088609D01*
X97408381Y-30088609D02*
X97408381Y-29945752D01*
X97408381Y-29945752D02*
X97456000Y-29755276D01*
X97456000Y-29755276D02*
X97503619Y-29660038D01*
X97503619Y-29660038D02*
X97598857Y-29564800D01*
X97598857Y-29564800D02*
X97741714Y-29517180D01*
X97741714Y-29517180D02*
X97979809Y-29517180D01*
X96265524Y-30564800D02*
X97122666Y-29279085D01*
X96027428Y-30517180D02*
X95408381Y-30517180D01*
X95408381Y-30517180D02*
X95741714Y-30136228D01*
X95741714Y-30136228D02*
X95598857Y-30136228D01*
X95598857Y-30136228D02*
X95503619Y-30088609D01*
X95503619Y-30088609D02*
X95456000Y-30040990D01*
X95456000Y-30040990D02*
X95408381Y-29945752D01*
X95408381Y-29945752D02*
X95408381Y-29707657D01*
X95408381Y-29707657D02*
X95456000Y-29612419D01*
X95456000Y-29612419D02*
X95503619Y-29564800D01*
X95503619Y-29564800D02*
X95598857Y-29517180D01*
X95598857Y-29517180D02*
X95884571Y-29517180D01*
X95884571Y-29517180D02*
X95979809Y-29564800D01*
X95979809Y-29564800D02*
X96027428Y-29612419D01*
X95075047Y-30183847D02*
X94836952Y-29517180D01*
X94836952Y-29517180D02*
X94598857Y-30183847D01*
X93503619Y-30564800D02*
X94360761Y-29279085D01*
X92646476Y-30469561D02*
X92741714Y-30517180D01*
X92741714Y-30517180D02*
X92884571Y-30517180D01*
X92884571Y-30517180D02*
X93027428Y-30469561D01*
X93027428Y-30469561D02*
X93122666Y-30374323D01*
X93122666Y-30374323D02*
X93170285Y-30279085D01*
X93170285Y-30279085D02*
X93217904Y-30088609D01*
X93217904Y-30088609D02*
X93217904Y-29945752D01*
X93217904Y-29945752D02*
X93170285Y-29755276D01*
X93170285Y-29755276D02*
X93122666Y-29660038D01*
X93122666Y-29660038D02*
X93027428Y-29564800D01*
X93027428Y-29564800D02*
X92884571Y-29517180D01*
X92884571Y-29517180D02*
X92789333Y-29517180D01*
X92789333Y-29517180D02*
X92646476Y-29564800D01*
X92646476Y-29564800D02*
X92598857Y-29612419D01*
X92598857Y-29612419D02*
X92598857Y-29945752D01*
X92598857Y-29945752D02*
X92789333Y-29945752D01*
X92170285Y-29517180D02*
X92170285Y-30517180D01*
X92170285Y-30517180D02*
X91598857Y-29517180D01*
X91598857Y-29517180D02*
X91598857Y-30517180D01*
X91122666Y-29517180D02*
X91122666Y-30517180D01*
X91122666Y-30517180D02*
X90884571Y-30517180D01*
X90884571Y-30517180D02*
X90741714Y-30469561D01*
X90741714Y-30469561D02*
X90646476Y-30374323D01*
X90646476Y-30374323D02*
X90598857Y-30279085D01*
X90598857Y-30279085D02*
X90551238Y-30088609D01*
X90551238Y-30088609D02*
X90551238Y-29945752D01*
X90551238Y-29945752D02*
X90598857Y-29755276D01*
X90598857Y-29755276D02*
X90646476Y-29660038D01*
X90646476Y-29660038D02*
X90741714Y-29564800D01*
X90741714Y-29564800D02*
X90884571Y-29517180D01*
X90884571Y-29517180D02*
X91122666Y-29517180D01*
X89408381Y-30564800D02*
X90265523Y-29279085D01*
X88551238Y-29517180D02*
X89122666Y-29517180D01*
X88836952Y-29517180D02*
X88836952Y-30517180D01*
X88836952Y-30517180D02*
X88932190Y-30374323D01*
X88932190Y-30374323D02*
X89027428Y-30279085D01*
X89027428Y-30279085D02*
X89122666Y-30231466D01*
X88170285Y-30421942D02*
X88122666Y-30469561D01*
X88122666Y-30469561D02*
X88027428Y-30517180D01*
X88027428Y-30517180D02*
X87789333Y-30517180D01*
X87789333Y-30517180D02*
X87694095Y-30469561D01*
X87694095Y-30469561D02*
X87646476Y-30421942D01*
X87646476Y-30421942D02*
X87598857Y-30326704D01*
X87598857Y-30326704D02*
X87598857Y-30231466D01*
X87598857Y-30231466D02*
X87646476Y-30088609D01*
X87646476Y-30088609D02*
X88217904Y-29517180D01*
X88217904Y-29517180D02*
X87598857Y-29517180D01*
X87265523Y-30183847D02*
X87027428Y-29517180D01*
X87027428Y-29517180D02*
X86789333Y-30183847D01*
X85694095Y-30564800D02*
X86551237Y-29279085D01*
X85408380Y-29564800D02*
X85265523Y-29517180D01*
X85265523Y-29517180D02*
X85027428Y-29517180D01*
X85027428Y-29517180D02*
X84932190Y-29564800D01*
X84932190Y-29564800D02*
X84884571Y-29612419D01*
X84884571Y-29612419D02*
X84836952Y-29707657D01*
X84836952Y-29707657D02*
X84836952Y-29802895D01*
X84836952Y-29802895D02*
X84884571Y-29898133D01*
X84884571Y-29898133D02*
X84932190Y-29945752D01*
X84932190Y-29945752D02*
X85027428Y-29993371D01*
X85027428Y-29993371D02*
X85217904Y-30040990D01*
X85217904Y-30040990D02*
X85313142Y-30088609D01*
X85313142Y-30088609D02*
X85360761Y-30136228D01*
X85360761Y-30136228D02*
X85408380Y-30231466D01*
X85408380Y-30231466D02*
X85408380Y-30326704D01*
X85408380Y-30326704D02*
X85360761Y-30421942D01*
X85360761Y-30421942D02*
X85313142Y-30469561D01*
X85313142Y-30469561D02*
X85217904Y-30517180D01*
X85217904Y-30517180D02*
X84979809Y-30517180D01*
X84979809Y-30517180D02*
X84836952Y-30469561D01*
X83884380Y-97982438D02*
X83789142Y-97934819D01*
X83789142Y-97934819D02*
X83646285Y-97934819D01*
X83646285Y-97934819D02*
X83503428Y-97982438D01*
X83503428Y-97982438D02*
X83408190Y-98077676D01*
X83408190Y-98077676D02*
X83360571Y-98172914D01*
X83360571Y-98172914D02*
X83312952Y-98363390D01*
X83312952Y-98363390D02*
X83312952Y-98506247D01*
X83312952Y-98506247D02*
X83360571Y-98696723D01*
X83360571Y-98696723D02*
X83408190Y-98791961D01*
X83408190Y-98791961D02*
X83503428Y-98887200D01*
X83503428Y-98887200D02*
X83646285Y-98934819D01*
X83646285Y-98934819D02*
X83741523Y-98934819D01*
X83741523Y-98934819D02*
X83884380Y-98887200D01*
X83884380Y-98887200D02*
X83931999Y-98839580D01*
X83931999Y-98839580D02*
X83931999Y-98506247D01*
X83931999Y-98506247D02*
X83741523Y-98506247D01*
X84360571Y-98934819D02*
X84360571Y-97934819D01*
X84360571Y-97934819D02*
X84931999Y-98934819D01*
X84931999Y-98934819D02*
X84931999Y-97934819D01*
X85408190Y-98934819D02*
X85408190Y-97934819D01*
X85408190Y-97934819D02*
X85646285Y-97934819D01*
X85646285Y-97934819D02*
X85789142Y-97982438D01*
X85789142Y-97982438D02*
X85884380Y-98077676D01*
X85884380Y-98077676D02*
X85931999Y-98172914D01*
X85931999Y-98172914D02*
X85979618Y-98363390D01*
X85979618Y-98363390D02*
X85979618Y-98506247D01*
X85979618Y-98506247D02*
X85931999Y-98696723D01*
X85931999Y-98696723D02*
X85884380Y-98791961D01*
X85884380Y-98791961D02*
X85789142Y-98887200D01*
X85789142Y-98887200D02*
X85646285Y-98934819D01*
X85646285Y-98934819D02*
X85408190Y-98934819D01*
X87122475Y-97887200D02*
X86265333Y-99172914D01*
X87360571Y-97934819D02*
X87979618Y-97934819D01*
X87979618Y-97934819D02*
X87646285Y-98315771D01*
X87646285Y-98315771D02*
X87789142Y-98315771D01*
X87789142Y-98315771D02*
X87884380Y-98363390D01*
X87884380Y-98363390D02*
X87931999Y-98411009D01*
X87931999Y-98411009D02*
X87979618Y-98506247D01*
X87979618Y-98506247D02*
X87979618Y-98744342D01*
X87979618Y-98744342D02*
X87931999Y-98839580D01*
X87931999Y-98839580D02*
X87884380Y-98887200D01*
X87884380Y-98887200D02*
X87789142Y-98934819D01*
X87789142Y-98934819D02*
X87503428Y-98934819D01*
X87503428Y-98934819D02*
X87408190Y-98887200D01*
X87408190Y-98887200D02*
X87360571Y-98839580D01*
X88312952Y-98268152D02*
X88551047Y-98934819D01*
X88551047Y-98934819D02*
X88789142Y-98268152D01*
X89884380Y-97887200D02*
X89027238Y-99172914D01*
X90741523Y-97982438D02*
X90646285Y-97934819D01*
X90646285Y-97934819D02*
X90503428Y-97934819D01*
X90503428Y-97934819D02*
X90360571Y-97982438D01*
X90360571Y-97982438D02*
X90265333Y-98077676D01*
X90265333Y-98077676D02*
X90217714Y-98172914D01*
X90217714Y-98172914D02*
X90170095Y-98363390D01*
X90170095Y-98363390D02*
X90170095Y-98506247D01*
X90170095Y-98506247D02*
X90217714Y-98696723D01*
X90217714Y-98696723D02*
X90265333Y-98791961D01*
X90265333Y-98791961D02*
X90360571Y-98887200D01*
X90360571Y-98887200D02*
X90503428Y-98934819D01*
X90503428Y-98934819D02*
X90598666Y-98934819D01*
X90598666Y-98934819D02*
X90741523Y-98887200D01*
X90741523Y-98887200D02*
X90789142Y-98839580D01*
X90789142Y-98839580D02*
X90789142Y-98506247D01*
X90789142Y-98506247D02*
X90598666Y-98506247D01*
X91217714Y-98934819D02*
X91217714Y-97934819D01*
X91217714Y-97934819D02*
X91789142Y-98934819D01*
X91789142Y-98934819D02*
X91789142Y-97934819D01*
X92265333Y-98934819D02*
X92265333Y-97934819D01*
X92265333Y-97934819D02*
X92503428Y-97934819D01*
X92503428Y-97934819D02*
X92646285Y-97982438D01*
X92646285Y-97982438D02*
X92741523Y-98077676D01*
X92741523Y-98077676D02*
X92789142Y-98172914D01*
X92789142Y-98172914D02*
X92836761Y-98363390D01*
X92836761Y-98363390D02*
X92836761Y-98506247D01*
X92836761Y-98506247D02*
X92789142Y-98696723D01*
X92789142Y-98696723D02*
X92741523Y-98791961D01*
X92741523Y-98791961D02*
X92646285Y-98887200D01*
X92646285Y-98887200D02*
X92503428Y-98934819D01*
X92503428Y-98934819D02*
X92265333Y-98934819D01*
X93979618Y-97887200D02*
X93122476Y-99172914D01*
X94836761Y-98934819D02*
X94265333Y-98934819D01*
X94551047Y-98934819D02*
X94551047Y-97934819D01*
X94551047Y-97934819D02*
X94455809Y-98077676D01*
X94455809Y-98077676D02*
X94360571Y-98172914D01*
X94360571Y-98172914D02*
X94265333Y-98220533D01*
X95217714Y-98030057D02*
X95265333Y-97982438D01*
X95265333Y-97982438D02*
X95360571Y-97934819D01*
X95360571Y-97934819D02*
X95598666Y-97934819D01*
X95598666Y-97934819D02*
X95693904Y-97982438D01*
X95693904Y-97982438D02*
X95741523Y-98030057D01*
X95741523Y-98030057D02*
X95789142Y-98125295D01*
X95789142Y-98125295D02*
X95789142Y-98220533D01*
X95789142Y-98220533D02*
X95741523Y-98363390D01*
X95741523Y-98363390D02*
X95170095Y-98934819D01*
X95170095Y-98934819D02*
X95789142Y-98934819D01*
X96122476Y-98268152D02*
X96360571Y-98934819D01*
X96360571Y-98934819D02*
X96598666Y-98268152D01*
X97693904Y-97887200D02*
X96836762Y-99172914D01*
X97979619Y-98887200D02*
X98122476Y-98934819D01*
X98122476Y-98934819D02*
X98360571Y-98934819D01*
X98360571Y-98934819D02*
X98455809Y-98887200D01*
X98455809Y-98887200D02*
X98503428Y-98839580D01*
X98503428Y-98839580D02*
X98551047Y-98744342D01*
X98551047Y-98744342D02*
X98551047Y-98649104D01*
X98551047Y-98649104D02*
X98503428Y-98553866D01*
X98503428Y-98553866D02*
X98455809Y-98506247D01*
X98455809Y-98506247D02*
X98360571Y-98458628D01*
X98360571Y-98458628D02*
X98170095Y-98411009D01*
X98170095Y-98411009D02*
X98074857Y-98363390D01*
X98074857Y-98363390D02*
X98027238Y-98315771D01*
X98027238Y-98315771D02*
X97979619Y-98220533D01*
X97979619Y-98220533D02*
X97979619Y-98125295D01*
X97979619Y-98125295D02*
X98027238Y-98030057D01*
X98027238Y-98030057D02*
X98074857Y-97982438D01*
X98074857Y-97982438D02*
X98170095Y-97934819D01*
X98170095Y-97934819D02*
X98408190Y-97934819D01*
X98408190Y-97934819D02*
X98551047Y-97982438D01*
X112546095Y-97498819D02*
X113117523Y-97498819D01*
X112831809Y-98498819D02*
X112831809Y-97498819D01*
X113355619Y-97498819D02*
X114022285Y-98498819D01*
X114022285Y-97498819D02*
X113355619Y-98498819D01*
X115117523Y-97451200D02*
X114260381Y-98736914D01*
X116022285Y-98498819D02*
X115688952Y-98022628D01*
X115450857Y-98498819D02*
X115450857Y-97498819D01*
X115450857Y-97498819D02*
X115831809Y-97498819D01*
X115831809Y-97498819D02*
X115927047Y-97546438D01*
X115927047Y-97546438D02*
X115974666Y-97594057D01*
X115974666Y-97594057D02*
X116022285Y-97689295D01*
X116022285Y-97689295D02*
X116022285Y-97832152D01*
X116022285Y-97832152D02*
X115974666Y-97927390D01*
X115974666Y-97927390D02*
X115927047Y-97975009D01*
X115927047Y-97975009D02*
X115831809Y-98022628D01*
X115831809Y-98022628D02*
X115450857Y-98022628D01*
X116355619Y-97498819D02*
X117022285Y-98498819D01*
X117022285Y-97498819D02*
X116355619Y-98498819D01*
D11*
X158426232Y-71950054D02*
X158378612Y-72045292D01*
X158378612Y-72045292D02*
X158378612Y-72235768D01*
X158378612Y-72235768D02*
X158426232Y-72331006D01*
X158426232Y-72331006D02*
X158521470Y-72378625D01*
X158521470Y-72378625D02*
X158569089Y-72378625D01*
X158569089Y-72378625D02*
X158664327Y-72331006D01*
X158664327Y-72331006D02*
X158711946Y-72235768D01*
X158711946Y-72235768D02*
X158711946Y-72092911D01*
X158711946Y-72092911D02*
X158759565Y-71997673D01*
X158759565Y-71997673D02*
X158854803Y-71950054D01*
X158854803Y-71950054D02*
X158902422Y-71950054D01*
X158902422Y-71950054D02*
X158997660Y-71997673D01*
X158997660Y-71997673D02*
X159045279Y-72092911D01*
X159045279Y-72092911D02*
X159045279Y-72235768D01*
X159045279Y-72235768D02*
X158997660Y-72331006D01*
X158378612Y-72807197D02*
X159045279Y-72807197D01*
X159378612Y-72807197D02*
X159330993Y-72759578D01*
X159330993Y-72759578D02*
X159283374Y-72807197D01*
X159283374Y-72807197D02*
X159330993Y-72854816D01*
X159330993Y-72854816D02*
X159378612Y-72807197D01*
X159378612Y-72807197D02*
X159283374Y-72807197D01*
X158378612Y-73426244D02*
X158426232Y-73331006D01*
X158426232Y-73331006D02*
X158521470Y-73283387D01*
X158521470Y-73283387D02*
X159378612Y-73283387D01*
X158378612Y-73950054D02*
X158426232Y-73854816D01*
X158426232Y-73854816D02*
X158521470Y-73807197D01*
X158521470Y-73807197D02*
X159378612Y-73807197D01*
X159045279Y-74235769D02*
X158378612Y-74473864D01*
X159045279Y-74711959D02*
X158378612Y-74473864D01*
X158378612Y-74473864D02*
X158140517Y-74378626D01*
X158140517Y-74378626D02*
X158092898Y-74331007D01*
X158092898Y-74331007D02*
X158045279Y-74235769D01*
X158759565Y-75092912D02*
X158759565Y-75854817D01*
X158426232Y-76283388D02*
X158378612Y-76378626D01*
X158378612Y-76378626D02*
X158378612Y-76569102D01*
X158378612Y-76569102D02*
X158426232Y-76664340D01*
X158426232Y-76664340D02*
X158521470Y-76711959D01*
X158521470Y-76711959D02*
X158569089Y-76711959D01*
X158569089Y-76711959D02*
X158664327Y-76664340D01*
X158664327Y-76664340D02*
X158711946Y-76569102D01*
X158711946Y-76569102D02*
X158711946Y-76426245D01*
X158711946Y-76426245D02*
X158759565Y-76331007D01*
X158759565Y-76331007D02*
X158854803Y-76283388D01*
X158854803Y-76283388D02*
X158902422Y-76283388D01*
X158902422Y-76283388D02*
X158997660Y-76331007D01*
X158997660Y-76331007D02*
X159045279Y-76426245D01*
X159045279Y-76426245D02*
X159045279Y-76569102D01*
X159045279Y-76569102D02*
X158997660Y-76664340D01*
X159045279Y-77569102D02*
X158378612Y-77569102D01*
X159045279Y-77140531D02*
X158521470Y-77140531D01*
X158521470Y-77140531D02*
X158426232Y-77188150D01*
X158426232Y-77188150D02*
X158378612Y-77283388D01*
X158378612Y-77283388D02*
X158378612Y-77426245D01*
X158378612Y-77426245D02*
X158426232Y-77521483D01*
X158426232Y-77521483D02*
X158473851Y-77569102D01*
X158378612Y-78045293D02*
X159378612Y-78045293D01*
X158997660Y-78045293D02*
X159045279Y-78140531D01*
X159045279Y-78140531D02*
X159045279Y-78331007D01*
X159045279Y-78331007D02*
X158997660Y-78426245D01*
X158997660Y-78426245D02*
X158950041Y-78473864D01*
X158950041Y-78473864D02*
X158854803Y-78521483D01*
X158854803Y-78521483D02*
X158569089Y-78521483D01*
X158569089Y-78521483D02*
X158473851Y-78473864D01*
X158473851Y-78473864D02*
X158426232Y-78426245D01*
X158426232Y-78426245D02*
X158378612Y-78331007D01*
X158378612Y-78331007D02*
X158378612Y-78140531D01*
X158378612Y-78140531D02*
X158426232Y-78045293D01*
X158378612Y-78950055D02*
X159045279Y-78950055D01*
X158950041Y-78950055D02*
X158997660Y-78997674D01*
X158997660Y-78997674D02*
X159045279Y-79092912D01*
X159045279Y-79092912D02*
X159045279Y-79235769D01*
X159045279Y-79235769D02*
X158997660Y-79331007D01*
X158997660Y-79331007D02*
X158902422Y-79378626D01*
X158902422Y-79378626D02*
X158378612Y-79378626D01*
X158902422Y-79378626D02*
X158997660Y-79426245D01*
X158997660Y-79426245D02*
X159045279Y-79521483D01*
X159045279Y-79521483D02*
X159045279Y-79664340D01*
X159045279Y-79664340D02*
X158997660Y-79759579D01*
X158997660Y-79759579D02*
X158902422Y-79807198D01*
X158902422Y-79807198D02*
X158378612Y-79807198D01*
X158378612Y-80711959D02*
X158902422Y-80711959D01*
X158902422Y-80711959D02*
X158997660Y-80664340D01*
X158997660Y-80664340D02*
X159045279Y-80569102D01*
X159045279Y-80569102D02*
X159045279Y-80378626D01*
X159045279Y-80378626D02*
X158997660Y-80283388D01*
X158426232Y-80711959D02*
X158378612Y-80616721D01*
X158378612Y-80616721D02*
X158378612Y-80378626D01*
X158378612Y-80378626D02*
X158426232Y-80283388D01*
X158426232Y-80283388D02*
X158521470Y-80235769D01*
X158521470Y-80235769D02*
X158616708Y-80235769D01*
X158616708Y-80235769D02*
X158711946Y-80283388D01*
X158711946Y-80283388D02*
X158759565Y-80378626D01*
X158759565Y-80378626D02*
X158759565Y-80616721D01*
X158759565Y-80616721D02*
X158807184Y-80711959D01*
X158378612Y-81188150D02*
X159045279Y-81188150D01*
X158854803Y-81188150D02*
X158950041Y-81235769D01*
X158950041Y-81235769D02*
X158997660Y-81283388D01*
X158997660Y-81283388D02*
X159045279Y-81378626D01*
X159045279Y-81378626D02*
X159045279Y-81473864D01*
X158378612Y-81807198D02*
X159045279Y-81807198D01*
X159378612Y-81807198D02*
X159330993Y-81759579D01*
X159330993Y-81759579D02*
X159283374Y-81807198D01*
X159283374Y-81807198D02*
X159330993Y-81854817D01*
X159330993Y-81854817D02*
X159378612Y-81807198D01*
X159378612Y-81807198D02*
X159283374Y-81807198D01*
X159045279Y-82283388D02*
X158378612Y-82283388D01*
X158950041Y-82283388D02*
X158997660Y-82331007D01*
X158997660Y-82331007D02*
X159045279Y-82426245D01*
X159045279Y-82426245D02*
X159045279Y-82569102D01*
X159045279Y-82569102D02*
X158997660Y-82664340D01*
X158997660Y-82664340D02*
X158902422Y-82711959D01*
X158902422Y-82711959D02*
X158378612Y-82711959D01*
X158426232Y-83569102D02*
X158378612Y-83473864D01*
X158378612Y-83473864D02*
X158378612Y-83283388D01*
X158378612Y-83283388D02*
X158426232Y-83188150D01*
X158426232Y-83188150D02*
X158521470Y-83140531D01*
X158521470Y-83140531D02*
X158902422Y-83140531D01*
X158902422Y-83140531D02*
X158997660Y-83188150D01*
X158997660Y-83188150D02*
X159045279Y-83283388D01*
X159045279Y-83283388D02*
X159045279Y-83473864D01*
X159045279Y-83473864D02*
X158997660Y-83569102D01*
X158997660Y-83569102D02*
X158902422Y-83616721D01*
X158902422Y-83616721D02*
X158807184Y-83616721D01*
X158807184Y-83616721D02*
X158711946Y-83140531D01*
X157292478Y-71997673D02*
X157292478Y-72331006D01*
X156768668Y-72473863D02*
X156768668Y-71997673D01*
X156768668Y-71997673D02*
X157768668Y-71997673D01*
X157768668Y-71997673D02*
X157768668Y-72473863D01*
X156816288Y-72854816D02*
X156768668Y-72997673D01*
X156768668Y-72997673D02*
X156768668Y-73235768D01*
X156768668Y-73235768D02*
X156816288Y-73331006D01*
X156816288Y-73331006D02*
X156863907Y-73378625D01*
X156863907Y-73378625D02*
X156959145Y-73426244D01*
X156959145Y-73426244D02*
X157054383Y-73426244D01*
X157054383Y-73426244D02*
X157149621Y-73378625D01*
X157149621Y-73378625D02*
X157197240Y-73331006D01*
X157197240Y-73331006D02*
X157244859Y-73235768D01*
X157244859Y-73235768D02*
X157292478Y-73045292D01*
X157292478Y-73045292D02*
X157340097Y-72950054D01*
X157340097Y-72950054D02*
X157387716Y-72902435D01*
X157387716Y-72902435D02*
X157482954Y-72854816D01*
X157482954Y-72854816D02*
X157578192Y-72854816D01*
X157578192Y-72854816D02*
X157673430Y-72902435D01*
X157673430Y-72902435D02*
X157721049Y-72950054D01*
X157721049Y-72950054D02*
X157768668Y-73045292D01*
X157768668Y-73045292D02*
X157768668Y-73283387D01*
X157768668Y-73283387D02*
X157721049Y-73426244D01*
X156768668Y-73854816D02*
X157768668Y-73854816D01*
X157768668Y-73854816D02*
X157768668Y-74235768D01*
X157768668Y-74235768D02*
X157721049Y-74331006D01*
X157721049Y-74331006D02*
X157673430Y-74378625D01*
X157673430Y-74378625D02*
X157578192Y-74426244D01*
X157578192Y-74426244D02*
X157435335Y-74426244D01*
X157435335Y-74426244D02*
X157340097Y-74378625D01*
X157340097Y-74378625D02*
X157292478Y-74331006D01*
X157292478Y-74331006D02*
X157244859Y-74235768D01*
X157244859Y-74235768D02*
X157244859Y-73854816D01*
X157768668Y-74759578D02*
X157768668Y-75378625D01*
X157768668Y-75378625D02*
X157387716Y-75045292D01*
X157387716Y-75045292D02*
X157387716Y-75188149D01*
X157387716Y-75188149D02*
X157340097Y-75283387D01*
X157340097Y-75283387D02*
X157292478Y-75331006D01*
X157292478Y-75331006D02*
X157197240Y-75378625D01*
X157197240Y-75378625D02*
X156959145Y-75378625D01*
X156959145Y-75378625D02*
X156863907Y-75331006D01*
X156863907Y-75331006D02*
X156816288Y-75283387D01*
X156816288Y-75283387D02*
X156768668Y-75188149D01*
X156768668Y-75188149D02*
X156768668Y-74902435D01*
X156768668Y-74902435D02*
X156816288Y-74807197D01*
X156816288Y-74807197D02*
X156863907Y-74759578D01*
X157673430Y-75759578D02*
X157721049Y-75807197D01*
X157721049Y-75807197D02*
X157768668Y-75902435D01*
X157768668Y-75902435D02*
X157768668Y-76140530D01*
X157768668Y-76140530D02*
X157721049Y-76235768D01*
X157721049Y-76235768D02*
X157673430Y-76283387D01*
X157673430Y-76283387D02*
X157578192Y-76331006D01*
X157578192Y-76331006D02*
X157482954Y-76331006D01*
X157482954Y-76331006D02*
X157340097Y-76283387D01*
X157340097Y-76283387D02*
X156768668Y-75711959D01*
X156768668Y-75711959D02*
X156768668Y-76331006D01*
X157149621Y-76759578D02*
X157149621Y-77521483D01*
X156768668Y-77997673D02*
X157768668Y-77997673D01*
X157768668Y-77997673D02*
X157768668Y-78235768D01*
X157768668Y-78235768D02*
X157721049Y-78378625D01*
X157721049Y-78378625D02*
X157625811Y-78473863D01*
X157625811Y-78473863D02*
X157530573Y-78521482D01*
X157530573Y-78521482D02*
X157340097Y-78569101D01*
X157340097Y-78569101D02*
X157197240Y-78569101D01*
X157197240Y-78569101D02*
X157006764Y-78521482D01*
X157006764Y-78521482D02*
X156911526Y-78473863D01*
X156911526Y-78473863D02*
X156816288Y-78378625D01*
X156816288Y-78378625D02*
X156768668Y-78235768D01*
X156768668Y-78235768D02*
X156768668Y-77997673D01*
X157292478Y-78997673D02*
X157292478Y-79331006D01*
X156768668Y-79473863D02*
X156768668Y-78997673D01*
X156768668Y-78997673D02*
X157768668Y-78997673D01*
X157768668Y-78997673D02*
X157768668Y-79473863D01*
X157768668Y-79759578D02*
X156768668Y-80092911D01*
X156768668Y-80092911D02*
X157768668Y-80426244D01*
X156768668Y-80759578D02*
X157768668Y-80759578D01*
X156768668Y-81331006D02*
X157340097Y-80902435D01*
X157768668Y-81331006D02*
X157197240Y-80759578D01*
X156768668Y-81759578D02*
X157768668Y-81759578D01*
X157768668Y-82092911D02*
X157768668Y-82664339D01*
X156768668Y-82378625D02*
X157768668Y-82378625D01*
X157435335Y-82902435D02*
X156768668Y-83140530D01*
X156768668Y-83140530D02*
X157435335Y-83378625D01*
X156768668Y-84283387D02*
X156768668Y-83711959D01*
X156768668Y-83997673D02*
X157768668Y-83997673D01*
X157768668Y-83997673D02*
X157625811Y-83902435D01*
X157625811Y-83902435D02*
X157530573Y-83807197D01*
X157530573Y-83807197D02*
X157482954Y-83711959D01*
X157149621Y-84711959D02*
X157149621Y-85473864D01*
X156768668Y-85950054D02*
X157768668Y-85950054D01*
X157768668Y-85950054D02*
X157768668Y-86188149D01*
X157768668Y-86188149D02*
X157721049Y-86331006D01*
X157721049Y-86331006D02*
X157625811Y-86426244D01*
X157625811Y-86426244D02*
X157530573Y-86473863D01*
X157530573Y-86473863D02*
X157340097Y-86521482D01*
X157340097Y-86521482D02*
X157197240Y-86521482D01*
X157197240Y-86521482D02*
X157006764Y-86473863D01*
X157006764Y-86473863D02*
X156911526Y-86426244D01*
X156911526Y-86426244D02*
X156816288Y-86331006D01*
X156816288Y-86331006D02*
X156768668Y-86188149D01*
X156768668Y-86188149D02*
X156768668Y-85950054D01*
X157768668Y-87140530D02*
X157768668Y-87331006D01*
X157768668Y-87331006D02*
X157721049Y-87426244D01*
X157721049Y-87426244D02*
X157625811Y-87521482D01*
X157625811Y-87521482D02*
X157435335Y-87569101D01*
X157435335Y-87569101D02*
X157102002Y-87569101D01*
X157102002Y-87569101D02*
X156911526Y-87521482D01*
X156911526Y-87521482D02*
X156816288Y-87426244D01*
X156816288Y-87426244D02*
X156768668Y-87331006D01*
X156768668Y-87331006D02*
X156768668Y-87140530D01*
X156768668Y-87140530D02*
X156816288Y-87045292D01*
X156816288Y-87045292D02*
X156911526Y-86950054D01*
X156911526Y-86950054D02*
X157102002Y-86902435D01*
X157102002Y-86902435D02*
X157435335Y-86902435D01*
X157435335Y-86902435D02*
X157625811Y-86950054D01*
X157625811Y-86950054D02*
X157721049Y-87045292D01*
X157721049Y-87045292D02*
X157768668Y-87140530D01*
X156768668Y-87997673D02*
X157768668Y-87997673D01*
X157768668Y-88331006D02*
X157768668Y-88902434D01*
X156768668Y-88616720D02*
X157768668Y-88616720D01*
X156158724Y-71854816D02*
X156158724Y-72426244D01*
X155158724Y-72140530D02*
X156158724Y-72140530D01*
X155158724Y-72759578D02*
X156158724Y-72759578D01*
X156158724Y-72759578D02*
X155444439Y-73092911D01*
X155444439Y-73092911D02*
X156158724Y-73426244D01*
X156158724Y-73426244D02*
X155158724Y-73426244D01*
X155253963Y-74473863D02*
X155206344Y-74426244D01*
X155206344Y-74426244D02*
X155158724Y-74283387D01*
X155158724Y-74283387D02*
X155158724Y-74188149D01*
X155158724Y-74188149D02*
X155206344Y-74045292D01*
X155206344Y-74045292D02*
X155301582Y-73950054D01*
X155301582Y-73950054D02*
X155396820Y-73902435D01*
X155396820Y-73902435D02*
X155587296Y-73854816D01*
X155587296Y-73854816D02*
X155730153Y-73854816D01*
X155730153Y-73854816D02*
X155920629Y-73902435D01*
X155920629Y-73902435D02*
X156015867Y-73950054D01*
X156015867Y-73950054D02*
X156111105Y-74045292D01*
X156111105Y-74045292D02*
X156158724Y-74188149D01*
X156158724Y-74188149D02*
X156158724Y-74283387D01*
X156158724Y-74283387D02*
X156111105Y-74426244D01*
X156111105Y-74426244D02*
X156063486Y-74473863D01*
X156063486Y-74854816D02*
X156111105Y-74902435D01*
X156111105Y-74902435D02*
X156158724Y-74997673D01*
X156158724Y-74997673D02*
X156158724Y-75235768D01*
X156158724Y-75235768D02*
X156111105Y-75331006D01*
X156111105Y-75331006D02*
X156063486Y-75378625D01*
X156063486Y-75378625D02*
X155968248Y-75426244D01*
X155968248Y-75426244D02*
X155873010Y-75426244D01*
X155873010Y-75426244D02*
X155730153Y-75378625D01*
X155730153Y-75378625D02*
X155158724Y-74807197D01*
X155158724Y-74807197D02*
X155158724Y-75426244D01*
X156063486Y-75807197D02*
X156111105Y-75854816D01*
X156111105Y-75854816D02*
X156158724Y-75950054D01*
X156158724Y-75950054D02*
X156158724Y-76188149D01*
X156158724Y-76188149D02*
X156111105Y-76283387D01*
X156111105Y-76283387D02*
X156063486Y-76331006D01*
X156063486Y-76331006D02*
X155968248Y-76378625D01*
X155968248Y-76378625D02*
X155873010Y-76378625D01*
X155873010Y-76378625D02*
X155730153Y-76331006D01*
X155730153Y-76331006D02*
X155158724Y-75759578D01*
X155158724Y-75759578D02*
X155158724Y-76378625D01*
X156063486Y-76759578D02*
X156111105Y-76807197D01*
X156111105Y-76807197D02*
X156158724Y-76902435D01*
X156158724Y-76902435D02*
X156158724Y-77140530D01*
X156158724Y-77140530D02*
X156111105Y-77235768D01*
X156111105Y-77235768D02*
X156063486Y-77283387D01*
X156063486Y-77283387D02*
X155968248Y-77331006D01*
X155968248Y-77331006D02*
X155873010Y-77331006D01*
X155873010Y-77331006D02*
X155730153Y-77283387D01*
X155730153Y-77283387D02*
X155158724Y-76711959D01*
X155158724Y-76711959D02*
X155158724Y-77331006D01*
X156158724Y-77950054D02*
X156158724Y-78045292D01*
X156158724Y-78045292D02*
X156111105Y-78140530D01*
X156111105Y-78140530D02*
X156063486Y-78188149D01*
X156063486Y-78188149D02*
X155968248Y-78235768D01*
X155968248Y-78235768D02*
X155777772Y-78283387D01*
X155777772Y-78283387D02*
X155539677Y-78283387D01*
X155539677Y-78283387D02*
X155349201Y-78235768D01*
X155349201Y-78235768D02*
X155253963Y-78188149D01*
X155253963Y-78188149D02*
X155206344Y-78140530D01*
X155206344Y-78140530D02*
X155158724Y-78045292D01*
X155158724Y-78045292D02*
X155158724Y-77950054D01*
X155158724Y-77950054D02*
X155206344Y-77854816D01*
X155206344Y-77854816D02*
X155253963Y-77807197D01*
X155253963Y-77807197D02*
X155349201Y-77759578D01*
X155349201Y-77759578D02*
X155539677Y-77711959D01*
X155539677Y-77711959D02*
X155777772Y-77711959D01*
X155777772Y-77711959D02*
X155968248Y-77759578D01*
X155968248Y-77759578D02*
X156063486Y-77807197D01*
X156063486Y-77807197D02*
X156111105Y-77854816D01*
X156111105Y-77854816D02*
X156158724Y-77950054D01*
X155730153Y-78854816D02*
X155777772Y-78759578D01*
X155777772Y-78759578D02*
X155825391Y-78711959D01*
X155825391Y-78711959D02*
X155920629Y-78664340D01*
X155920629Y-78664340D02*
X155968248Y-78664340D01*
X155968248Y-78664340D02*
X156063486Y-78711959D01*
X156063486Y-78711959D02*
X156111105Y-78759578D01*
X156111105Y-78759578D02*
X156158724Y-78854816D01*
X156158724Y-78854816D02*
X156158724Y-79045292D01*
X156158724Y-79045292D02*
X156111105Y-79140530D01*
X156111105Y-79140530D02*
X156063486Y-79188149D01*
X156063486Y-79188149D02*
X155968248Y-79235768D01*
X155968248Y-79235768D02*
X155920629Y-79235768D01*
X155920629Y-79235768D02*
X155825391Y-79188149D01*
X155825391Y-79188149D02*
X155777772Y-79140530D01*
X155777772Y-79140530D02*
X155730153Y-79045292D01*
X155730153Y-79045292D02*
X155730153Y-78854816D01*
X155730153Y-78854816D02*
X155682534Y-78759578D01*
X155682534Y-78759578D02*
X155634915Y-78711959D01*
X155634915Y-78711959D02*
X155539677Y-78664340D01*
X155539677Y-78664340D02*
X155349201Y-78664340D01*
X155349201Y-78664340D02*
X155253963Y-78711959D01*
X155253963Y-78711959D02*
X155206344Y-78759578D01*
X155206344Y-78759578D02*
X155158724Y-78854816D01*
X155158724Y-78854816D02*
X155158724Y-79045292D01*
X155158724Y-79045292D02*
X155206344Y-79140530D01*
X155206344Y-79140530D02*
X155253963Y-79188149D01*
X155253963Y-79188149D02*
X155349201Y-79235768D01*
X155349201Y-79235768D02*
X155539677Y-79235768D01*
X155539677Y-79235768D02*
X155634915Y-79188149D01*
X155634915Y-79188149D02*
X155682534Y-79140530D01*
X155682534Y-79140530D02*
X155730153Y-79045292D01*
X155825391Y-80331007D02*
X155158724Y-80569102D01*
X155158724Y-80569102D02*
X155825391Y-80807197D01*
X155158724Y-81711959D02*
X155158724Y-81140531D01*
X155158724Y-81426245D02*
X156158724Y-81426245D01*
X156158724Y-81426245D02*
X156015867Y-81331007D01*
X156015867Y-81331007D02*
X155920629Y-81235769D01*
X155920629Y-81235769D02*
X155873010Y-81140531D01*
X155253963Y-82140531D02*
X155206344Y-82188150D01*
X155206344Y-82188150D02*
X155158724Y-82140531D01*
X155158724Y-82140531D02*
X155206344Y-82092912D01*
X155206344Y-82092912D02*
X155253963Y-82140531D01*
X155253963Y-82140531D02*
X155158724Y-82140531D01*
X156063486Y-82569102D02*
X156111105Y-82616721D01*
X156111105Y-82616721D02*
X156158724Y-82711959D01*
X156158724Y-82711959D02*
X156158724Y-82950054D01*
X156158724Y-82950054D02*
X156111105Y-83045292D01*
X156111105Y-83045292D02*
X156063486Y-83092911D01*
X156063486Y-83092911D02*
X155968248Y-83140530D01*
X155968248Y-83140530D02*
X155873010Y-83140530D01*
X155873010Y-83140530D02*
X155730153Y-83092911D01*
X155730153Y-83092911D02*
X155158724Y-82521483D01*
X155158724Y-82521483D02*
X155158724Y-83140530D01*
X154215447Y-71902435D02*
X154215447Y-72426244D01*
X154215447Y-72426244D02*
X153548780Y-71902435D01*
X153548780Y-71902435D02*
X153548780Y-72426244D01*
X153548780Y-72807197D02*
X154215447Y-72807197D01*
X154548780Y-72807197D02*
X154501161Y-72759578D01*
X154501161Y-72759578D02*
X154453542Y-72807197D01*
X154453542Y-72807197D02*
X154501161Y-72854816D01*
X154501161Y-72854816D02*
X154548780Y-72807197D01*
X154548780Y-72807197D02*
X154453542Y-72807197D01*
X153548780Y-73426244D02*
X153596400Y-73331006D01*
X153596400Y-73331006D02*
X153644019Y-73283387D01*
X153644019Y-73283387D02*
X153739257Y-73235768D01*
X153739257Y-73235768D02*
X154024971Y-73235768D01*
X154024971Y-73235768D02*
X154120209Y-73283387D01*
X154120209Y-73283387D02*
X154167828Y-73331006D01*
X154167828Y-73331006D02*
X154215447Y-73426244D01*
X154215447Y-73426244D02*
X154215447Y-73569101D01*
X154215447Y-73569101D02*
X154167828Y-73664339D01*
X154167828Y-73664339D02*
X154120209Y-73711958D01*
X154120209Y-73711958D02*
X154024971Y-73759577D01*
X154024971Y-73759577D02*
X153739257Y-73759577D01*
X153739257Y-73759577D02*
X153644019Y-73711958D01*
X153644019Y-73711958D02*
X153596400Y-73664339D01*
X153596400Y-73664339D02*
X153548780Y-73569101D01*
X153548780Y-73569101D02*
X153548780Y-73426244D01*
X154215447Y-74188149D02*
X153548780Y-74188149D01*
X154120209Y-74188149D02*
X154167828Y-74235768D01*
X154167828Y-74235768D02*
X154215447Y-74331006D01*
X154215447Y-74331006D02*
X154215447Y-74473863D01*
X154215447Y-74473863D02*
X154167828Y-74569101D01*
X154167828Y-74569101D02*
X154072590Y-74616720D01*
X154072590Y-74616720D02*
X153548780Y-74616720D01*
D10*
X116696666Y-84054819D02*
X116696666Y-84769104D01*
X116696666Y-84769104D02*
X116649047Y-84911961D01*
X116649047Y-84911961D02*
X116553809Y-85007200D01*
X116553809Y-85007200D02*
X116410952Y-85054819D01*
X116410952Y-85054819D02*
X116315714Y-85054819D01*
X117601428Y-84054819D02*
X117410952Y-84054819D01*
X117410952Y-84054819D02*
X117315714Y-84102438D01*
X117315714Y-84102438D02*
X117268095Y-84150057D01*
X117268095Y-84150057D02*
X117172857Y-84292914D01*
X117172857Y-84292914D02*
X117125238Y-84483390D01*
X117125238Y-84483390D02*
X117125238Y-84864342D01*
X117125238Y-84864342D02*
X117172857Y-84959580D01*
X117172857Y-84959580D02*
X117220476Y-85007200D01*
X117220476Y-85007200D02*
X117315714Y-85054819D01*
X117315714Y-85054819D02*
X117506190Y-85054819D01*
X117506190Y-85054819D02*
X117601428Y-85007200D01*
X117601428Y-85007200D02*
X117649047Y-84959580D01*
X117649047Y-84959580D02*
X117696666Y-84864342D01*
X117696666Y-84864342D02*
X117696666Y-84626247D01*
X117696666Y-84626247D02*
X117649047Y-84531009D01*
X117649047Y-84531009D02*
X117601428Y-84483390D01*
X117601428Y-84483390D02*
X117506190Y-84435771D01*
X117506190Y-84435771D02*
X117315714Y-84435771D01*
X117315714Y-84435771D02*
X117220476Y-84483390D01*
X117220476Y-84483390D02*
X117172857Y-84531009D01*
X117172857Y-84531009D02*
X117125238Y-84626247D01*
X96694666Y-83782819D02*
X96694666Y-84497104D01*
X96694666Y-84497104D02*
X96647047Y-84639961D01*
X96647047Y-84639961D02*
X96551809Y-84735200D01*
X96551809Y-84735200D02*
X96408952Y-84782819D01*
X96408952Y-84782819D02*
X96313714Y-84782819D01*
X97599428Y-84116152D02*
X97599428Y-84782819D01*
X97361333Y-83735200D02*
X97123238Y-84449485D01*
X97123238Y-84449485D02*
X97742285Y-84449485D01*
X122173333Y-97889866D02*
X122173333Y-99023200D01*
X122173333Y-99023200D02*
X122240000Y-99156533D01*
X122240000Y-99156533D02*
X122306666Y-99223200D01*
X122306666Y-99223200D02*
X122440000Y-99289866D01*
X122440000Y-99289866D02*
X122706666Y-99289866D01*
X122706666Y-99289866D02*
X122840000Y-99223200D01*
X122840000Y-99223200D02*
X122906666Y-99156533D01*
X122906666Y-99156533D02*
X122973333Y-99023200D01*
X122973333Y-99023200D02*
X122973333Y-97889866D01*
X123506667Y-97889866D02*
X124373333Y-97889866D01*
X124373333Y-97889866D02*
X123906667Y-98423200D01*
X123906667Y-98423200D02*
X124106667Y-98423200D01*
X124106667Y-98423200D02*
X124240000Y-98489866D01*
X124240000Y-98489866D02*
X124306667Y-98556533D01*
X124306667Y-98556533D02*
X124373333Y-98689866D01*
X124373333Y-98689866D02*
X124373333Y-99023200D01*
X124373333Y-99023200D02*
X124306667Y-99156533D01*
X124306667Y-99156533D02*
X124240000Y-99223200D01*
X124240000Y-99223200D02*
X124106667Y-99289866D01*
X124106667Y-99289866D02*
X123706667Y-99289866D01*
X123706667Y-99289866D02*
X123573333Y-99223200D01*
X123573333Y-99223200D02*
X123506667Y-99156533D01*
X120899866Y-39786666D02*
X122033200Y-39786666D01*
X122033200Y-39786666D02*
X122166533Y-39720000D01*
X122166533Y-39720000D02*
X122233200Y-39653333D01*
X122233200Y-39653333D02*
X122299866Y-39520000D01*
X122299866Y-39520000D02*
X122299866Y-39253333D01*
X122299866Y-39253333D02*
X122233200Y-39120000D01*
X122233200Y-39120000D02*
X122166533Y-39053333D01*
X122166533Y-39053333D02*
X122033200Y-38986666D01*
X122033200Y-38986666D02*
X120899866Y-38986666D01*
X121033200Y-38386666D02*
X120966533Y-38319999D01*
X120966533Y-38319999D02*
X120899866Y-38186666D01*
X120899866Y-38186666D02*
X120899866Y-37853333D01*
X120899866Y-37853333D02*
X120966533Y-37719999D01*
X120966533Y-37719999D02*
X121033200Y-37653333D01*
X121033200Y-37653333D02*
X121166533Y-37586666D01*
X121166533Y-37586666D02*
X121299866Y-37586666D01*
X121299866Y-37586666D02*
X121499866Y-37653333D01*
X121499866Y-37653333D02*
X122299866Y-38453333D01*
X122299866Y-38453333D02*
X122299866Y-37586666D01*
D12*
X100698095Y-36297419D02*
X100698095Y-37106942D01*
X100698095Y-37106942D02*
X100745714Y-37202180D01*
X100745714Y-37202180D02*
X100793333Y-37249800D01*
X100793333Y-37249800D02*
X100888571Y-37297419D01*
X100888571Y-37297419D02*
X101079047Y-37297419D01*
X101079047Y-37297419D02*
X101174285Y-37249800D01*
X101174285Y-37249800D02*
X101221904Y-37202180D01*
X101221904Y-37202180D02*
X101269523Y-37106942D01*
X101269523Y-37106942D02*
X101269523Y-36297419D01*
X102269523Y-37297419D02*
X101698095Y-37297419D01*
X101983809Y-37297419D02*
X101983809Y-36297419D01*
X101983809Y-36297419D02*
X101888571Y-36440276D01*
X101888571Y-36440276D02*
X101793333Y-36535514D01*
X101793333Y-36535514D02*
X101698095Y-36583133D01*
D10*
X103844819Y-38353333D02*
X104559104Y-38353333D01*
X104559104Y-38353333D02*
X104701961Y-38400952D01*
X104701961Y-38400952D02*
X104797200Y-38496190D01*
X104797200Y-38496190D02*
X104844819Y-38639047D01*
X104844819Y-38639047D02*
X104844819Y-38734285D01*
X103940057Y-37924761D02*
X103892438Y-37877142D01*
X103892438Y-37877142D02*
X103844819Y-37781904D01*
X103844819Y-37781904D02*
X103844819Y-37543809D01*
X103844819Y-37543809D02*
X103892438Y-37448571D01*
X103892438Y-37448571D02*
X103940057Y-37400952D01*
X103940057Y-37400952D02*
X104035295Y-37353333D01*
X104035295Y-37353333D02*
X104130533Y-37353333D01*
X104130533Y-37353333D02*
X104273390Y-37400952D01*
X104273390Y-37400952D02*
X104844819Y-37972380D01*
X104844819Y-37972380D02*
X104844819Y-37353333D01*
X108886666Y-83782819D02*
X108886666Y-84497104D01*
X108886666Y-84497104D02*
X108839047Y-84639961D01*
X108839047Y-84639961D02*
X108743809Y-84735200D01*
X108743809Y-84735200D02*
X108600952Y-84782819D01*
X108600952Y-84782819D02*
X108505714Y-84782819D01*
X109886666Y-84782819D02*
X109315238Y-84782819D01*
X109600952Y-84782819D02*
X109600952Y-83782819D01*
X109600952Y-83782819D02*
X109505714Y-83925676D01*
X109505714Y-83925676D02*
X109410476Y-84020914D01*
X109410476Y-84020914D02*
X109315238Y-84068533D01*
X84144819Y-37893333D02*
X84859104Y-37893333D01*
X84859104Y-37893333D02*
X85001961Y-37940952D01*
X85001961Y-37940952D02*
X85097200Y-38036190D01*
X85097200Y-38036190D02*
X85144819Y-38179047D01*
X85144819Y-38179047D02*
X85144819Y-38274285D01*
X84144819Y-36940952D02*
X84144819Y-37417142D01*
X84144819Y-37417142D02*
X84621009Y-37464761D01*
X84621009Y-37464761D02*
X84573390Y-37417142D01*
X84573390Y-37417142D02*
X84525771Y-37321904D01*
X84525771Y-37321904D02*
X84525771Y-37083809D01*
X84525771Y-37083809D02*
X84573390Y-36988571D01*
X84573390Y-36988571D02*
X84621009Y-36940952D01*
X84621009Y-36940952D02*
X84716247Y-36893333D01*
X84716247Y-36893333D02*
X84954342Y-36893333D01*
X84954342Y-36893333D02*
X85049580Y-36940952D01*
X85049580Y-36940952D02*
X85097200Y-36988571D01*
X85097200Y-36988571D02*
X85144819Y-37083809D01*
X85144819Y-37083809D02*
X85144819Y-37321904D01*
X85144819Y-37321904D02*
X85097200Y-37417142D01*
X85097200Y-37417142D02*
X85049580Y-37464761D01*
X157836666Y-56164819D02*
X157836666Y-56879104D01*
X157836666Y-56879104D02*
X157789047Y-57021961D01*
X157789047Y-57021961D02*
X157693809Y-57117200D01*
X157693809Y-57117200D02*
X157550952Y-57164819D01*
X157550952Y-57164819D02*
X157455714Y-57164819D01*
X158217619Y-56164819D02*
X158836666Y-56164819D01*
X158836666Y-56164819D02*
X158503333Y-56545771D01*
X158503333Y-56545771D02*
X158646190Y-56545771D01*
X158646190Y-56545771D02*
X158741428Y-56593390D01*
X158741428Y-56593390D02*
X158789047Y-56641009D01*
X158789047Y-56641009D02*
X158836666Y-56736247D01*
X158836666Y-56736247D02*
X158836666Y-56974342D01*
X158836666Y-56974342D02*
X158789047Y-57069580D01*
X158789047Y-57069580D02*
X158741428Y-57117200D01*
X158741428Y-57117200D02*
X158646190Y-57164819D01*
X158646190Y-57164819D02*
X158360476Y-57164819D01*
X158360476Y-57164819D02*
X158265238Y-57117200D01*
X158265238Y-57117200D02*
X158217619Y-57069580D01*
D13*
X117160000Y-85900000D02*
X117160000Y-87170000D01*
X115890000Y-85900000D02*
X117160000Y-85900000D01*
X113730000Y-88212929D02*
X113730000Y-88610000D01*
X112970000Y-88212929D02*
X112970000Y-88610000D01*
X116270000Y-88280000D02*
X116270000Y-88610000D01*
X115510000Y-88280000D02*
X115510000Y-88610000D01*
X117220000Y-88610000D02*
X112020000Y-88610000D01*
X114620000Y-88610000D02*
X114620000Y-91270000D01*
X112020000Y-88610000D02*
X112020000Y-91270000D01*
X117220000Y-91270000D02*
X117220000Y-88610000D01*
X116270000Y-91270000D02*
X116270000Y-97270000D01*
X116210000Y-91270000D02*
X116210000Y-97270000D01*
X116090000Y-91270000D02*
X116090000Y-97270000D01*
X115970000Y-91270000D02*
X115970000Y-97270000D01*
X115850000Y-91270000D02*
X115850000Y-97270000D01*
X115730000Y-91270000D02*
X115730000Y-97270000D01*
X115610000Y-91270000D02*
X115610000Y-97270000D01*
X113730000Y-91270000D02*
X113730000Y-97270000D01*
X112020000Y-91270000D02*
X117220000Y-91270000D01*
X116270000Y-97270000D02*
X115510000Y-97270000D01*
X115510000Y-97270000D02*
X115510000Y-91270000D01*
X113730000Y-97270000D02*
X112970000Y-97270000D01*
X112970000Y-97270000D02*
X112970000Y-91270000D01*
X97345000Y-85355000D02*
X97345000Y-86625000D01*
X96075000Y-85355000D02*
X97345000Y-85355000D01*
X93915000Y-87667929D02*
X93915000Y-88065000D01*
X93155000Y-87667929D02*
X93155000Y-88065000D01*
X91375000Y-87667929D02*
X91375000Y-88065000D01*
X90615000Y-87667929D02*
X90615000Y-88065000D01*
X88835000Y-87667929D02*
X88835000Y-88065000D01*
X88075000Y-87667929D02*
X88075000Y-88065000D01*
X86295000Y-87667929D02*
X86295000Y-88065000D01*
X85535000Y-87667929D02*
X85535000Y-88065000D01*
X96455000Y-87735000D02*
X96455000Y-88065000D01*
X95695000Y-87735000D02*
X95695000Y-88065000D01*
X97405000Y-88065000D02*
X84585000Y-88065000D01*
X94805000Y-88065000D02*
X94805000Y-90725000D01*
X92265000Y-88065000D02*
X92265000Y-90725000D01*
X89725000Y-88065000D02*
X89725000Y-90725000D01*
X87185000Y-88065000D02*
X87185000Y-90725000D01*
X84585000Y-88065000D02*
X84585000Y-90725000D01*
X97405000Y-90725000D02*
X97405000Y-88065000D01*
X96455000Y-90725000D02*
X96455000Y-96725000D01*
X96395000Y-90725000D02*
X96395000Y-96725000D01*
X96275000Y-90725000D02*
X96275000Y-96725000D01*
X96155000Y-90725000D02*
X96155000Y-96725000D01*
X96035000Y-90725000D02*
X96035000Y-96725000D01*
X95915000Y-90725000D02*
X95915000Y-96725000D01*
X95795000Y-90725000D02*
X95795000Y-96725000D01*
X93915000Y-90725000D02*
X93915000Y-96725000D01*
X91375000Y-90725000D02*
X91375000Y-96725000D01*
X88835000Y-90725000D02*
X88835000Y-96725000D01*
X86295000Y-90725000D02*
X86295000Y-96725000D01*
X84585000Y-90725000D02*
X97405000Y-90725000D01*
X96455000Y-96725000D02*
X95695000Y-96725000D01*
X95695000Y-96725000D02*
X95695000Y-90725000D01*
X93915000Y-96725000D02*
X93155000Y-96725000D01*
X93155000Y-96725000D02*
X93155000Y-90725000D01*
X91375000Y-96725000D02*
X90615000Y-96725000D01*
X90615000Y-96725000D02*
X90615000Y-90725000D01*
X88835000Y-96725000D02*
X88075000Y-96725000D01*
X88075000Y-96725000D02*
X88075000Y-90725000D01*
X86295000Y-96725000D02*
X85535000Y-96725000D01*
X85535000Y-96725000D02*
X85535000Y-90725000D01*
D14*
G36*
X141847162Y-81406557D02*
G01*
X142106055Y-81466308D01*
X142109200Y-81467349D01*
X142188186Y-81497864D01*
X142274547Y-81535118D01*
X142307800Y-81549462D01*
X142456106Y-81616741D01*
X142621163Y-81694298D01*
X142771425Y-81767070D01*
X143045345Y-81900123D01*
X143285863Y-82012887D01*
X143511236Y-82113287D01*
X143739725Y-82209250D01*
X143989587Y-82308703D01*
X144242718Y-82405809D01*
X144543466Y-82523213D01*
X144601993Y-82547341D01*
X144838626Y-82644892D01*
X145117584Y-82766137D01*
X145271294Y-82836914D01*
X145369726Y-82882238D01*
X145584438Y-82988487D01*
X145714647Y-83058943D01*
X145964826Y-83216027D01*
X146093407Y-83296762D01*
X146126698Y-83322560D01*
X146172762Y-83358257D01*
X146261059Y-83426681D01*
X146340317Y-83488101D01*
X146416031Y-83546774D01*
X146568181Y-83696582D01*
X146684355Y-83810968D01*
X146899187Y-84089994D01*
X146900217Y-84091332D01*
X146956300Y-84192654D01*
X147065454Y-84389855D01*
X147154261Y-84617620D01*
X147179193Y-84725383D01*
X147196934Y-84863265D01*
X147206487Y-85011607D01*
X147206857Y-85150749D01*
X147197048Y-85261034D01*
X147188695Y-85297127D01*
X147184307Y-85351975D01*
X147186257Y-85353545D01*
X147225273Y-85384952D01*
X147237963Y-85390082D01*
X147245122Y-85394776D01*
X147290031Y-85424225D01*
X147365335Y-85490921D01*
X147392283Y-85518528D01*
X147449662Y-85577310D01*
X147470607Y-85600611D01*
X147539444Y-85678570D01*
X147632876Y-85784384D01*
X147867926Y-85778171D01*
X148040138Y-85781470D01*
X148193783Y-85799204D01*
X148304681Y-85826130D01*
X148316745Y-85829059D01*
X148396909Y-85868718D01*
X148410558Y-85881887D01*
X148441794Y-85940393D01*
X148462955Y-86008461D01*
X148481275Y-86093976D01*
X148666845Y-85945358D01*
X148852415Y-85796740D01*
X148780576Y-85719859D01*
X148680819Y-85580124D01*
X148620161Y-85424205D01*
X148597472Y-85262792D01*
X148611623Y-85106571D01*
X148621897Y-85077656D01*
X154062888Y-85077656D01*
X154072159Y-85122001D01*
X154089848Y-85127914D01*
X154106347Y-85147233D01*
X154100247Y-85164705D01*
X154091421Y-85186773D01*
X154117556Y-85166146D01*
X154119112Y-85164705D01*
X154164959Y-85133630D01*
X154193917Y-85131687D01*
X154189565Y-85159863D01*
X154189175Y-85160500D01*
X154191124Y-85177774D01*
X154191470Y-85180841D01*
X154220556Y-85175678D01*
X154228101Y-85174339D01*
X154264705Y-85177075D01*
X154284320Y-85178541D01*
X154312648Y-85225727D01*
X154307019Y-85297149D01*
X154306870Y-85314212D01*
X154326844Y-85283134D01*
X154340017Y-85209758D01*
X154308031Y-85151592D01*
X154241489Y-85127914D01*
X154241479Y-85127914D01*
X154211929Y-85118456D01*
X154215395Y-85108548D01*
X154217412Y-85074573D01*
X154189041Y-85038100D01*
X154152066Y-85023896D01*
X154143641Y-85026963D01*
X154121261Y-85017136D01*
X154115475Y-84989848D01*
X154111190Y-84955711D01*
X154097484Y-84974293D01*
X154088111Y-84995469D01*
X154062888Y-85077656D01*
X148621897Y-85077656D01*
X148661486Y-84966231D01*
X148683476Y-84936605D01*
X153470035Y-84936605D01*
X153484751Y-84951321D01*
X153499467Y-84936605D01*
X153484751Y-84921889D01*
X153470035Y-84936605D01*
X148683476Y-84936605D01*
X148745932Y-84852459D01*
X148749801Y-84849948D01*
X153838937Y-84849948D01*
X153853519Y-84878783D01*
X153867080Y-84915783D01*
X153846524Y-84930765D01*
X153843103Y-84938989D01*
X153887415Y-84938658D01*
X153889491Y-84938485D01*
X153955666Y-84925830D01*
X153968021Y-84923467D01*
X153980821Y-84907173D01*
X154029247Y-84907173D01*
X154043963Y-84921889D01*
X154058679Y-84907173D01*
X154043963Y-84892457D01*
X154029247Y-84907173D01*
X153980821Y-84907173D01*
X153991746Y-84893265D01*
X153963832Y-84842890D01*
X153955924Y-84833876D01*
X153907708Y-84795186D01*
X153867373Y-84804365D01*
X153862539Y-84808169D01*
X153838937Y-84849948D01*
X148749801Y-84849948D01*
X148863831Y-84775944D01*
X148880962Y-84769497D01*
X148961142Y-84711920D01*
X148994765Y-84647051D01*
X149035475Y-84568986D01*
X149089151Y-84513848D01*
X149152668Y-84474181D01*
X149089219Y-84554843D01*
X149045195Y-84624150D01*
X149025385Y-84682575D01*
X149034423Y-84714062D01*
X149042751Y-84715863D01*
X149071885Y-84697131D01*
X153324569Y-84697131D01*
X153337590Y-84700892D01*
X153354852Y-84705878D01*
X153365727Y-84706053D01*
X153395245Y-84693064D01*
X153393126Y-84681046D01*
X153363407Y-84670649D01*
X153455422Y-84670649D01*
X153484751Y-84688454D01*
X153492109Y-84692921D01*
X153522125Y-84717063D01*
X153543946Y-84734613D01*
X153560655Y-84771867D01*
X153566263Y-84800798D01*
X153575822Y-84783723D01*
X153579421Y-84777294D01*
X153576104Y-84760012D01*
X153823221Y-84760012D01*
X153837937Y-84774728D01*
X153852654Y-84760012D01*
X153837937Y-84745295D01*
X153823221Y-84760012D01*
X153576104Y-84760012D01*
X153570669Y-84731695D01*
X153529906Y-84687863D01*
X153621692Y-84687863D01*
X153636253Y-84698693D01*
X153689305Y-84701147D01*
X153735103Y-84692892D01*
X153735431Y-84675165D01*
X153688748Y-84661593D01*
X153663323Y-84666883D01*
X153621692Y-84687863D01*
X153529906Y-84687863D01*
X153527937Y-84685746D01*
X153472332Y-84659852D01*
X153457051Y-84658991D01*
X153455422Y-84670649D01*
X153363407Y-84670649D01*
X153358999Y-84669107D01*
X153350272Y-84672972D01*
X153324569Y-84697131D01*
X149071885Y-84697131D01*
X149072188Y-84696936D01*
X149125581Y-84649504D01*
X149147362Y-84628232D01*
X149181095Y-84604145D01*
X153182954Y-84604145D01*
X153183599Y-84613947D01*
X153211802Y-84644451D01*
X153256126Y-84678293D01*
X153280545Y-84679706D01*
X153271608Y-84655239D01*
X153229740Y-84626513D01*
X153182954Y-84604145D01*
X149181095Y-84604145D01*
X149242997Y-84559943D01*
X149373184Y-84501655D01*
X149513619Y-84462469D01*
X149620735Y-84450973D01*
X149693693Y-84437692D01*
X149782145Y-84406825D01*
X149908737Y-84406825D01*
X149923453Y-84421541D01*
X149938169Y-84406825D01*
X149923453Y-84392109D01*
X149908737Y-84406825D01*
X149782145Y-84406825D01*
X149791515Y-84403555D01*
X149848906Y-84377393D01*
X149967601Y-84377393D01*
X149982318Y-84392109D01*
X149997034Y-84377393D01*
X151056593Y-84377393D01*
X151071309Y-84392109D01*
X151086026Y-84377393D01*
X151071309Y-84362677D01*
X151056593Y-84377393D01*
X149997034Y-84377393D01*
X149982318Y-84362677D01*
X149967601Y-84377393D01*
X149848906Y-84377393D01*
X149858209Y-84373152D01*
X149913932Y-84347961D01*
X150026466Y-84347961D01*
X150041182Y-84362677D01*
X150055898Y-84347961D01*
X151144890Y-84347961D01*
X151159606Y-84362677D01*
X151174322Y-84347961D01*
X151159606Y-84333244D01*
X151144890Y-84347961D01*
X150055898Y-84347961D01*
X150041182Y-84333244D01*
X150026466Y-84347961D01*
X149913932Y-84347961D01*
X149923453Y-84343657D01*
X149979040Y-84318528D01*
X150144195Y-84318528D01*
X150158911Y-84333244D01*
X150173627Y-84318528D01*
X150158911Y-84303812D01*
X150144195Y-84318528D01*
X149979040Y-84318528D01*
X149982318Y-84317046D01*
X150022095Y-84299064D01*
X150041182Y-84291923D01*
X150048738Y-84289096D01*
X151203754Y-84289096D01*
X151218470Y-84303812D01*
X151233187Y-84289096D01*
X151218470Y-84274380D01*
X151203754Y-84289096D01*
X150048738Y-84289096D01*
X150127408Y-84259664D01*
X151144890Y-84259664D01*
X151159606Y-84274380D01*
X151174322Y-84259664D01*
X151159606Y-84244948D01*
X151144890Y-84259664D01*
X150127408Y-84259664D01*
X150158911Y-84247878D01*
X150205569Y-84230422D01*
X150301869Y-84200800D01*
X150556246Y-84200800D01*
X150570962Y-84215516D01*
X150585678Y-84200800D01*
X150570962Y-84186083D01*
X150556246Y-84200800D01*
X150301869Y-84200800D01*
X150385536Y-84175064D01*
X150388362Y-84174433D01*
X150711378Y-84174433D01*
X150750770Y-84181459D01*
X150767790Y-84176757D01*
X150769772Y-84174433D01*
X150829107Y-84174433D01*
X150868499Y-84181459D01*
X150885519Y-84176757D01*
X150890117Y-84171367D01*
X150968297Y-84171367D01*
X150983013Y-84186083D01*
X150997729Y-84171367D01*
X150983013Y-84156651D01*
X150968297Y-84171367D01*
X150890117Y-84171367D01*
X150896667Y-84163688D01*
X150867737Y-84158975D01*
X150829563Y-84164386D01*
X150829107Y-84174433D01*
X150769772Y-84174433D01*
X150778938Y-84163688D01*
X150750008Y-84158975D01*
X150711834Y-84164386D01*
X150711378Y-84174433D01*
X150388362Y-84174433D01*
X150538900Y-84140825D01*
X150546272Y-84139685D01*
X150570962Y-84135438D01*
X150626818Y-84125830D01*
X150657527Y-84112334D01*
X150651995Y-84101934D01*
X151012445Y-84101934D01*
X151071309Y-84123606D01*
X151118223Y-84140878D01*
X151159606Y-84157720D01*
X151217979Y-84181476D01*
X151218470Y-84181705D01*
X151312737Y-84225715D01*
X151315221Y-84226993D01*
X151384408Y-84253019D01*
X151384841Y-84252955D01*
X153053541Y-84252955D01*
X153079511Y-84278415D01*
X153111707Y-84293577D01*
X153166265Y-84325306D01*
X153182954Y-84349477D01*
X153185001Y-84352442D01*
X153202869Y-84369362D01*
X153224745Y-84368066D01*
X153255715Y-84372351D01*
X153254151Y-84384250D01*
X153263425Y-84416996D01*
X153298425Y-84447255D01*
X153336322Y-84464638D01*
X153338933Y-84453146D01*
X153340989Y-84424574D01*
X153353760Y-84421541D01*
X153358999Y-84427563D01*
X153375233Y-84446224D01*
X153369761Y-84502480D01*
X153359875Y-84555587D01*
X153369885Y-84557952D01*
X153392128Y-84531586D01*
X153396454Y-84527351D01*
X153427622Y-84496839D01*
X153457331Y-84510114D01*
X153470323Y-84524901D01*
X153492098Y-84557062D01*
X153469323Y-84555160D01*
X153459482Y-84551511D01*
X153416320Y-84543520D01*
X153411792Y-84561094D01*
X153439321Y-84592107D01*
X153455319Y-84601863D01*
X153457051Y-84602919D01*
X153492326Y-84624430D01*
X153501104Y-84628245D01*
X153577254Y-84649560D01*
X153622497Y-84634031D01*
X153623073Y-84633462D01*
X153633930Y-84612326D01*
X153595325Y-84617061D01*
X153537366Y-84614343D01*
X153512677Y-84595697D01*
X153508169Y-84571686D01*
X153546145Y-84579674D01*
X153557857Y-84574583D01*
X153530289Y-84539840D01*
X153484751Y-84496797D01*
X153413007Y-84440642D01*
X153355568Y-84408278D01*
X153333895Y-84404914D01*
X153299359Y-84390278D01*
X153266570Y-84341828D01*
X153236609Y-84293751D01*
X153214041Y-84285106D01*
X153185928Y-84278643D01*
X153154778Y-84245002D01*
X153116891Y-84206247D01*
X153081032Y-84216612D01*
X153073417Y-84223115D01*
X153053541Y-84252955D01*
X151384841Y-84252955D01*
X151422915Y-84247321D01*
X151423865Y-84245968D01*
X151413058Y-84215667D01*
X151361287Y-84178438D01*
X151284659Y-84141763D01*
X151199283Y-84113122D01*
X151121269Y-84099998D01*
X151109272Y-84099861D01*
X151012445Y-84101934D01*
X150651995Y-84101934D01*
X150647010Y-84092562D01*
X150627474Y-84077128D01*
X150556831Y-84053848D01*
X150449361Y-84052414D01*
X150322690Y-84072312D01*
X150265519Y-84087661D01*
X150234502Y-84094801D01*
X150255819Y-84077834D01*
X150261924Y-84073891D01*
X150358841Y-84035004D01*
X150474131Y-84020624D01*
X150581500Y-84032098D01*
X150635645Y-84054745D01*
X150684732Y-84079786D01*
X150745558Y-84092517D01*
X150750008Y-84092615D01*
X150833614Y-84094450D01*
X150867737Y-84092532D01*
X150964391Y-84087100D01*
X150965789Y-84086998D01*
X150983013Y-84085948D01*
X151092491Y-84079272D01*
X151109272Y-84079463D01*
X151179006Y-84080259D01*
X151243699Y-84092611D01*
X151304937Y-84118982D01*
X151346562Y-84142006D01*
X151446539Y-84190917D01*
X151524830Y-84213185D01*
X151571400Y-84207147D01*
X151572041Y-84204907D01*
X152942985Y-84204907D01*
X152955327Y-84207838D01*
X152964709Y-84200800D01*
X153028552Y-84200800D01*
X153043268Y-84215516D01*
X153057984Y-84200800D01*
X153043268Y-84186083D01*
X153028552Y-84200800D01*
X152964709Y-84200800D01*
X152985115Y-84185493D01*
X152993144Y-84175247D01*
X153014450Y-84148059D01*
X153012946Y-84131235D01*
X152985821Y-84137021D01*
X152968538Y-84157504D01*
X152942985Y-84204907D01*
X151572041Y-84204907D01*
X151579015Y-84180536D01*
X151597710Y-84139576D01*
X151658552Y-84086728D01*
X151669797Y-84079597D01*
X152881391Y-84079597D01*
X152902110Y-84106456D01*
X152910823Y-84112503D01*
X152938339Y-84120003D01*
X152940255Y-84115977D01*
X152919535Y-84089117D01*
X152910823Y-84083071D01*
X152883307Y-84075571D01*
X152881391Y-84079597D01*
X151669797Y-84079597D01*
X151748238Y-84029853D01*
X151853462Y-83976811D01*
X151960919Y-83935460D01*
X152020792Y-83919561D01*
X152267844Y-83894094D01*
X152525420Y-83913585D01*
X152775803Y-83974771D01*
X152883307Y-84022268D01*
X153001282Y-84074391D01*
X153012946Y-84081544D01*
X153043268Y-84100140D01*
X153061198Y-84111136D01*
X153116891Y-84143474D01*
X153139499Y-84156601D01*
X153203896Y-84183212D01*
X153220967Y-84186083D01*
X153252621Y-84199200D01*
X153250686Y-84213263D01*
X153263146Y-84248836D01*
X153326736Y-84312431D01*
X153441016Y-84403691D01*
X153605545Y-84522257D01*
X153688748Y-84579072D01*
X153764357Y-84630701D01*
X153837937Y-84687040D01*
X153907708Y-84740462D01*
X154043963Y-84844790D01*
X154111190Y-84896264D01*
X154112429Y-84897213D01*
X154416873Y-85198654D01*
X154442571Y-85231679D01*
X154500162Y-85305691D01*
X154544311Y-85362428D01*
X154580785Y-85409302D01*
X154675390Y-85530881D01*
X154696377Y-85566696D01*
X154735396Y-85633282D01*
X154772089Y-85695899D01*
X154843538Y-85817828D01*
X154885686Y-85889754D01*
X154926929Y-85988198D01*
X154961267Y-86070160D01*
X154990699Y-86140412D01*
X155028153Y-86229811D01*
X155045463Y-86271128D01*
X155092944Y-86448574D01*
X155152424Y-86670862D01*
X155204273Y-87084813D01*
X155209004Y-87236433D01*
X155201344Y-87546730D01*
X155171929Y-87820958D01*
X155117579Y-88078906D01*
X155035109Y-88340363D01*
X155028615Y-88358181D01*
X154964354Y-88520257D01*
X154893415Y-88669591D01*
X154808961Y-88817173D01*
X154704154Y-88973994D01*
X154572156Y-89151045D01*
X154406127Y-89359317D01*
X154404508Y-89361306D01*
X154329966Y-89454671D01*
X154272179Y-89530609D01*
X154239541Y-89577913D01*
X154235272Y-89587203D01*
X154255359Y-89586889D01*
X154308368Y-89555726D01*
X154347196Y-89528030D01*
X154617891Y-89528030D01*
X154632607Y-89542746D01*
X154647323Y-89528030D01*
X154632607Y-89513314D01*
X154617891Y-89528030D01*
X154347196Y-89528030D01*
X154383419Y-89502192D01*
X154397149Y-89491454D01*
X154426582Y-89468435D01*
X154456014Y-89445417D01*
X154469633Y-89434766D01*
X154485446Y-89421450D01*
X154556132Y-89361926D01*
X154573743Y-89345737D01*
X154632037Y-89292148D01*
X154632607Y-89291544D01*
X154659434Y-89263140D01*
X154765052Y-89263140D01*
X154779768Y-89277856D01*
X154794484Y-89263140D01*
X154779768Y-89248424D01*
X154765052Y-89263140D01*
X154659434Y-89263140D01*
X154682634Y-89238577D01*
X154707815Y-89204276D01*
X154794484Y-89204276D01*
X154809200Y-89218992D01*
X154823917Y-89204276D01*
X154809200Y-89189560D01*
X154794484Y-89204276D01*
X154707815Y-89204276D01*
X154751028Y-89145411D01*
X154823917Y-89145411D01*
X154838633Y-89160127D01*
X154853349Y-89145411D01*
X154838633Y-89130695D01*
X154823917Y-89145411D01*
X154751028Y-89145411D01*
X154779768Y-89106262D01*
X154809200Y-89066170D01*
X154815847Y-89057115D01*
X154882781Y-89057115D01*
X154897497Y-89071831D01*
X154912213Y-89057115D01*
X154897497Y-89042399D01*
X154882781Y-89057115D01*
X154815847Y-89057115D01*
X154838633Y-89026077D01*
X154859061Y-88998250D01*
X154912213Y-88998250D01*
X154926929Y-89012966D01*
X154941645Y-88998250D01*
X154926929Y-88983534D01*
X154912213Y-88998250D01*
X154859061Y-88998250D01*
X154897497Y-88945893D01*
X154926929Y-88905801D01*
X154929241Y-88902652D01*
X155129821Y-88542794D01*
X155281934Y-88166133D01*
X155360794Y-87865110D01*
X155618586Y-87865110D01*
X155629355Y-87889336D01*
X155638208Y-87884732D01*
X155641730Y-87849802D01*
X155638208Y-87845489D01*
X155620710Y-87849529D01*
X155618586Y-87865110D01*
X155360794Y-87865110D01*
X155380753Y-87788922D01*
X155650401Y-87788922D01*
X155656883Y-87805959D01*
X155660998Y-87806246D01*
X155685892Y-87785341D01*
X155694977Y-87772266D01*
X155698446Y-87752126D01*
X155681998Y-87759287D01*
X155650401Y-87788922D01*
X155380753Y-87788922D01*
X155383142Y-87779802D01*
X155403434Y-87614936D01*
X155736315Y-87614936D01*
X155751031Y-87629652D01*
X155765747Y-87614936D01*
X155751031Y-87600220D01*
X155736315Y-87614936D01*
X155403434Y-87614936D01*
X155412491Y-87541356D01*
X155765747Y-87541356D01*
X155776516Y-87565582D01*
X155785369Y-87560977D01*
X155788891Y-87526048D01*
X155785369Y-87521734D01*
X155767871Y-87525774D01*
X155765747Y-87541356D01*
X155412491Y-87541356D01*
X155423359Y-87453059D01*
X155795180Y-87453059D01*
X155805948Y-87477285D01*
X155814801Y-87472681D01*
X155818324Y-87437751D01*
X155814801Y-87433438D01*
X155797304Y-87437478D01*
X155795180Y-87453059D01*
X155423359Y-87453059D01*
X155431006Y-87390931D01*
X155430932Y-87383590D01*
X155832145Y-87383590D01*
X155837446Y-87385469D01*
X155850280Y-87366103D01*
X155852850Y-87361869D01*
X155872154Y-87308500D01*
X155885329Y-87233714D01*
X155890908Y-87157356D01*
X155887424Y-87099268D01*
X155880926Y-87089747D01*
X155887040Y-87055724D01*
X155872479Y-87078444D01*
X155873734Y-87079210D01*
X155880926Y-87089747D01*
X155868528Y-87158737D01*
X155846978Y-87279399D01*
X155835086Y-87351292D01*
X155832145Y-87383590D01*
X155430932Y-87383590D01*
X155427657Y-87060085D01*
X155418503Y-86987765D01*
X155766790Y-86987765D01*
X155781902Y-87041380D01*
X155785369Y-87044993D01*
X155796377Y-87056464D01*
X155813916Y-87096246D01*
X155809865Y-87139140D01*
X155801642Y-87177514D01*
X155813747Y-87168620D01*
X155814801Y-87167034D01*
X155839882Y-87129305D01*
X155872479Y-87078444D01*
X155843564Y-87060818D01*
X155808554Y-87011576D01*
X155798681Y-86996860D01*
X155912908Y-86996860D01*
X155927625Y-87011576D01*
X155942341Y-86996860D01*
X155927625Y-86982144D01*
X155912908Y-86996860D01*
X155798681Y-86996860D01*
X155779309Y-86967985D01*
X155767460Y-86977318D01*
X155766790Y-86987765D01*
X155418503Y-86987765D01*
X155414066Y-86952711D01*
X155824612Y-86952711D01*
X155835381Y-86976938D01*
X155844233Y-86972333D01*
X155847756Y-86937404D01*
X155844233Y-86933090D01*
X155826736Y-86937130D01*
X155824612Y-86952711D01*
X155414066Y-86952711D01*
X155408477Y-86908563D01*
X155765747Y-86908563D01*
X155779309Y-86922124D01*
X155780464Y-86923279D01*
X155795180Y-86908563D01*
X155780464Y-86893847D01*
X155912908Y-86893847D01*
X155923677Y-86918073D01*
X155927625Y-86916020D01*
X155932530Y-86913469D01*
X155936052Y-86878539D01*
X155932530Y-86874226D01*
X155915033Y-86878266D01*
X155912908Y-86893847D01*
X155780464Y-86893847D01*
X155765747Y-86908563D01*
X155408477Y-86908563D01*
X155397081Y-86818530D01*
X155677451Y-86818530D01*
X155698075Y-86843658D01*
X155698446Y-86843912D01*
X155706883Y-86849699D01*
X155734004Y-86847365D01*
X155736315Y-86836720D01*
X155714950Y-86806748D01*
X155706883Y-86805550D01*
X155678216Y-86815592D01*
X155677451Y-86818530D01*
X155397081Y-86818530D01*
X155370667Y-86609861D01*
X155288487Y-86275771D01*
X155765747Y-86275771D01*
X155776516Y-86299997D01*
X155780464Y-86297943D01*
X155785369Y-86295392D01*
X155788891Y-86260463D01*
X155785369Y-86256149D01*
X155767871Y-86260189D01*
X155765747Y-86275771D01*
X155288487Y-86275771D01*
X155268948Y-86196338D01*
X155250876Y-86149884D01*
X155678053Y-86149884D01*
X155689018Y-86158042D01*
X155706883Y-86136223D01*
X155707921Y-86134955D01*
X155718113Y-86112365D01*
X155720170Y-86081983D01*
X155706546Y-86084670D01*
X155682148Y-86116149D01*
X155678053Y-86149884D01*
X155250876Y-86149884D01*
X155166953Y-85934156D01*
X155531339Y-85934156D01*
X155551417Y-85939812D01*
X155579548Y-85931267D01*
X155614746Y-85927774D01*
X155611703Y-85956934D01*
X155610617Y-86019983D01*
X155620084Y-86042736D01*
X155638208Y-86058534D01*
X155649543Y-86068415D01*
X155682439Y-86047098D01*
X155700586Y-86011576D01*
X155676259Y-85968218D01*
X155657201Y-85948117D01*
X155644991Y-85939446D01*
X155720173Y-85939446D01*
X155731960Y-85983942D01*
X155734512Y-85990849D01*
X155751031Y-86060042D01*
X155754290Y-86073693D01*
X155755371Y-86138010D01*
X155752157Y-86171682D01*
X155758562Y-86159783D01*
X155776678Y-86151554D01*
X155785369Y-86165368D01*
X155805595Y-86197517D01*
X155812993Y-86214330D01*
X155835970Y-86285633D01*
X155839085Y-86333900D01*
X155837449Y-86337676D01*
X155840351Y-86362637D01*
X155844233Y-86363340D01*
X155848252Y-86364067D01*
X155864137Y-86391072D01*
X155882868Y-86463014D01*
X155887040Y-86486565D01*
X155901162Y-86566286D01*
X155906799Y-86606883D01*
X155932530Y-86805645D01*
X155938233Y-86849699D01*
X155924148Y-86619445D01*
X155908898Y-86492769D01*
X155880004Y-86349301D01*
X155842023Y-86205053D01*
X155799512Y-86076039D01*
X155757029Y-85978274D01*
X155730018Y-85937300D01*
X155720173Y-85939446D01*
X155644991Y-85939446D01*
X155603545Y-85910014D01*
X155562691Y-85906033D01*
X155531339Y-85934156D01*
X155166953Y-85934156D01*
X155121157Y-85816434D01*
X155026768Y-85647503D01*
X155105618Y-85647503D01*
X155118745Y-85672736D01*
X155126926Y-85682391D01*
X155156012Y-85735497D01*
X155156993Y-85765368D01*
X155167030Y-85808011D01*
X155182908Y-85821593D01*
X155205522Y-85829293D01*
X155200213Y-85820420D01*
X155190519Y-85775030D01*
X155222210Y-85727609D01*
X155280598Y-85694031D01*
X155323563Y-85687126D01*
X155395073Y-85676514D01*
X155430109Y-85650628D01*
X155418708Y-85618392D01*
X155408493Y-85611032D01*
X155387851Y-85607068D01*
X155395034Y-85623714D01*
X155400674Y-85653352D01*
X155372467Y-85652388D01*
X155326449Y-85621474D01*
X155325833Y-85620904D01*
X155300194Y-85602566D01*
X155305458Y-85618461D01*
X155299383Y-85640072D01*
X155243775Y-85645427D01*
X155204575Y-85643158D01*
X155130884Y-85639333D01*
X155105618Y-85647503D01*
X155026768Y-85647503D01*
X154925950Y-85467064D01*
X154878871Y-85404942D01*
X154942607Y-85404942D01*
X154964066Y-85410105D01*
X154987063Y-85402961D01*
X155019116Y-85381292D01*
X155018453Y-85371505D01*
X154984902Y-85370984D01*
X154973036Y-85376878D01*
X154942607Y-85404942D01*
X154878871Y-85404942D01*
X154791301Y-85289392D01*
X154855651Y-85289392D01*
X154893460Y-85328518D01*
X154904855Y-85337694D01*
X154939717Y-85363148D01*
X154932409Y-85347907D01*
X154915967Y-85326582D01*
X154879660Y-85285819D01*
X154864461Y-85275075D01*
X154855651Y-85289392D01*
X154791301Y-85289392D01*
X154741440Y-85223599D01*
X154831970Y-85223599D01*
X154844143Y-85231388D01*
X154864461Y-85236683D01*
X154868065Y-85237622D01*
X154928320Y-85268790D01*
X154950812Y-85293691D01*
X154983385Y-85322278D01*
X154984902Y-85322102D01*
X154998385Y-85320537D01*
X155033147Y-85328720D01*
X155074288Y-85363590D01*
X155142999Y-85406304D01*
X155195950Y-85403854D01*
X155251608Y-85401680D01*
X155265400Y-85420783D01*
X155246981Y-85439920D01*
X155231420Y-85434142D01*
X155211141Y-85430691D01*
X155217323Y-85445312D01*
X155258821Y-85466508D01*
X155298151Y-85465746D01*
X155300194Y-85465830D01*
X155342435Y-85467569D01*
X155343179Y-85495488D01*
X155344873Y-85523883D01*
X155374740Y-85518749D01*
X155406672Y-85515266D01*
X155400485Y-85535693D01*
X155398836Y-85562469D01*
X155415023Y-85562769D01*
X155453726Y-85579786D01*
X155496288Y-85632061D01*
X155496726Y-85632812D01*
X155525060Y-85695133D01*
X155517245Y-85738548D01*
X155503188Y-85757898D01*
X155449557Y-85795364D01*
X155416315Y-85801441D01*
X155384333Y-85796903D01*
X155409216Y-85787245D01*
X155417413Y-85785049D01*
X155468759Y-85752307D01*
X155481891Y-85731738D01*
X155482452Y-85707182D01*
X155446852Y-85710000D01*
X155410448Y-85721705D01*
X155335014Y-85738290D01*
X155279748Y-85735206D01*
X155242075Y-85734779D01*
X155235968Y-85746914D01*
X155260701Y-85769856D01*
X155296569Y-85775423D01*
X155337265Y-85786753D01*
X155338980Y-85804855D01*
X155347476Y-85830066D01*
X155407630Y-85841907D01*
X155466091Y-85841857D01*
X155491723Y-85860927D01*
X155488502Y-85882897D01*
X155488123Y-85910789D01*
X155502392Y-85906920D01*
X155519947Y-85867274D01*
X155515574Y-85834287D01*
X155515021Y-85780991D01*
X155529092Y-85761447D01*
X155545264Y-85735676D01*
X155588732Y-85735676D01*
X155601143Y-85772422D01*
X155619066Y-85790436D01*
X155634501Y-85827228D01*
X155629235Y-85840869D01*
X155627799Y-85858823D01*
X155643551Y-85851765D01*
X155662449Y-85816204D01*
X155647063Y-85773637D01*
X155617419Y-85728316D01*
X155602835Y-85716559D01*
X155588732Y-85735676D01*
X155545264Y-85735676D01*
X155558885Y-85713969D01*
X155537984Y-85642724D01*
X155467755Y-85551418D01*
X155441993Y-85525249D01*
X155378661Y-85467713D01*
X155335923Y-85437129D01*
X155324264Y-85437528D01*
X155310428Y-85437063D01*
X155277464Y-85397950D01*
X155236621Y-85353706D01*
X155200486Y-85357249D01*
X155188456Y-85366163D01*
X155144716Y-85386872D01*
X155127338Y-85382282D01*
X155130921Y-85364865D01*
X155142766Y-85363372D01*
X155175986Y-85350845D01*
X155163719Y-85320801D01*
X155111804Y-85284546D01*
X155098832Y-85278294D01*
X155034615Y-85258017D01*
X155001157Y-85274118D01*
X154999915Y-85276037D01*
X154976313Y-85287905D01*
X154961381Y-85262827D01*
X154921313Y-85227393D01*
X154876347Y-85219625D01*
X154831970Y-85223599D01*
X154741440Y-85223599D01*
X154681984Y-85145145D01*
X154515720Y-84967922D01*
X154222147Y-84704886D01*
X153930270Y-84499242D01*
X153638080Y-84349638D01*
X153543615Y-84313176D01*
X153434252Y-84273052D01*
X153353629Y-84241061D01*
X153311968Y-84221406D01*
X153310361Y-84217248D01*
X153364601Y-84226654D01*
X153456691Y-84254238D01*
X153570760Y-84294114D01*
X153690936Y-84340396D01*
X153801348Y-84387200D01*
X153886123Y-84428638D01*
X153896857Y-84434733D01*
X154043085Y-84531432D01*
X154214147Y-84662789D01*
X154397066Y-84818346D01*
X154559027Y-84968386D01*
X154657454Y-85060091D01*
X154732631Y-85118598D01*
X154801290Y-85153909D01*
X154876347Y-85174959D01*
X154880162Y-85176029D01*
X154918839Y-85183518D01*
X155053494Y-85214450D01*
X155166266Y-85258924D01*
X155272971Y-85326173D01*
X155389426Y-85425432D01*
X155474003Y-85507640D01*
X155562691Y-85614552D01*
X155602835Y-85662945D01*
X155673771Y-85748457D01*
X155720170Y-85830818D01*
X155730018Y-85848299D01*
X155827167Y-86020746D01*
X155931492Y-86316511D01*
X155984046Y-86627755D01*
X155982132Y-86946484D01*
X155976686Y-86996860D01*
X155950967Y-87167070D01*
X155914888Y-87326523D01*
X155864565Y-87484017D01*
X155796118Y-87648345D01*
X155705663Y-87828304D01*
X155589320Y-88032691D01*
X155443207Y-88270299D01*
X155350594Y-88415465D01*
X155139052Y-88751427D01*
X154953567Y-89061404D01*
X154796322Y-89341369D01*
X154669495Y-89587293D01*
X154575269Y-89795150D01*
X154518096Y-89953145D01*
X154476122Y-90188390D01*
X154485446Y-90331013D01*
X154490940Y-90415051D01*
X154561713Y-90628224D01*
X154604477Y-90697742D01*
X154661030Y-90789676D01*
X154741897Y-90895698D01*
X154663262Y-90925595D01*
X154507688Y-90955213D01*
X154344430Y-90936477D01*
X154188079Y-90875521D01*
X154149245Y-90847574D01*
X154598270Y-90847574D01*
X154621250Y-90883394D01*
X154637045Y-90886817D01*
X154660232Y-90876216D01*
X154643252Y-90847574D01*
X154612310Y-90813932D01*
X154604477Y-90808331D01*
X154598778Y-90832063D01*
X154598270Y-90847574D01*
X154149245Y-90847574D01*
X154053228Y-90778476D01*
X153954467Y-90651477D01*
X153939619Y-90621443D01*
X153924462Y-90587590D01*
X154470730Y-90587590D01*
X154485446Y-90602306D01*
X154500162Y-90587590D01*
X154485446Y-90572874D01*
X154470730Y-90587590D01*
X153924462Y-90587590D01*
X153885830Y-90501302D01*
X153876600Y-90647459D01*
X153867370Y-90793615D01*
X153755660Y-90684849D01*
X153643951Y-90576083D01*
X153613688Y-90655417D01*
X153571788Y-90839316D01*
X153571276Y-91057674D01*
X153611943Y-91303301D01*
X153635098Y-91391697D01*
X153643411Y-91434767D01*
X153625445Y-91450148D01*
X153567542Y-91444827D01*
X153540234Y-91440220D01*
X153359401Y-91387817D01*
X153221532Y-91297937D01*
X153218498Y-91293963D01*
X153528899Y-91293963D01*
X153543615Y-91308679D01*
X153558331Y-91293963D01*
X153543615Y-91279247D01*
X153528899Y-91293963D01*
X153218498Y-91293963D01*
X153120455Y-91165523D01*
X153118687Y-91161518D01*
X153499467Y-91161518D01*
X153510236Y-91185744D01*
X153519088Y-91181139D01*
X153522611Y-91146210D01*
X153519088Y-91141896D01*
X153501591Y-91145937D01*
X153499467Y-91161518D01*
X153118687Y-91161518D01*
X153072468Y-91056803D01*
X153046726Y-90992015D01*
X153033494Y-90980736D01*
X153029843Y-91010432D01*
X153018908Y-91060791D01*
X152978784Y-91066727D01*
X152966132Y-91063764D01*
X152934921Y-91058613D01*
X152918073Y-91069827D01*
X152915233Y-91107191D01*
X152926044Y-91180488D01*
X152950151Y-91299503D01*
X152956470Y-91329340D01*
X152964686Y-91395810D01*
X152942577Y-91428823D01*
X152892145Y-91447059D01*
X152818223Y-91459408D01*
X152710776Y-91467916D01*
X152611301Y-91470546D01*
X152456311Y-91458290D01*
X152341727Y-91416016D01*
X152253273Y-91335500D01*
X152245791Y-91323395D01*
X152881391Y-91323395D01*
X152896107Y-91338111D01*
X152910823Y-91323395D01*
X152896107Y-91308679D01*
X152881391Y-91323395D01*
X152245791Y-91323395D01*
X152184856Y-91224814D01*
X152144693Y-91158737D01*
X152112787Y-91128052D01*
X152102180Y-91130883D01*
X152063368Y-91160380D01*
X152021178Y-91132909D01*
X151985880Y-91068443D01*
X151958285Y-91008537D01*
X151939614Y-90997820D01*
X151917122Y-91030751D01*
X151913720Y-91037076D01*
X151893251Y-91104437D01*
X151881668Y-91199016D01*
X151880695Y-91233164D01*
X151880695Y-91367543D01*
X151754487Y-91367543D01*
X151599262Y-91343431D01*
X151458168Y-91277282D01*
X151347758Y-91178379D01*
X151308037Y-91117224D01*
X151249745Y-91021913D01*
X151181469Y-90934976D01*
X151166964Y-90919895D01*
X151114200Y-90857439D01*
X151096563Y-90823048D01*
X153499467Y-90823048D01*
X153514183Y-90837764D01*
X153519088Y-90832859D01*
X153528899Y-90823048D01*
X153514183Y-90808331D01*
X153499467Y-90823048D01*
X151096563Y-90823048D01*
X151087017Y-90804435D01*
X151086026Y-90796622D01*
X151063894Y-90747555D01*
X151024382Y-90709628D01*
X150996475Y-90686645D01*
X150999235Y-90671734D01*
X151041248Y-90661101D01*
X151131096Y-90650954D01*
X151164185Y-90647850D01*
X151344857Y-90630370D01*
X151476003Y-90615264D01*
X151566816Y-90600774D01*
X151617154Y-90587590D01*
X153558331Y-90587590D01*
X153573048Y-90602306D01*
X153587764Y-90587590D01*
X153573048Y-90572874D01*
X153558331Y-90587590D01*
X151617154Y-90587590D01*
X151626489Y-90585145D01*
X151664214Y-90566621D01*
X151684930Y-90548362D01*
X151693806Y-90536184D01*
X151693208Y-90526187D01*
X151678403Y-90518278D01*
X151644658Y-90512363D01*
X151587238Y-90508349D01*
X151501410Y-90506143D01*
X151382441Y-90505650D01*
X151225598Y-90506778D01*
X151026146Y-90509432D01*
X150779353Y-90513520D01*
X150480485Y-90518948D01*
X150334182Y-90521682D01*
X150181591Y-90505285D01*
X150092272Y-90469280D01*
X150027293Y-90440429D01*
X151409780Y-90440429D01*
X151424496Y-90455145D01*
X151439212Y-90440429D01*
X151527509Y-90440429D01*
X151542225Y-90455145D01*
X151556941Y-90440429D01*
X151542225Y-90425713D01*
X151527509Y-90440429D01*
X151439212Y-90440429D01*
X151424496Y-90425713D01*
X151409780Y-90440429D01*
X150027293Y-90440429D01*
X150016097Y-90435458D01*
X149977857Y-90439546D01*
X149983668Y-90474877D01*
X150035465Y-90531229D01*
X150080805Y-90576319D01*
X150091737Y-90600826D01*
X150087199Y-90602306D01*
X150049565Y-90582064D01*
X149994069Y-90531701D01*
X149977679Y-90514009D01*
X149903662Y-90449989D01*
X149820268Y-90426816D01*
X149788401Y-90425713D01*
X149664629Y-90398386D01*
X149640057Y-90381564D01*
X151556941Y-90381564D01*
X151571657Y-90396280D01*
X151586373Y-90381564D01*
X151579305Y-90374496D01*
X151648912Y-90374496D01*
X151663018Y-90396056D01*
X151666821Y-90399933D01*
X151705410Y-90423181D01*
X151719597Y-90420028D01*
X151710764Y-90398135D01*
X151683297Y-90383457D01*
X151648912Y-90374496D01*
X151579305Y-90374496D01*
X151571657Y-90366848D01*
X151556941Y-90381564D01*
X149640057Y-90381564D01*
X149588647Y-90346369D01*
X152063688Y-90346369D01*
X152070985Y-90362207D01*
X152120026Y-90366848D01*
X152159185Y-90352132D01*
X154382433Y-90352132D01*
X154397149Y-90366848D01*
X154411866Y-90352132D01*
X154397149Y-90337416D01*
X154382433Y-90352132D01*
X152159185Y-90352132D01*
X152174054Y-90346544D01*
X152249935Y-90293241D01*
X152316215Y-90233396D01*
X152388395Y-90156830D01*
X152395587Y-90146107D01*
X154382433Y-90146107D01*
X154397149Y-90160823D01*
X154411866Y-90146107D01*
X154397149Y-90131390D01*
X154382433Y-90146107D01*
X152395587Y-90146107D01*
X152421349Y-90107698D01*
X152420942Y-90075598D01*
X152411676Y-90064161D01*
X152376962Y-90044035D01*
X152359244Y-90068020D01*
X152322424Y-90129472D01*
X152259397Y-90204162D01*
X152188270Y-90273220D01*
X152127148Y-90317776D01*
X152114340Y-90323275D01*
X152063688Y-90346369D01*
X149588647Y-90346369D01*
X149555183Y-90323460D01*
X149465442Y-90211517D01*
X149462384Y-90204971D01*
X152145585Y-90204971D01*
X152160301Y-90219687D01*
X152175017Y-90204971D01*
X152160301Y-90190255D01*
X152145585Y-90204971D01*
X149462384Y-90204971D01*
X149448632Y-90175539D01*
X152204450Y-90175539D01*
X152219166Y-90190255D01*
X152233882Y-90175539D01*
X152219166Y-90160823D01*
X152204450Y-90175539D01*
X149448632Y-90175539D01*
X149400787Y-90073137D01*
X149390680Y-90027547D01*
X153350681Y-90027547D01*
X153361691Y-90043093D01*
X153361892Y-90043094D01*
X153380016Y-90028378D01*
X154411866Y-90028378D01*
X154426582Y-90043094D01*
X154441298Y-90028378D01*
X154426582Y-90013662D01*
X154411866Y-90028378D01*
X153380016Y-90028378D01*
X153385873Y-90023622D01*
X153432620Y-89975656D01*
X153442830Y-89964519D01*
X153514183Y-89885944D01*
X153434169Y-89942445D01*
X153377873Y-89989775D01*
X153350681Y-90027547D01*
X149390680Y-90027547D01*
X149366596Y-89918903D01*
X149366834Y-89895933D01*
X152410475Y-89895933D01*
X152434314Y-89922044D01*
X152454623Y-89925365D01*
X152493791Y-89909472D01*
X152498772Y-89895933D01*
X152490138Y-89886476D01*
X152528204Y-89886476D01*
X152544827Y-89915215D01*
X152594426Y-89908821D01*
X152664294Y-89881217D01*
X154441298Y-89881217D01*
X154456014Y-89895933D01*
X154470730Y-89881217D01*
X154456014Y-89866501D01*
X154441298Y-89881217D01*
X152664294Y-89881217D01*
X152681971Y-89874233D01*
X152789154Y-89822352D01*
X154470730Y-89822352D01*
X154485446Y-89837068D01*
X154500162Y-89822352D01*
X154485446Y-89807636D01*
X154470730Y-89822352D01*
X152789154Y-89822352D01*
X152791001Y-89821458D01*
X152896107Y-89763763D01*
X152897274Y-89763122D01*
X152976544Y-89711852D01*
X152984403Y-89705717D01*
X152993144Y-89691518D01*
X152957345Y-89702037D01*
X152894481Y-89730392D01*
X152787990Y-89776168D01*
X152682671Y-89811992D01*
X152636949Y-89823219D01*
X152560006Y-89848427D01*
X152528400Y-89883400D01*
X152528204Y-89886476D01*
X152490138Y-89886476D01*
X152474933Y-89869821D01*
X152454623Y-89866501D01*
X152415456Y-89882393D01*
X152410475Y-89895933D01*
X149366834Y-89895933D01*
X149368248Y-89759395D01*
X149393841Y-89649594D01*
X149394888Y-89645759D01*
X154559027Y-89645759D01*
X154573743Y-89660475D01*
X154588459Y-89645759D01*
X154573743Y-89631043D01*
X154559027Y-89645759D01*
X149394888Y-89645759D01*
X149417164Y-89564144D01*
X149423652Y-89502014D01*
X149418111Y-89483914D01*
X149376144Y-89461173D01*
X149302536Y-89432671D01*
X149281330Y-89425640D01*
X149214069Y-89400643D01*
X149181385Y-89381458D01*
X149181085Y-89377621D01*
X149213312Y-89379560D01*
X149281333Y-89398229D01*
X149322860Y-89412393D01*
X149502441Y-89463144D01*
X149733346Y-89503825D01*
X150017573Y-89534686D01*
X150357123Y-89555980D01*
X150512097Y-89561981D01*
X150727946Y-89567929D01*
X150896870Y-89569556D01*
X151030678Y-89566422D01*
X151141181Y-89558084D01*
X151145586Y-89557462D01*
X154176408Y-89557462D01*
X154191124Y-89572178D01*
X154205840Y-89557462D01*
X154191124Y-89542746D01*
X154176408Y-89557462D01*
X151145586Y-89557462D01*
X151240190Y-89544103D01*
X151300315Y-89532546D01*
X151424496Y-89501209D01*
X151434187Y-89498764D01*
X151434691Y-89498598D01*
X154205840Y-89498598D01*
X154220556Y-89513314D01*
X154235272Y-89498598D01*
X154220556Y-89483882D01*
X154205840Y-89498598D01*
X151434691Y-89498598D01*
X151542225Y-89463174D01*
X151565317Y-89455567D01*
X151571657Y-89452990D01*
X151648912Y-89421587D01*
X151682491Y-89407938D01*
X151735397Y-89380869D01*
X154294137Y-89380869D01*
X154308853Y-89395585D01*
X154323569Y-89380869D01*
X154308853Y-89366153D01*
X154294137Y-89380869D01*
X151735397Y-89380869D01*
X151774498Y-89360863D01*
X151830126Y-89319325D01*
X151840547Y-89292383D01*
X151834340Y-89263140D01*
X154323569Y-89263140D01*
X154338285Y-89277856D01*
X154353001Y-89263140D01*
X154338285Y-89248424D01*
X154323569Y-89263140D01*
X151834340Y-89263140D01*
X151831032Y-89247554D01*
X151822969Y-89192544D01*
X154361339Y-89192544D01*
X154367514Y-89222035D01*
X154369610Y-89227619D01*
X154392926Y-89263660D01*
X154406181Y-89263919D01*
X154402880Y-89232784D01*
X154386086Y-89211143D01*
X154361339Y-89192544D01*
X151822969Y-89192544D01*
X151819494Y-89168838D01*
X154438251Y-89168838D01*
X154446242Y-89189058D01*
X154451452Y-89189560D01*
X154476009Y-89170135D01*
X154517675Y-89126413D01*
X154554901Y-89082844D01*
X154550574Y-89076526D01*
X154507520Y-89098016D01*
X154462423Y-89132374D01*
X154438251Y-89168838D01*
X151819494Y-89168838D01*
X151818585Y-89162635D01*
X151806229Y-89058852D01*
X154411866Y-89058852D01*
X154434637Y-89071493D01*
X154441298Y-89071831D01*
X154469599Y-89049205D01*
X154470730Y-89040662D01*
X154457415Y-89027682D01*
X154529594Y-89027682D01*
X154544311Y-89042399D01*
X154550574Y-89036136D01*
X154559027Y-89027682D01*
X154544311Y-89012966D01*
X154529594Y-89027682D01*
X154457415Y-89027682D01*
X154452699Y-89023084D01*
X154441298Y-89027682D01*
X154413220Y-89054130D01*
X154411866Y-89058852D01*
X151806229Y-89058852D01*
X151806079Y-89057588D01*
X151797463Y-88968818D01*
X154294137Y-88968818D01*
X154308853Y-88983534D01*
X154323569Y-88968818D01*
X154308853Y-88954102D01*
X154294137Y-88968818D01*
X151797463Y-88968818D01*
X151795871Y-88952412D01*
X151795870Y-88952365D01*
X154588459Y-88952365D01*
X154609824Y-88982336D01*
X154617891Y-88983534D01*
X154646558Y-88973492D01*
X154647323Y-88970555D01*
X154626699Y-88945427D01*
X154617891Y-88939386D01*
X154590770Y-88941719D01*
X154588459Y-88952365D01*
X151795870Y-88952365D01*
X151795049Y-88894422D01*
X151805743Y-88872388D01*
X151830082Y-88875079D01*
X151839978Y-88878873D01*
X151939840Y-88903394D01*
X152072805Y-88915901D01*
X152160301Y-88915817D01*
X152214223Y-88915765D01*
X152219166Y-88915236D01*
X152339443Y-88902358D01*
X152376962Y-88893635D01*
X152381043Y-88892686D01*
X152439825Y-88875578D01*
X154653072Y-88875578D01*
X154653271Y-88894754D01*
X154658436Y-88895238D01*
X154683004Y-88875124D01*
X154709942Y-88843731D01*
X154735396Y-88808869D01*
X154720155Y-88816177D01*
X154698830Y-88832619D01*
X154653072Y-88875578D01*
X152439825Y-88875578D01*
X152454623Y-88871271D01*
X152513488Y-88854138D01*
X152322178Y-88835678D01*
X152135289Y-88802428D01*
X151995125Y-88741667D01*
X151986005Y-88733360D01*
X154588459Y-88733360D01*
X154603175Y-88748076D01*
X154617891Y-88733360D01*
X154676756Y-88733360D01*
X154691472Y-88748076D01*
X154706188Y-88733360D01*
X154691472Y-88718644D01*
X154676756Y-88733360D01*
X154617891Y-88733360D01*
X154603175Y-88718644D01*
X154588459Y-88733360D01*
X151986005Y-88733360D01*
X151953692Y-88703928D01*
X154794484Y-88703928D01*
X154809200Y-88718644D01*
X154823917Y-88703928D01*
X154809200Y-88689212D01*
X154794484Y-88703928D01*
X151953692Y-88703928D01*
X151894878Y-88650358D01*
X151888954Y-88642433D01*
X151887995Y-88641116D01*
X154799691Y-88641116D01*
X154804295Y-88649969D01*
X154809200Y-88650464D01*
X154839224Y-88653492D01*
X154843538Y-88649969D01*
X154839498Y-88632472D01*
X154823917Y-88630348D01*
X154799691Y-88641116D01*
X151887995Y-88641116D01*
X151837270Y-88571483D01*
X154853349Y-88571483D01*
X154864118Y-88595709D01*
X154872970Y-88591105D01*
X154876493Y-88556176D01*
X154872970Y-88551862D01*
X154855473Y-88555902D01*
X154853349Y-88571483D01*
X151837270Y-88571483D01*
X151832237Y-88564574D01*
X151768446Y-88739528D01*
X151717833Y-88856503D01*
X151655235Y-88970232D01*
X151590277Y-89065655D01*
X151532580Y-89127717D01*
X151512197Y-89140483D01*
X151508362Y-89123526D01*
X151527616Y-89066887D01*
X151563631Y-88987374D01*
X151614884Y-88865740D01*
X151657745Y-88734048D01*
X151674597Y-88663121D01*
X151693160Y-88515346D01*
X151694270Y-88492561D01*
X154770023Y-88492561D01*
X154777254Y-88508551D01*
X154812477Y-88529983D01*
X154823917Y-88526667D01*
X154825950Y-88526078D01*
X154844285Y-88495295D01*
X154885164Y-88495295D01*
X154891646Y-88512332D01*
X154895760Y-88512619D01*
X154920654Y-88491714D01*
X154929740Y-88478639D01*
X154933209Y-88458499D01*
X154916761Y-88465660D01*
X154885164Y-88495295D01*
X154844285Y-88495295D01*
X154850548Y-88484779D01*
X154851025Y-88474091D01*
X154843837Y-88456819D01*
X154833795Y-88476012D01*
X154802437Y-88498287D01*
X154787423Y-88493539D01*
X154770023Y-88492561D01*
X151694270Y-88492561D01*
X151701673Y-88340586D01*
X151700945Y-88251314D01*
X154798799Y-88251314D01*
X154803249Y-88276950D01*
X154806424Y-88286926D01*
X154822416Y-88350355D01*
X154825782Y-88375223D01*
X154835803Y-88378284D01*
X154843837Y-88362582D01*
X154849895Y-88350742D01*
X154882781Y-88350742D01*
X154897497Y-88365458D01*
X154941645Y-88365458D01*
X154952414Y-88389684D01*
X154961267Y-88385079D01*
X154964789Y-88350150D01*
X154961267Y-88345836D01*
X154943769Y-88349876D01*
X154941645Y-88365458D01*
X154897497Y-88365458D01*
X154912213Y-88350742D01*
X154897497Y-88336025D01*
X154882781Y-88350742D01*
X154849895Y-88350742D01*
X154855847Y-88339110D01*
X154871779Y-88280958D01*
X154871356Y-88277161D01*
X154971078Y-88277161D01*
X154981846Y-88301387D01*
X154990699Y-88296783D01*
X154994222Y-88261853D01*
X154990699Y-88257540D01*
X154973202Y-88261580D01*
X154971078Y-88277161D01*
X154871356Y-88277161D01*
X154868697Y-88253266D01*
X154854889Y-88261959D01*
X154852898Y-88279614D01*
X154846909Y-88305029D01*
X154822923Y-88280247D01*
X154820689Y-88277161D01*
X154798799Y-88251314D01*
X151700945Y-88251314D01*
X151700316Y-88174148D01*
X155000510Y-88174148D01*
X155015226Y-88188864D01*
X155029942Y-88174148D01*
X155015226Y-88159432D01*
X155000510Y-88174148D01*
X151700316Y-88174148D01*
X151700210Y-88161082D01*
X151699062Y-88144716D01*
X153940950Y-88144716D01*
X153955666Y-88159432D01*
X153970382Y-88144716D01*
X153955666Y-88130000D01*
X153940950Y-88144716D01*
X151699062Y-88144716D01*
X151690524Y-88023040D01*
X151856469Y-88023040D01*
X151861074Y-88031893D01*
X151896003Y-88035415D01*
X151900317Y-88031893D01*
X151899245Y-88027250D01*
X155015615Y-88027250D01*
X155021227Y-88070382D01*
X155022031Y-88073495D01*
X155039486Y-88112947D01*
X155053128Y-88104591D01*
X155046628Y-88051278D01*
X155034900Y-88034888D01*
X155015615Y-88027250D01*
X151899245Y-88027250D01*
X151896277Y-88014395D01*
X151880695Y-88012271D01*
X151856469Y-88023040D01*
X151690524Y-88023040D01*
X151688842Y-87999074D01*
X151681529Y-87953407D01*
X155029942Y-87953407D01*
X155040711Y-87977633D01*
X155049564Y-87973028D01*
X155053086Y-87938099D01*
X155049564Y-87933785D01*
X155032066Y-87937825D01*
X155029942Y-87953407D01*
X151681529Y-87953407D01*
X151672102Y-87894542D01*
X151661101Y-87818509D01*
X155061698Y-87818509D01*
X155067109Y-87856683D01*
X155077156Y-87857139D01*
X155084182Y-87817747D01*
X155079480Y-87800727D01*
X155066411Y-87789579D01*
X155061698Y-87818509D01*
X151661101Y-87818509D01*
X151656904Y-87789499D01*
X151656402Y-87689598D01*
X151658823Y-87671348D01*
X155032266Y-87671348D01*
X155037677Y-87709522D01*
X155047724Y-87709978D01*
X155049564Y-87699662D01*
X155054750Y-87670586D01*
X155050048Y-87653566D01*
X155036979Y-87642418D01*
X155032266Y-87671348D01*
X151658823Y-87671348D01*
X151659560Y-87665793D01*
X151674631Y-87602504D01*
X151695980Y-87587870D01*
X151738780Y-87612358D01*
X151741539Y-87614287D01*
X151804794Y-87653058D01*
X151825001Y-87652777D01*
X151800917Y-87615827D01*
X151762210Y-87574559D01*
X151747594Y-87556072D01*
X155000510Y-87556072D01*
X155015226Y-87570788D01*
X155059374Y-87570788D01*
X155066411Y-87590877D01*
X155069416Y-87599455D01*
X155072353Y-87600220D01*
X155097482Y-87579596D01*
X155103523Y-87570788D01*
X155101189Y-87543667D01*
X155090543Y-87541356D01*
X155060572Y-87562721D01*
X155059374Y-87570788D01*
X155015226Y-87570788D01*
X155015615Y-87570399D01*
X155029942Y-87556072D01*
X155015226Y-87541356D01*
X155000510Y-87556072D01*
X151747594Y-87556072D01*
X151702361Y-87498860D01*
X151661220Y-87417320D01*
X151652949Y-87379479D01*
X151821831Y-87379479D01*
X151836547Y-87394195D01*
X151851263Y-87379479D01*
X151836547Y-87364762D01*
X151821831Y-87379479D01*
X151652949Y-87379479D01*
X151646054Y-87347933D01*
X151656909Y-87313848D01*
X151690141Y-87314842D01*
X151710479Y-87329934D01*
X151756257Y-87360746D01*
X151773269Y-87364762D01*
X151770819Y-87357732D01*
X155009833Y-87357732D01*
X155011138Y-87421560D01*
X155015226Y-87425727D01*
X155019954Y-87430547D01*
X155030351Y-87408911D01*
X155036979Y-87395198D01*
X155048678Y-87370992D01*
X155064984Y-87381821D01*
X155083564Y-87423627D01*
X155090543Y-87437042D01*
X155099488Y-87454235D01*
X155104897Y-87438740D01*
X155100569Y-87371991D01*
X155096873Y-87335330D01*
X155083820Y-87243519D01*
X155068262Y-87178388D01*
X155058078Y-87158737D01*
X155045117Y-87121611D01*
X155040343Y-87048501D01*
X155042738Y-86967428D01*
X155092944Y-86967428D01*
X155093809Y-87026292D01*
X155103577Y-87101024D01*
X155118239Y-87158737D01*
X155141803Y-87232317D01*
X155142668Y-87158737D01*
X155133028Y-87075442D01*
X155118239Y-87026292D01*
X155092944Y-86967428D01*
X155042738Y-86967428D01*
X155042911Y-86961589D01*
X155051976Y-86883059D01*
X155066694Y-86835094D01*
X155070562Y-86830879D01*
X155082089Y-86792455D01*
X155080486Y-86720049D01*
X155068884Y-86636255D01*
X155050413Y-86563665D01*
X155028205Y-86524871D01*
X155028153Y-86524839D01*
X155011625Y-86533415D01*
X155010642Y-86573909D01*
X155023070Y-86622094D01*
X155038994Y-86647820D01*
X155056427Y-86695850D01*
X155056863Y-86763607D01*
X155040412Y-86814497D01*
X155038491Y-86816623D01*
X155024691Y-86856175D01*
X155015323Y-86930879D01*
X155010723Y-87022525D01*
X155011228Y-87112901D01*
X155017174Y-87183795D01*
X155028896Y-87216997D01*
X155031092Y-87217601D01*
X155054859Y-87241883D01*
X155058924Y-87269108D01*
X155051968Y-87300412D01*
X155035315Y-87284152D01*
X155019718Y-87283825D01*
X155010792Y-87334376D01*
X155009833Y-87357732D01*
X151770819Y-87357732D01*
X151768013Y-87349678D01*
X151724635Y-87310901D01*
X151679086Y-87276281D01*
X151609468Y-87221312D01*
X151565237Y-87177665D01*
X151556941Y-87162522D01*
X151580489Y-87106807D01*
X151642103Y-87036079D01*
X151728238Y-86963630D01*
X151817292Y-86906994D01*
X151836547Y-86896675D01*
X151880695Y-86873015D01*
X151954276Y-86833582D01*
X151792399Y-86853795D01*
X151663122Y-86869027D01*
X151581244Y-86874750D01*
X151535876Y-86869666D01*
X151516126Y-86852476D01*
X151511105Y-86821883D01*
X151511053Y-86820267D01*
X151498346Y-86749872D01*
X151474263Y-86678547D01*
X151447801Y-86586708D01*
X151439212Y-86511049D01*
X151431214Y-86444717D01*
X151413684Y-86410628D01*
X151394904Y-86374005D01*
X151392641Y-86364067D01*
X151586373Y-86364067D01*
X151596415Y-86392734D01*
X151599352Y-86393499D01*
X151624481Y-86372875D01*
X151630521Y-86364067D01*
X151629405Y-86351088D01*
X154882781Y-86351088D01*
X154897497Y-86359258D01*
X154905552Y-86363730D01*
X154912213Y-86364067D01*
X154933209Y-86347281D01*
X154940514Y-86341441D01*
X154941645Y-86332898D01*
X154923614Y-86315320D01*
X154912213Y-86319919D01*
X154884135Y-86346367D01*
X154882781Y-86351088D01*
X151629405Y-86351088D01*
X151628188Y-86336946D01*
X151617542Y-86334635D01*
X151587571Y-86356000D01*
X151586373Y-86364067D01*
X151392641Y-86364067D01*
X151378273Y-86300963D01*
X151374647Y-86274469D01*
X154765052Y-86274469D01*
X154789004Y-86293059D01*
X154798799Y-86294190D01*
X154809200Y-86295392D01*
X154845241Y-86270974D01*
X154853349Y-86237829D01*
X154852220Y-86231622D01*
X154912213Y-86231622D01*
X154923614Y-86243023D01*
X154926929Y-86246338D01*
X154941645Y-86231622D01*
X154926929Y-86216906D01*
X154912213Y-86231622D01*
X154852220Y-86231622D01*
X154846237Y-86198739D01*
X154816018Y-86211380D01*
X154809200Y-86216906D01*
X154772340Y-86256941D01*
X154765052Y-86274469D01*
X151374647Y-86274469D01*
X151373910Y-86269088D01*
X151347929Y-86158042D01*
X154470730Y-86158042D01*
X154493127Y-86186619D01*
X154500162Y-86187474D01*
X154528739Y-86165077D01*
X154529594Y-86158042D01*
X154507197Y-86129465D01*
X154500162Y-86128609D01*
X154471585Y-86151007D01*
X154470730Y-86158042D01*
X151347929Y-86158042D01*
X151339622Y-86122539D01*
X151328531Y-86094726D01*
X154772614Y-86094726D01*
X154777134Y-86154990D01*
X154789820Y-86161855D01*
X154800855Y-86145613D01*
X154835299Y-86113611D01*
X154846237Y-86114382D01*
X154855158Y-86115011D01*
X154872970Y-86112887D01*
X154880996Y-86111930D01*
X154882781Y-86102651D01*
X154867745Y-86066053D01*
X154839185Y-86052862D01*
X154821926Y-86074192D01*
X154821848Y-86075366D01*
X154811685Y-86083917D01*
X154795416Y-86055029D01*
X154779410Y-86026037D01*
X154772960Y-86047341D01*
X154772614Y-86094726D01*
X151328531Y-86094726D01*
X151283360Y-85981448D01*
X154823917Y-85981448D01*
X154834685Y-86005674D01*
X154843538Y-86001070D01*
X154847061Y-85966141D01*
X154843538Y-85961827D01*
X154826041Y-85965867D01*
X154823917Y-85981448D01*
X151283360Y-85981448D01*
X151272654Y-85954600D01*
X151257543Y-85925982D01*
X151439212Y-85925982D01*
X151459601Y-85933472D01*
X151496738Y-85916590D01*
X151511491Y-85905415D01*
X154767376Y-85905415D01*
X154772787Y-85943589D01*
X154779410Y-85943890D01*
X154782834Y-85944045D01*
X154789860Y-85904653D01*
X154785158Y-85887633D01*
X154772089Y-85876485D01*
X154767376Y-85905415D01*
X151511491Y-85905415D01*
X151537811Y-85885479D01*
X151545099Y-85871499D01*
X151511548Y-85871469D01*
X151465759Y-85894128D01*
X151439536Y-85923113D01*
X151439212Y-85925982D01*
X151257543Y-85925982D01*
X151182873Y-85784564D01*
X151176729Y-85775423D01*
X154530479Y-85775423D01*
X154544311Y-85833186D01*
X154545697Y-85838974D01*
X154557877Y-85862867D01*
X154586686Y-85895955D01*
X154596498Y-85884156D01*
X154585051Y-85839017D01*
X154582862Y-85834287D01*
X154647323Y-85834287D01*
X154669720Y-85862864D01*
X154676756Y-85863720D01*
X154691472Y-85852186D01*
X154705332Y-85841322D01*
X154706188Y-85834287D01*
X154683791Y-85805710D01*
X154676756Y-85804855D01*
X154648179Y-85827252D01*
X154647323Y-85834287D01*
X154582862Y-85834287D01*
X154569239Y-85804855D01*
X154542398Y-85766241D01*
X154530514Y-85773588D01*
X154530479Y-85775423D01*
X151176729Y-85775423D01*
X151117385Y-85687126D01*
X154235272Y-85687126D01*
X154257669Y-85715703D01*
X154264705Y-85716559D01*
X154293281Y-85694161D01*
X154294137Y-85687126D01*
X154271740Y-85658549D01*
X154264705Y-85657694D01*
X154236128Y-85680091D01*
X154235272Y-85687126D01*
X151117385Y-85687126D01*
X151080146Y-85631720D01*
X151069680Y-85619638D01*
X154532723Y-85619638D01*
X154532979Y-85642978D01*
X154537527Y-85676294D01*
X154542398Y-85668271D01*
X154549461Y-85656637D01*
X154559027Y-85628262D01*
X154578674Y-85583292D01*
X154589713Y-85594625D01*
X154591198Y-85660200D01*
X154589359Y-85694484D01*
X154596347Y-85754060D01*
X154603175Y-85760538D01*
X154618864Y-85775423D01*
X154640700Y-85751345D01*
X154636629Y-85716559D01*
X154676756Y-85716559D01*
X154687524Y-85740785D01*
X154696377Y-85736180D01*
X154699899Y-85701251D01*
X154696377Y-85696937D01*
X154678880Y-85700977D01*
X154676756Y-85716559D01*
X154636629Y-85716559D01*
X154634618Y-85699376D01*
X154627503Y-85647303D01*
X154646510Y-85642687D01*
X154651172Y-85645357D01*
X154660515Y-85640975D01*
X154637248Y-85601633D01*
X154630278Y-85592146D01*
X154580785Y-85546806D01*
X154546623Y-85556829D01*
X154532723Y-85619638D01*
X151069680Y-85619638D01*
X151001487Y-85540920D01*
X150920430Y-85456121D01*
X150884578Y-85408986D01*
X150893974Y-85399472D01*
X150948662Y-85427536D01*
X151048686Y-85493138D01*
X151049690Y-85493828D01*
X151196552Y-85594852D01*
X151281092Y-85504822D01*
X151358957Y-85438616D01*
X151361520Y-85436952D01*
X153440603Y-85436952D01*
X153455319Y-85451669D01*
X153470035Y-85436952D01*
X154529594Y-85436952D01*
X154544311Y-85451669D01*
X154559027Y-85436952D01*
X154544311Y-85422236D01*
X154529594Y-85436952D01*
X153470035Y-85436952D01*
X153455319Y-85422236D01*
X153440603Y-85436952D01*
X151361520Y-85436952D01*
X151406862Y-85407520D01*
X153381738Y-85407520D01*
X153396454Y-85422236D01*
X153411170Y-85407520D01*
X153396454Y-85392804D01*
X153381738Y-85407520D01*
X151406862Y-85407520D01*
X151452203Y-85378088D01*
X153322874Y-85378088D01*
X153337590Y-85392804D01*
X153352306Y-85378088D01*
X153337590Y-85363372D01*
X153322874Y-85378088D01*
X151452203Y-85378088D01*
X151461052Y-85372344D01*
X151507002Y-85348257D01*
X153442905Y-85348257D01*
X153455319Y-85361103D01*
X153480714Y-85387383D01*
X153492109Y-85396558D01*
X153514183Y-85412676D01*
X153526971Y-85422013D01*
X153519663Y-85406771D01*
X153503221Y-85385446D01*
X153466914Y-85344684D01*
X153451715Y-85333940D01*
X153442905Y-85348257D01*
X151507002Y-85348257D01*
X151511548Y-85345874D01*
X151512793Y-85345221D01*
X151567783Y-85319224D01*
X153381738Y-85319224D01*
X153396454Y-85333940D01*
X153411170Y-85319224D01*
X153396454Y-85304508D01*
X153381738Y-85319224D01*
X151567783Y-85319224D01*
X151617542Y-85295700D01*
X151634397Y-85287732D01*
X153485321Y-85287732D01*
X153513008Y-85336555D01*
X153519310Y-85344220D01*
X153543615Y-85373896D01*
X153559482Y-85393269D01*
X153573048Y-85411383D01*
X153577097Y-85416789D01*
X153579120Y-85399234D01*
X153578682Y-85387714D01*
X154294137Y-85387714D01*
X154308853Y-85401265D01*
X154318323Y-85409986D01*
X154338285Y-85409766D01*
X154360359Y-85409523D01*
X154361339Y-85409350D01*
X154420744Y-85398837D01*
X154446052Y-85394991D01*
X154452699Y-85383825D01*
X154457471Y-85375808D01*
X154450922Y-85315780D01*
X154442571Y-85275075D01*
X154424271Y-85283844D01*
X154385108Y-85325330D01*
X154340983Y-85366093D01*
X154312507Y-85371931D01*
X154295553Y-85376016D01*
X154294137Y-85387714D01*
X153578682Y-85387714D01*
X153577411Y-85354321D01*
X153561809Y-85301789D01*
X153531429Y-85298548D01*
X153504738Y-85299242D01*
X153513902Y-85275529D01*
X153522125Y-85250525D01*
X153502097Y-85258734D01*
X153485321Y-85287732D01*
X151634397Y-85287732D01*
X151659954Y-85275650D01*
X151555806Y-85275363D01*
X151461153Y-85289167D01*
X151357843Y-85323717D01*
X151336199Y-85333940D01*
X151257514Y-85373666D01*
X151218325Y-85387201D01*
X151204957Y-85373607D01*
X151203734Y-85331945D01*
X151203754Y-85324849D01*
X151194877Y-85260359D01*
X153322874Y-85260359D01*
X153337590Y-85275075D01*
X153352306Y-85260359D01*
X153337590Y-85245643D01*
X153322874Y-85260359D01*
X151194877Y-85260359D01*
X151192879Y-85245848D01*
X151182144Y-85230927D01*
X153440603Y-85230927D01*
X153451715Y-85242039D01*
X153455319Y-85245643D01*
X153470035Y-85230927D01*
X153455319Y-85216211D01*
X153440603Y-85230927D01*
X151182144Y-85230927D01*
X151162993Y-85204309D01*
X153531860Y-85204309D01*
X153541830Y-85210566D01*
X153558331Y-85201495D01*
X153586315Y-85158511D01*
X153587313Y-85148251D01*
X153575822Y-85136645D01*
X153558331Y-85157346D01*
X153531860Y-85204309D01*
X151162993Y-85204309D01*
X151154300Y-85192226D01*
X151079082Y-85158602D01*
X150958294Y-85139591D01*
X150887795Y-85134433D01*
X150770243Y-85130519D01*
X150667465Y-85135816D01*
X150560017Y-85153060D01*
X150428451Y-85184987D01*
X150325760Y-85213491D01*
X150007812Y-85312708D01*
X149697288Y-85428565D01*
X149374351Y-85568879D01*
X149143596Y-85679262D01*
X148985618Y-85760054D01*
X148863979Y-85831197D01*
X148760552Y-85905372D01*
X148657211Y-85995259D01*
X148566428Y-86083022D01*
X148444503Y-86209293D01*
X148353484Y-86319383D01*
X148278370Y-86433958D01*
X148204162Y-86573682D01*
X148191480Y-86599525D01*
X148083380Y-86846402D01*
X147996075Y-87096517D01*
X147931792Y-87339559D01*
X147892759Y-87565217D01*
X147881203Y-87763181D01*
X147899350Y-87923140D01*
X147902756Y-87936187D01*
X147919463Y-88006264D01*
X147915865Y-88027878D01*
X147900346Y-88017044D01*
X147866610Y-87947558D01*
X147851429Y-87832393D01*
X147853718Y-87681362D01*
X147872390Y-87504277D01*
X147906358Y-87310950D01*
X147954536Y-87111193D01*
X148015838Y-86914818D01*
X148025290Y-86888474D01*
X148110544Y-86654871D01*
X148016303Y-86663988D01*
X147961953Y-86676406D01*
X147913462Y-86709012D01*
X147858918Y-86772612D01*
X147795385Y-86864415D01*
X147718892Y-86984925D01*
X147631802Y-87129649D01*
X147550849Y-87270666D01*
X147537853Y-87294167D01*
X147473866Y-87415298D01*
X147434832Y-87505771D01*
X147414804Y-87585031D01*
X147407840Y-87672526D01*
X147407386Y-87720934D01*
X147419732Y-87904546D01*
X147453065Y-88119063D01*
X147502818Y-88342364D01*
X147564423Y-88552327D01*
X147598264Y-88645446D01*
X147627740Y-88717784D01*
X147639684Y-88747096D01*
X147674506Y-88826208D01*
X147696023Y-88867653D01*
X147697645Y-88869642D01*
X147732317Y-88877923D01*
X147814370Y-88887578D01*
X147932371Y-88897529D01*
X148074887Y-88906695D01*
X148110186Y-88908592D01*
X148216385Y-88914088D01*
X148245817Y-88915611D01*
X148504335Y-88928990D01*
X148373264Y-88779156D01*
X148300439Y-88687723D01*
X148216060Y-88569336D01*
X148129468Y-88438600D01*
X148050002Y-88310122D01*
X147987003Y-88198508D01*
X147949811Y-88118365D01*
X147948742Y-88115284D01*
X147954024Y-88112935D01*
X147984130Y-88153484D01*
X148033713Y-88229282D01*
X148076251Y-88297750D01*
X148269926Y-88590275D01*
X148465304Y-88833411D01*
X148670793Y-89036253D01*
X148894799Y-89207894D01*
X148952672Y-89245724D01*
X149023882Y-89293835D01*
X149063797Y-89326818D01*
X149065581Y-89336721D01*
X149028633Y-89320491D01*
X148958686Y-89278193D01*
X148869578Y-89219417D01*
X148775146Y-89153749D01*
X148689227Y-89090778D01*
X148625660Y-89040092D01*
X148599498Y-89013767D01*
X148559083Y-88991506D01*
X148498822Y-88983534D01*
X148416830Y-88983534D01*
X148422410Y-88999973D01*
X148451842Y-89086682D01*
X148474274Y-89152769D01*
X148514501Y-89332540D01*
X148518729Y-89514974D01*
X148489746Y-89687575D01*
X148430337Y-89837845D01*
X148343289Y-89953285D01*
X148286175Y-89996502D01*
X148186605Y-90029916D01*
X148048993Y-90041723D01*
X147889939Y-90032217D01*
X147726040Y-90001693D01*
X147668970Y-89985591D01*
X147617311Y-89969513D01*
X148201669Y-89969513D01*
X148216385Y-89984229D01*
X148231101Y-89969513D01*
X148216385Y-89954797D01*
X148201669Y-89969513D01*
X147617311Y-89969513D01*
X147484214Y-89928089D01*
X147439627Y-89992949D01*
X147376577Y-90071100D01*
X147302467Y-90144136D01*
X147232902Y-90198263D01*
X147183488Y-90219685D01*
X147183145Y-90219687D01*
X147153626Y-90221898D01*
X147145686Y-90238176D01*
X147159676Y-90282993D01*
X147180291Y-90333093D01*
X147186257Y-90347592D01*
X147222874Y-90493547D01*
X147230706Y-90673899D01*
X147211449Y-90872687D01*
X147166797Y-91073951D01*
X147098446Y-91261728D01*
X147086433Y-91287376D01*
X146980624Y-91456645D01*
X146826618Y-91633876D01*
X146633056Y-91811725D01*
X146408580Y-91982846D01*
X146161832Y-92139895D01*
X145952059Y-92251510D01*
X145840884Y-92301157D01*
X145685286Y-92364489D01*
X145496861Y-92437109D01*
X145287205Y-92514620D01*
X145067914Y-92592626D01*
X144905261Y-92648418D01*
X144637898Y-92740041D01*
X144415927Y-92819865D01*
X144228180Y-92892399D01*
X144063487Y-92962155D01*
X143910681Y-93033644D01*
X143758594Y-93111375D01*
X143757404Y-93112005D01*
X143490288Y-93252558D01*
X143265713Y-93368005D01*
X143074979Y-93462209D01*
X142909386Y-93539033D01*
X142760233Y-93602341D01*
X142618821Y-93655997D01*
X142476448Y-93703865D01*
X142324415Y-93749808D01*
X142315226Y-93752464D01*
X142150234Y-93797896D01*
X141990743Y-93837982D01*
X141852007Y-93869145D01*
X141749277Y-93887810D01*
X141725933Y-93890612D01*
X141492701Y-93885076D01*
X141248935Y-93829088D01*
X141050539Y-93747355D01*
X140873048Y-93658662D01*
X140873048Y-92530116D01*
X145081854Y-92530116D01*
X145096570Y-92544832D01*
X145111286Y-92530116D01*
X145096570Y-92515400D01*
X145081854Y-92530116D01*
X140873048Y-92530116D01*
X140873048Y-92501195D01*
X145148231Y-92501195D01*
X145149892Y-92504952D01*
X145182595Y-92504155D01*
X145232100Y-92488465D01*
X145272273Y-92467589D01*
X145268213Y-92458401D01*
X145218311Y-92464897D01*
X145169994Y-92482436D01*
X145148231Y-92501195D01*
X140873048Y-92501195D01*
X140873048Y-92446221D01*
X145331428Y-92446221D01*
X145335346Y-92453371D01*
X145360449Y-92448397D01*
X145368003Y-92434278D01*
X145393804Y-92409247D01*
X145404940Y-92411974D01*
X145444153Y-92411054D01*
X145517520Y-92392331D01*
X145564927Y-92376145D01*
X145654206Y-92334777D01*
X145686972Y-92297252D01*
X145685505Y-92284801D01*
X145687208Y-92257317D01*
X145721671Y-92263693D01*
X145754804Y-92271572D01*
X145740516Y-92250162D01*
X145701769Y-92235849D01*
X145637210Y-92255817D01*
X145599266Y-92274916D01*
X145537085Y-92315371D01*
X145522173Y-92342809D01*
X145529249Y-92348264D01*
X145534418Y-92360859D01*
X145501319Y-92370722D01*
X145450527Y-92373445D01*
X145424584Y-92370691D01*
X145384307Y-92381791D01*
X145345951Y-92413734D01*
X145331428Y-92446221D01*
X140873048Y-92446221D01*
X140873048Y-92191453D01*
X145782130Y-92191453D01*
X145784704Y-92214920D01*
X145786152Y-92215481D01*
X145804967Y-92243370D01*
X145801081Y-92253523D01*
X145813079Y-92259752D01*
X145863458Y-92242523D01*
X145888535Y-92231156D01*
X145954185Y-92193625D01*
X145971256Y-92162813D01*
X145960557Y-92142360D01*
X145916156Y-92108180D01*
X145897312Y-92103349D01*
X145855184Y-92118770D01*
X145811207Y-92153771D01*
X145782130Y-92191453D01*
X140873048Y-92191453D01*
X140873048Y-92082072D01*
X145970499Y-92082072D01*
X145993177Y-92115642D01*
X146030635Y-92146132D01*
X146047197Y-92135825D01*
X146074605Y-92115839D01*
X146085063Y-92119619D01*
X146107672Y-92110880D01*
X146111981Y-92086766D01*
X146103958Y-92054181D01*
X146071385Y-92070983D01*
X146069122Y-92072847D01*
X146015515Y-92092212D01*
X145988184Y-92085517D01*
X145970499Y-92082072D01*
X140873048Y-92082072D01*
X140873048Y-92057064D01*
X146023685Y-92057064D01*
X146039314Y-92065838D01*
X146056704Y-92052671D01*
X146099441Y-92033155D01*
X146103958Y-92033977D01*
X146140764Y-92040677D01*
X146156674Y-92068013D01*
X146151605Y-92081237D01*
X146160590Y-92088309D01*
X146206385Y-92067925D01*
X146223754Y-92058037D01*
X146278939Y-92015893D01*
X146298769Y-91980627D01*
X146297143Y-91975672D01*
X146299136Y-91961369D01*
X146312829Y-91967704D01*
X146355412Y-91966176D01*
X146414070Y-91936278D01*
X146469619Y-91892228D01*
X146502874Y-91848246D01*
X146503442Y-91826420D01*
X146499962Y-91809343D01*
X146508467Y-91815349D01*
X146551876Y-91822578D01*
X146599041Y-91796236D01*
X146624753Y-91753995D01*
X146622865Y-91735166D01*
X146593014Y-91707062D01*
X146575265Y-91710730D01*
X146558560Y-91711188D01*
X146566254Y-91694416D01*
X146594987Y-91673878D01*
X146630730Y-91694356D01*
X146666998Y-91709362D01*
X146711995Y-91688813D01*
X146763244Y-91644278D01*
X146824170Y-91581667D01*
X146881054Y-91515578D01*
X146925651Y-91457058D01*
X146949718Y-91417155D01*
X146945012Y-91406916D01*
X146937419Y-91410866D01*
X146892585Y-91408453D01*
X146828942Y-91354532D01*
X146811804Y-91335242D01*
X146753209Y-91277184D01*
X146717334Y-91263910D01*
X146711114Y-91270920D01*
X146686125Y-91316587D01*
X146641719Y-91386921D01*
X146625802Y-91410723D01*
X146590136Y-91473256D01*
X146582073Y-91510326D01*
X146588689Y-91514705D01*
X146605987Y-91528235D01*
X146600066Y-91536779D01*
X146559919Y-91558466D01*
X146555303Y-91558853D01*
X146523696Y-91579387D01*
X146472783Y-91630563D01*
X146456204Y-91649662D01*
X146409460Y-91710559D01*
X146399163Y-91748152D01*
X146420975Y-91781580D01*
X146425305Y-91785982D01*
X146453632Y-91826863D01*
X146434013Y-91854240D01*
X146410868Y-91860414D01*
X146416952Y-91845040D01*
X146425518Y-91805508D01*
X146397946Y-91791862D01*
X146351255Y-91804703D01*
X146305456Y-91841101D01*
X146237797Y-91901991D01*
X146150301Y-91961042D01*
X146133684Y-91970239D01*
X146065672Y-92012391D01*
X146027030Y-92048298D01*
X146023685Y-92057064D01*
X140873048Y-92057064D01*
X140873048Y-90330205D01*
X141370398Y-90330205D01*
X141387210Y-90434754D01*
X141390151Y-90448767D01*
X141413188Y-90549475D01*
X141434809Y-90631643D01*
X141446102Y-90666253D01*
X141482667Y-90716433D01*
X141503521Y-90729788D01*
X141525947Y-90718687D01*
X141528197Y-90672490D01*
X141512989Y-90610330D01*
X141483043Y-90551340D01*
X141477039Y-90543441D01*
X141438798Y-90483723D01*
X141418488Y-90428659D01*
X141422590Y-90397882D01*
X141428459Y-90396280D01*
X141456406Y-90420082D01*
X141487590Y-90473858D01*
X141514850Y-90525886D01*
X141536982Y-90528640D01*
X141564959Y-90495933D01*
X141587418Y-90471921D01*
X141600215Y-90480268D01*
X141606126Y-90529746D01*
X141607927Y-90629123D01*
X141607940Y-90631738D01*
X141616640Y-90768288D01*
X141646401Y-90888698D01*
X141697173Y-91009642D01*
X141741359Y-91108045D01*
X141773022Y-91188104D01*
X141785440Y-91232794D01*
X141785446Y-91233238D01*
X141804035Y-91286625D01*
X141847689Y-91340602D01*
X141898235Y-91377356D01*
X141935593Y-91380414D01*
X141957082Y-91375137D01*
X141947268Y-91397064D01*
X141942220Y-91423222D01*
X141983365Y-91419984D01*
X141986910Y-91419073D01*
X142029514Y-91415889D01*
X142033924Y-91429153D01*
X142048364Y-91445353D01*
X142107698Y-91453874D01*
X142198515Y-91455155D01*
X142307409Y-91449635D01*
X142420968Y-91437754D01*
X142525785Y-91419949D01*
X142559711Y-91411937D01*
X142836443Y-91312219D01*
X143093387Y-91170611D01*
X144610939Y-91170611D01*
X144626791Y-91220777D01*
X144669504Y-91305375D01*
X144731808Y-91410874D01*
X144779543Y-91484505D01*
X144925598Y-91689171D01*
X145053444Y-91840151D01*
X145096570Y-91878259D01*
X145165278Y-91938973D01*
X145263297Y-91987167D01*
X145268213Y-91987115D01*
X145349696Y-91986261D01*
X145426673Y-91937784D01*
X145428378Y-91936093D01*
X145471225Y-91885618D01*
X145488662Y-91833416D01*
X145486230Y-91756125D01*
X145481069Y-91713961D01*
X145460702Y-91608063D01*
X145432123Y-91513052D01*
X145418700Y-91482131D01*
X145381655Y-91388395D01*
X145386759Y-91321818D01*
X145424989Y-91275493D01*
X145472935Y-91215794D01*
X145523085Y-91124571D01*
X145526626Y-91116014D01*
X146768868Y-91116014D01*
X146788922Y-91134777D01*
X146814790Y-91165102D01*
X146798120Y-91180314D01*
X146786273Y-91206860D01*
X146820194Y-91251654D01*
X146868280Y-91292818D01*
X146896003Y-91306165D01*
X146925799Y-91325134D01*
X146938925Y-91342709D01*
X146968677Y-91364434D01*
X147003440Y-91336819D01*
X147045619Y-91256827D01*
X147083853Y-91159853D01*
X147119253Y-91062146D01*
X147136446Y-91008930D01*
X147137405Y-90989397D01*
X147124101Y-90992742D01*
X147113143Y-90999353D01*
X147085033Y-91037711D01*
X147056228Y-91106431D01*
X147054617Y-91111461D01*
X147036069Y-91168801D01*
X147030690Y-91174589D01*
X147036520Y-91126015D01*
X147041312Y-91092398D01*
X147046066Y-91020122D01*
X147034258Y-90994914D01*
X147029002Y-90996784D01*
X147012573Y-90988638D01*
X147017354Y-90949751D01*
X147031844Y-90904965D01*
X147045442Y-90915148D01*
X147056688Y-90942352D01*
X147074764Y-90976113D01*
X147084245Y-90959684D01*
X147085848Y-90889859D01*
X147083424Y-90823048D01*
X147084146Y-90754524D01*
X147092558Y-90723338D01*
X147097171Y-90724370D01*
X147111489Y-90764633D01*
X147119044Y-90834972D01*
X147119068Y-90835790D01*
X147128245Y-90902465D01*
X147145673Y-90940935D01*
X147162827Y-90942175D01*
X147171185Y-90897161D01*
X147171217Y-90891007D01*
X147165226Y-90797045D01*
X147150685Y-90705669D01*
X147131462Y-90634890D01*
X147129499Y-90631738D01*
X147176188Y-90631738D01*
X147180814Y-90673521D01*
X147191034Y-90668528D01*
X147194921Y-90608270D01*
X147191034Y-90594948D01*
X147180291Y-90591250D01*
X147176188Y-90631738D01*
X147129499Y-90631738D01*
X147111430Y-90602717D01*
X147109174Y-90602306D01*
X147089216Y-90628294D01*
X147070046Y-90693216D01*
X147065203Y-90719479D01*
X147047079Y-90787721D01*
X147019929Y-90848027D01*
X146991935Y-90887978D01*
X146971276Y-90895157D01*
X146965516Y-90870800D01*
X146983341Y-90839351D01*
X146991186Y-90837764D01*
X147017002Y-90811564D01*
X147032156Y-90744278D01*
X147035706Y-90652875D01*
X147026714Y-90554325D01*
X147024223Y-90543441D01*
X147083245Y-90543441D01*
X147094013Y-90567668D01*
X147102866Y-90563063D01*
X147106388Y-90528134D01*
X147102866Y-90523820D01*
X147085369Y-90527860D01*
X147083245Y-90543441D01*
X147024223Y-90543441D01*
X147010754Y-90484577D01*
X146986153Y-90409431D01*
X146973517Y-90386567D01*
X146968507Y-90411706D01*
X146967485Y-90441900D01*
X146975723Y-90516087D01*
X146997001Y-90563154D01*
X147014266Y-90615793D01*
X147007994Y-90703867D01*
X147007895Y-90704396D01*
X146989398Y-90770337D01*
X146969825Y-90783678D01*
X146964808Y-90777754D01*
X146950600Y-90782888D01*
X146937768Y-90835955D01*
X146930918Y-90899930D01*
X146929468Y-91009044D01*
X146936083Y-91034742D01*
X146945784Y-91072428D01*
X146961732Y-91090830D01*
X146987330Y-91136203D01*
X146980958Y-91160344D01*
X146981012Y-91205880D01*
X146998535Y-91223222D01*
X147018093Y-91244939D01*
X147007436Y-91249364D01*
X146967022Y-91229997D01*
X146912554Y-91182489D01*
X146909833Y-91179621D01*
X146872134Y-91132086D01*
X146906651Y-91132086D01*
X146929048Y-91160663D01*
X146936083Y-91161518D01*
X146964660Y-91139121D01*
X146965516Y-91132086D01*
X146943118Y-91103509D01*
X146936083Y-91102654D01*
X146907506Y-91125051D01*
X146906651Y-91132086D01*
X146872134Y-91132086D01*
X146871382Y-91131138D01*
X146857153Y-91081014D01*
X146863087Y-91006459D01*
X146870888Y-90960884D01*
X146882440Y-90868949D01*
X146882030Y-90798796D01*
X146876158Y-90777183D01*
X146862052Y-90784803D01*
X146846441Y-90839113D01*
X146833503Y-90922340D01*
X146816929Y-91021192D01*
X146795852Y-91085557D01*
X146778674Y-91103104D01*
X146768868Y-91116014D01*
X145526626Y-91116014D01*
X145563297Y-91027390D01*
X145581428Y-90949814D01*
X145581555Y-90945870D01*
X145562215Y-90891935D01*
X145513304Y-90824296D01*
X145496169Y-90806067D01*
X145394203Y-90738450D01*
X145271294Y-90721188D01*
X145123403Y-90754138D01*
X145037706Y-90789925D01*
X144923752Y-90853670D01*
X144812558Y-90932987D01*
X144715769Y-91017486D01*
X144645033Y-91096779D01*
X144611997Y-91160475D01*
X144610939Y-91170611D01*
X143093387Y-91170611D01*
X143118681Y-91156671D01*
X143402665Y-90947594D01*
X143588169Y-90782404D01*
X143693969Y-90678196D01*
X143767754Y-90598618D01*
X143807488Y-90546997D01*
X143808125Y-90543441D01*
X146852434Y-90543441D01*
X146857059Y-90585224D01*
X146867279Y-90580232D01*
X146871167Y-90519974D01*
X146867279Y-90506651D01*
X146856537Y-90502954D01*
X146852434Y-90543441D01*
X143808125Y-90543441D01*
X143811131Y-90526659D01*
X143776649Y-90540930D01*
X143705898Y-90590192D01*
X143650238Y-90628463D01*
X143630428Y-90633689D01*
X143639676Y-90618068D01*
X143685097Y-90575806D01*
X143764736Y-90514719D01*
X143862705Y-90446876D01*
X143879516Y-90435878D01*
X143993789Y-90355424D01*
X143998808Y-90350645D01*
X146866742Y-90350645D01*
X146876483Y-90356792D01*
X146896023Y-90393242D01*
X146906225Y-90464509D01*
X146906651Y-90483426D01*
X146918096Y-90569257D01*
X146946849Y-90628053D01*
X146950800Y-90631738D01*
X146987371Y-90651439D01*
X146994948Y-90635342D01*
X146975726Y-90603909D01*
X146967208Y-90602306D01*
X146948196Y-90576096D01*
X146933579Y-90510320D01*
X146930418Y-90479506D01*
X146916356Y-90399266D01*
X146892187Y-90353657D01*
X147031889Y-90353657D01*
X147050083Y-90354735D01*
X147069194Y-90347804D01*
X147105803Y-90341975D01*
X147102945Y-90358783D01*
X147101860Y-90404356D01*
X147102866Y-90407157D01*
X147125929Y-90471360D01*
X147127368Y-90474156D01*
X147156885Y-90518973D01*
X147170677Y-90516644D01*
X147168625Y-90476783D01*
X147150609Y-90409002D01*
X147128895Y-90351187D01*
X147091624Y-90290789D01*
X147079615Y-90280622D01*
X147080817Y-90277869D01*
X147077412Y-90278757D01*
X147079615Y-90280622D01*
X147071170Y-90299962D01*
X147057007Y-90317863D01*
X147031889Y-90353657D01*
X146892187Y-90353657D01*
X146892092Y-90353478D01*
X146883841Y-90349269D01*
X146866742Y-90350645D01*
X143998808Y-90350645D01*
X144059061Y-90293268D01*
X146847787Y-90293268D01*
X146856537Y-90302018D01*
X146862503Y-90307984D01*
X146877219Y-90293268D01*
X146862503Y-90278552D01*
X146847787Y-90293268D01*
X144059061Y-90293268D01*
X144074774Y-90278305D01*
X144075257Y-90277628D01*
X146994948Y-90277628D01*
X147017091Y-90292717D01*
X147046454Y-90286833D01*
X147077412Y-90278757D01*
X147047245Y-90253220D01*
X147010204Y-90246414D01*
X146994948Y-90277628D01*
X144075257Y-90277628D01*
X144142615Y-90183151D01*
X144146996Y-90175539D01*
X147024380Y-90175539D01*
X147039096Y-90190255D01*
X147053812Y-90175539D01*
X147039096Y-90160823D01*
X147024380Y-90175539D01*
X144146996Y-90175539D01*
X144163936Y-90146107D01*
X147142109Y-90146107D01*
X147156825Y-90160823D01*
X147171541Y-90146107D01*
X147156825Y-90131390D01*
X147142109Y-90146107D01*
X144163936Y-90146107D01*
X144181701Y-90115242D01*
X144198097Y-90087242D01*
X147230406Y-90087242D01*
X147245122Y-90101958D01*
X147259838Y-90087242D01*
X147245122Y-90072526D01*
X147230406Y-90087242D01*
X144198097Y-90087242D01*
X144254496Y-89990925D01*
X144305821Y-89910649D01*
X147613024Y-89910649D01*
X147627740Y-89925365D01*
X147642457Y-89910649D01*
X148231101Y-89910649D01*
X148245817Y-89925365D01*
X148260533Y-89910649D01*
X148245817Y-89895933D01*
X148231101Y-89910649D01*
X147642457Y-89910649D01*
X147627740Y-89895933D01*
X147613024Y-89910649D01*
X144305821Y-89910649D01*
X144337255Y-89861485D01*
X144364602Y-89822352D01*
X147377567Y-89822352D01*
X147392283Y-89837068D01*
X147406999Y-89822352D01*
X147392283Y-89807636D01*
X147377567Y-89822352D01*
X144364602Y-89822352D01*
X144401944Y-89768915D01*
X144425383Y-89734056D01*
X148407694Y-89734056D01*
X148422410Y-89748772D01*
X148437126Y-89734056D01*
X148422410Y-89719340D01*
X148407694Y-89734056D01*
X144425383Y-89734056D01*
X144467653Y-89671192D01*
X144505914Y-89586895D01*
X148437126Y-89586895D01*
X148451842Y-89601611D01*
X148466559Y-89586895D01*
X148451842Y-89572178D01*
X148437126Y-89586895D01*
X144505914Y-89586895D01*
X144509695Y-89578564D01*
X144530864Y-89476028D01*
X144533955Y-89348583D01*
X144521765Y-89181230D01*
X144518132Y-89145411D01*
X144497453Y-88972721D01*
X144529642Y-88972721D01*
X144534894Y-88993299D01*
X144547649Y-89061624D01*
X144553010Y-89140460D01*
X144555814Y-89201480D01*
X144568118Y-89210621D01*
X144597159Y-89176576D01*
X144632398Y-89121731D01*
X144631823Y-89079191D01*
X144592809Y-89024632D01*
X144579043Y-89008869D01*
X144539401Y-88968205D01*
X144529642Y-88972721D01*
X144497453Y-88972721D01*
X144497354Y-88971891D01*
X144474139Y-88845916D01*
X144444263Y-88756191D01*
X144403501Y-88691424D01*
X144347630Y-88640322D01*
X144322706Y-88622897D01*
X144244713Y-88563236D01*
X144149069Y-88479199D01*
X144065153Y-88397679D01*
X143966770Y-88307024D01*
X143894218Y-88266771D01*
X143843366Y-88276652D01*
X143810085Y-88336399D01*
X143799558Y-88380457D01*
X143792130Y-88482608D01*
X143816616Y-88573522D01*
X143879544Y-88669053D01*
X143950963Y-88748196D01*
X144019909Y-88823521D01*
X144051727Y-88872596D01*
X144060586Y-88886260D01*
X144082810Y-88958927D01*
X144096392Y-89064037D01*
X144098553Y-89086811D01*
X144117703Y-89292862D01*
X144003776Y-89412501D01*
X143926765Y-89493625D01*
X143829029Y-89596925D01*
X143730161Y-89701690D01*
X143718530Y-89714036D01*
X143621807Y-89814539D01*
X143559680Y-89873175D01*
X143528430Y-89892766D01*
X143524339Y-89876134D01*
X143530784Y-89856492D01*
X143529748Y-89834199D01*
X143494301Y-89831514D01*
X143418681Y-89846168D01*
X143352117Y-89859302D01*
X143301870Y-89857743D01*
X143251268Y-89835164D01*
X143183639Y-89785236D01*
X143119731Y-89732693D01*
X142964942Y-89601153D01*
X142921100Y-89561062D01*
X143016765Y-89561062D01*
X143053416Y-89610030D01*
X143120101Y-89676360D01*
X143224700Y-89761374D01*
X143308058Y-89802080D01*
X143348522Y-89807636D01*
X143488680Y-89779615D01*
X143640001Y-89697209D01*
X143798457Y-89562903D01*
X143872721Y-89484279D01*
X143965255Y-89374873D01*
X144021160Y-89293721D01*
X144047354Y-89229471D01*
X144051727Y-89190467D01*
X144051727Y-89098068D01*
X143798779Y-89295584D01*
X143698608Y-89372594D01*
X143616819Y-89428915D01*
X143540748Y-89468565D01*
X143457729Y-89495559D01*
X143355096Y-89513915D01*
X143220185Y-89527650D01*
X143040331Y-89540780D01*
X143021599Y-89542063D01*
X143016765Y-89561062D01*
X142921100Y-89561062D01*
X142835806Y-89483065D01*
X142718361Y-89364069D01*
X142598646Y-89229807D01*
X142462700Y-89065918D01*
X142419988Y-89012966D01*
X142238190Y-88790795D01*
X142087069Y-88615101D01*
X141967134Y-88486419D01*
X141878891Y-88405282D01*
X141822849Y-88372223D01*
X141810228Y-88372333D01*
X141781097Y-88410401D01*
X141775476Y-88484387D01*
X141794416Y-88575801D01*
X141798071Y-88586199D01*
X141811601Y-88626777D01*
X141800391Y-88620720D01*
X141773133Y-88587932D01*
X141738609Y-88548881D01*
X141727534Y-88556979D01*
X141726582Y-88592141D01*
X141745088Y-88649308D01*
X141770234Y-88670233D01*
X141770730Y-88670851D01*
X141799675Y-88706933D01*
X141797102Y-88730722D01*
X141796563Y-88776879D01*
X141824134Y-88848134D01*
X141882797Y-88949997D01*
X141975531Y-89087972D01*
X142037502Y-89174844D01*
X142121848Y-89293344D01*
X142222288Y-89437289D01*
X142322402Y-89583057D01*
X142364860Y-89645759D01*
X142444968Y-89761249D01*
X142520112Y-89863398D01*
X142580293Y-89938932D01*
X142608520Y-89969184D01*
X142667855Y-90033316D01*
X142704008Y-90086913D01*
X142699663Y-90097011D01*
X142661297Y-90071128D01*
X142596632Y-90014782D01*
X142576195Y-89995567D01*
X142402485Y-89835785D01*
X142259783Y-89719487D01*
X142141997Y-89644450D01*
X142043038Y-89608454D01*
X141956818Y-89609277D01*
X141877245Y-89644699D01*
X141798733Y-89711981D01*
X141705269Y-89815314D01*
X141659096Y-89884481D01*
X141659935Y-89919990D01*
X141681398Y-89925365D01*
X141721251Y-89939138D01*
X141726582Y-89951340D01*
X141750177Y-89980560D01*
X141811944Y-90029192D01*
X141898357Y-90088502D01*
X141995888Y-90149754D01*
X142091010Y-90204213D01*
X142170198Y-90243147D01*
X142191139Y-90251313D01*
X142254899Y-90280614D01*
X142285359Y-90308524D01*
X142285794Y-90311258D01*
X142262868Y-90321086D01*
X142199355Y-90301288D01*
X142103154Y-90255619D01*
X141982163Y-90187834D01*
X141844281Y-90101688D01*
X141842605Y-90100590D01*
X141740748Y-90035885D01*
X141656133Y-89985920D01*
X141601599Y-89958109D01*
X141590203Y-89954797D01*
X141542551Y-89978713D01*
X141483413Y-90039727D01*
X141426502Y-90121742D01*
X141394886Y-90184087D01*
X141372812Y-90254700D01*
X141370398Y-90330205D01*
X140873048Y-90330205D01*
X140873048Y-88703928D01*
X141756014Y-88703928D01*
X141770730Y-88718644D01*
X141785446Y-88703928D01*
X141770730Y-88689212D01*
X141756014Y-88703928D01*
X140873048Y-88703928D01*
X140873048Y-87762097D01*
X141726582Y-87762097D01*
X141741298Y-87776813D01*
X141756014Y-87762097D01*
X141741298Y-87747381D01*
X141726582Y-87762097D01*
X140873048Y-87762097D01*
X140873048Y-87640452D01*
X140873048Y-86137618D01*
X141464516Y-86137618D01*
X141493346Y-86207193D01*
X141547081Y-86272658D01*
X141605648Y-86329259D01*
X141649883Y-86361341D01*
X141658805Y-86364067D01*
X141694216Y-86349470D01*
X141741298Y-86323990D01*
X141766246Y-86310488D01*
X141861848Y-86254334D01*
X141904528Y-86228208D01*
X142027848Y-86156298D01*
X142150506Y-86092358D01*
X142258514Y-86043017D01*
X142337882Y-86014907D01*
X142363075Y-86010881D01*
X142379583Y-86024680D01*
X142360767Y-86054221D01*
X142319687Y-86081717D01*
X142307868Y-86086066D01*
X142252041Y-86111680D01*
X142164956Y-86160859D01*
X142063833Y-86223782D01*
X142046378Y-86235211D01*
X141950758Y-86295895D01*
X141872390Y-86341208D01*
X141825289Y-86363161D01*
X141820262Y-86364067D01*
X141785148Y-86388774D01*
X141767984Y-86446788D01*
X141773975Y-86513949D01*
X141783152Y-86536374D01*
X141825034Y-86591723D01*
X141890653Y-86657557D01*
X141907869Y-86672538D01*
X141985629Y-86725678D01*
X142055299Y-86738941D01*
X142090171Y-86734304D01*
X142169273Y-86702825D01*
X142277654Y-86638248D01*
X142403016Y-86549147D01*
X142507841Y-86464472D01*
X142611931Y-86464472D01*
X142618413Y-86481510D01*
X142622527Y-86481796D01*
X142647421Y-86460891D01*
X142656507Y-86447816D01*
X142659976Y-86427676D01*
X142643528Y-86434837D01*
X142611931Y-86464472D01*
X142507841Y-86464472D01*
X142533063Y-86444098D01*
X142623496Y-86362603D01*
X142729857Y-86362603D01*
X142737431Y-86364067D01*
X142761468Y-86344219D01*
X142803654Y-86297845D01*
X142859722Y-86231622D01*
X142793499Y-86287690D01*
X142737886Y-86339875D01*
X142729857Y-86362603D01*
X142623496Y-86362603D01*
X142624264Y-86361911D01*
X142659976Y-86332944D01*
X142707924Y-86294053D01*
X142791603Y-86244047D01*
X142830290Y-86229578D01*
X142859722Y-86222694D01*
X142918586Y-86208925D01*
X142833474Y-86299821D01*
X142777248Y-86354514D01*
X142737684Y-86383331D01*
X142730461Y-86384750D01*
X142712561Y-86397767D01*
X142691078Y-86440167D01*
X142641725Y-86491707D01*
X142587143Y-86531306D01*
X142559101Y-86540660D01*
X142532309Y-86556181D01*
X142535968Y-86570093D01*
X142531359Y-86596877D01*
X142518083Y-86599525D01*
X142495355Y-86609744D01*
X142499216Y-86616732D01*
X142490873Y-86645848D01*
X142450637Y-86701337D01*
X142415881Y-86740533D01*
X142353209Y-86813792D01*
X142308854Y-86878098D01*
X142298583Y-86899919D01*
X142271196Y-86944190D01*
X142252641Y-86952711D01*
X142236394Y-86970607D01*
X142240527Y-86980335D01*
X142232993Y-87014948D01*
X142205474Y-87038304D01*
X142173313Y-87062569D01*
X142176447Y-87069545D01*
X142170585Y-87087031D01*
X142129751Y-87130516D01*
X142097075Y-87160411D01*
X142026996Y-87236404D01*
X142011335Y-87293193D01*
X142012755Y-87297684D01*
X142015958Y-87329511D01*
X141996810Y-87323914D01*
X141973598Y-87322814D01*
X141976570Y-87341160D01*
X141969655Y-87389212D01*
X141933715Y-87451807D01*
X141932739Y-87453059D01*
X141893902Y-87493283D01*
X141874785Y-87494866D01*
X141874397Y-87491586D01*
X141895141Y-87444668D01*
X141903175Y-87438343D01*
X141931571Y-87395544D01*
X141932607Y-87385909D01*
X141919053Y-87380752D01*
X141887921Y-87415464D01*
X141855754Y-87471424D01*
X141847258Y-87502951D01*
X141849383Y-87566951D01*
X141836548Y-87610861D01*
X141817962Y-87616842D01*
X141789955Y-87625147D01*
X141767533Y-87663564D01*
X141764813Y-87703962D01*
X141770037Y-87712351D01*
X141783781Y-87704002D01*
X141785446Y-87687536D01*
X141795454Y-87663749D01*
X141817618Y-87679484D01*
X141831072Y-87721149D01*
X141801005Y-87786102D01*
X141799666Y-87788156D01*
X141767755Y-87864361D01*
X141774427Y-87924186D01*
X141817159Y-87952735D01*
X141827668Y-87953407D01*
X141871346Y-87931634D01*
X141945787Y-87870612D01*
X142044639Y-87776784D01*
X142161557Y-87656596D01*
X142290190Y-87516491D01*
X142424192Y-87362913D01*
X142507876Y-87262914D01*
X142784168Y-86966742D01*
X142965581Y-86809844D01*
X143075901Y-86809844D01*
X143112142Y-86822116D01*
X143191983Y-86838318D01*
X143300556Y-86855580D01*
X143343099Y-86861407D01*
X143462780Y-86880742D01*
X143563273Y-86903566D01*
X143627530Y-86925796D01*
X143637421Y-86931923D01*
X143680182Y-86967777D01*
X143754189Y-87030645D01*
X143846066Y-87109150D01*
X143882491Y-87140380D01*
X144081159Y-87310876D01*
X144081159Y-87206349D01*
X144074766Y-87149004D01*
X144050661Y-87090776D01*
X144001447Y-87019448D01*
X143919734Y-86922807D01*
X143888147Y-86887464D01*
X143779766Y-86770683D01*
X143695264Y-86691150D01*
X143621894Y-86640027D01*
X143546909Y-86608482D01*
X143457561Y-86587679D01*
X143454888Y-86587194D01*
X143386713Y-86580059D01*
X143329393Y-86592555D01*
X143262630Y-86631996D01*
X143200152Y-86678973D01*
X143128405Y-86739878D01*
X143083874Y-86787586D01*
X143075901Y-86809844D01*
X142965581Y-86809844D01*
X143043665Y-86742312D01*
X143168723Y-86645366D01*
X143258461Y-86579822D01*
X143323378Y-86540129D01*
X143373975Y-86520738D01*
X143386713Y-86519474D01*
X143420752Y-86516096D01*
X143465011Y-86519562D01*
X143541605Y-86523981D01*
X143570857Y-86511752D01*
X143569339Y-86494351D01*
X143573517Y-86467825D01*
X143597026Y-86471728D01*
X143635033Y-86500733D01*
X143639676Y-86514425D01*
X143658383Y-86545026D01*
X143709515Y-86609834D01*
X143785586Y-86699786D01*
X143879113Y-86805821D01*
X143893897Y-86822234D01*
X144148119Y-87103711D01*
X144129263Y-87315176D01*
X144115776Y-87432367D01*
X144096784Y-87508445D01*
X144066058Y-87561154D01*
X144030300Y-87597143D01*
X143922948Y-87704656D01*
X143841697Y-87811906D01*
X143795284Y-87906178D01*
X143787773Y-87950096D01*
X143791501Y-88001685D01*
X143807220Y-88000617D01*
X143827808Y-87975481D01*
X143871670Y-87929109D01*
X143887847Y-87932056D01*
X143869371Y-87978546D01*
X143856554Y-87999320D01*
X143825092Y-88056098D01*
X143829183Y-88092681D01*
X143852712Y-88120193D01*
X143879592Y-88139237D01*
X143894218Y-88137878D01*
X143911285Y-88136292D01*
X143958800Y-88105661D01*
X144033143Y-88041652D01*
X144070637Y-88007467D01*
X144169820Y-87920714D01*
X144268834Y-87841116D01*
X144347372Y-87784946D01*
X144351887Y-87782121D01*
X144405651Y-87747065D01*
X144443557Y-87712124D01*
X144470924Y-87665286D01*
X144493066Y-87594535D01*
X144515300Y-87487860D01*
X144525506Y-87430985D01*
X144555949Y-87430985D01*
X144574088Y-87452474D01*
X144580471Y-87453059D01*
X144624299Y-87428182D01*
X144648611Y-87369020D01*
X144646549Y-87298774D01*
X144634845Y-87269108D01*
X144615473Y-87236098D01*
X144601993Y-87227384D01*
X144590308Y-87251374D01*
X144576319Y-87316476D01*
X144555949Y-87430985D01*
X144525506Y-87430985D01*
X144537938Y-87361699D01*
X144539401Y-87352549D01*
X144567766Y-87175149D01*
X144581386Y-87032266D01*
X144577360Y-86919736D01*
X144554252Y-86824245D01*
X144510623Y-86732479D01*
X144461694Y-86655321D01*
X144382103Y-86531229D01*
X144299776Y-86392169D01*
X144247415Y-86296405D01*
X144181070Y-86184098D01*
X144103582Y-86091438D01*
X143997458Y-85998820D01*
X143948501Y-85961435D01*
X143854403Y-85887970D01*
X143780122Y-85823811D01*
X143737513Y-85779443D01*
X143732139Y-85770113D01*
X143743164Y-85764041D01*
X143784729Y-85793108D01*
X143812395Y-85817720D01*
X143874910Y-85872238D01*
X143900797Y-85885482D01*
X143898179Y-85878436D01*
X148289965Y-85878436D01*
X148304681Y-85893152D01*
X148319397Y-85878436D01*
X148304681Y-85863720D01*
X148289965Y-85878436D01*
X143898179Y-85878436D01*
X143891675Y-85860929D01*
X143849161Y-85802051D01*
X143814931Y-85760707D01*
X147524728Y-85760707D01*
X147539444Y-85775423D01*
X147554160Y-85760707D01*
X147539444Y-85745991D01*
X147524728Y-85760707D01*
X143814931Y-85760707D01*
X143774874Y-85712324D01*
X143750046Y-85683793D01*
X143549915Y-85481383D01*
X143531631Y-85466385D01*
X146847787Y-85466385D01*
X146862503Y-85481101D01*
X146877219Y-85466385D01*
X146874611Y-85463777D01*
X146967899Y-85463777D01*
X146973517Y-85478545D01*
X146974380Y-85480814D01*
X146978495Y-85481101D01*
X146996019Y-85466385D01*
X147171541Y-85466385D01*
X147186257Y-85481101D01*
X147200973Y-85466385D01*
X147186257Y-85451669D01*
X147171541Y-85466385D01*
X146996019Y-85466385D01*
X147003389Y-85460196D01*
X147010204Y-85450388D01*
X147012474Y-85447121D01*
X147015943Y-85426981D01*
X146999495Y-85434142D01*
X146967899Y-85463777D01*
X146874611Y-85463777D01*
X146862503Y-85451669D01*
X146847787Y-85466385D01*
X143531631Y-85466385D01*
X143459870Y-85407520D01*
X146936083Y-85407520D01*
X146950800Y-85422236D01*
X146965516Y-85407520D01*
X146950800Y-85392804D01*
X146936083Y-85407520D01*
X143459870Y-85407520D01*
X143324062Y-85296117D01*
X143091802Y-85143072D01*
X142983788Y-85085520D01*
X142886380Y-85041091D01*
X145589159Y-85041091D01*
X145599297Y-85108262D01*
X145644112Y-85165858D01*
X145677856Y-85193755D01*
X145701769Y-85209656D01*
X145823722Y-85290746D01*
X145897312Y-85325818D01*
X145961897Y-85356598D01*
X146083130Y-85388537D01*
X146178170Y-85383788D01*
X146223824Y-85357486D01*
X146228224Y-85348656D01*
X146994948Y-85348656D01*
X147009664Y-85363372D01*
X147015943Y-85357093D01*
X147024380Y-85348656D01*
X147083245Y-85348656D01*
X147097961Y-85363372D01*
X147112677Y-85348656D01*
X147097961Y-85333940D01*
X147083245Y-85348656D01*
X147024380Y-85348656D01*
X147009664Y-85333940D01*
X146994948Y-85348656D01*
X146228224Y-85348656D01*
X146256723Y-85291458D01*
X146249063Y-85260359D01*
X146965516Y-85260359D01*
X146980232Y-85275075D01*
X146994948Y-85260359D01*
X146980232Y-85245643D01*
X146965516Y-85260359D01*
X146249063Y-85260359D01*
X146236546Y-85209537D01*
X146231719Y-85202789D01*
X147034191Y-85202789D01*
X147038707Y-85241231D01*
X147039096Y-85241713D01*
X147042265Y-85245643D01*
X147065237Y-85223721D01*
X147067341Y-85186027D01*
X147059198Y-85175391D01*
X147037289Y-85184108D01*
X147034191Y-85202789D01*
X146231719Y-85202789D01*
X146209739Y-85172063D01*
X146936083Y-85172063D01*
X146950800Y-85186779D01*
X146965516Y-85172063D01*
X146950800Y-85157346D01*
X146936083Y-85172063D01*
X146209739Y-85172063D01*
X146170846Y-85117695D01*
X146109784Y-85032196D01*
X146092204Y-84968490D01*
X146965966Y-84968490D01*
X146980232Y-85033573D01*
X146981762Y-85040553D01*
X146996293Y-85069050D01*
X147009664Y-85081705D01*
X147013847Y-85085664D01*
X147011952Y-85051510D01*
X147006418Y-85024901D01*
X146986176Y-84948662D01*
X146972104Y-84924717D01*
X146966053Y-84955649D01*
X146965966Y-84968490D01*
X146092204Y-84968490D01*
X146085215Y-84943165D01*
X146082549Y-84882598D01*
X146077654Y-84833592D01*
X147024380Y-84833592D01*
X147035149Y-84857818D01*
X147044002Y-84853214D01*
X147047524Y-84818284D01*
X147044002Y-84813971D01*
X147026504Y-84818011D01*
X147024380Y-84833592D01*
X146077654Y-84833592D01*
X146067523Y-84732179D01*
X146027453Y-84634679D01*
X146943360Y-84634679D01*
X146950800Y-84640763D01*
X146972104Y-84658184D01*
X146975630Y-84661067D01*
X146980232Y-84661414D01*
X147015312Y-84638969D01*
X147017104Y-84634679D01*
X147001727Y-84611477D01*
X146980232Y-84607945D01*
X146944995Y-84621440D01*
X146943360Y-84634679D01*
X146027453Y-84634679D01*
X146026336Y-84631962D01*
X145964826Y-84582739D01*
X145888834Y-84585305D01*
X145804197Y-84640455D01*
X145716755Y-84748981D01*
X145672106Y-84826786D01*
X145613495Y-84951535D01*
X145589159Y-85041091D01*
X142886380Y-85041091D01*
X142872730Y-85034865D01*
X142776262Y-85001768D01*
X142672798Y-84981028D01*
X142540754Y-84967443D01*
X142474571Y-84962813D01*
X142274547Y-84956245D01*
X142126090Y-84966841D01*
X142024109Y-84995808D01*
X141963509Y-85044352D01*
X141943460Y-85088679D01*
X141936002Y-85163800D01*
X141937709Y-85272305D01*
X141946854Y-85389727D01*
X141961706Y-85491604D01*
X141975594Y-85543202D01*
X141968815Y-85604218D01*
X141910248Y-85687839D01*
X141801604Y-85792123D01*
X141653751Y-85908427D01*
X141541844Y-85998047D01*
X141479724Y-86071173D01*
X141464516Y-86137618D01*
X140873048Y-86137618D01*
X140873048Y-84526332D01*
X146913927Y-84526332D01*
X146929881Y-84517860D01*
X146949756Y-84491571D01*
X146975707Y-84439995D01*
X146975588Y-84414028D01*
X146948340Y-84400308D01*
X146924270Y-84433276D01*
X146914650Y-84481650D01*
X146913927Y-84526332D01*
X140873048Y-84526332D01*
X140873048Y-84349525D01*
X146876016Y-84349525D01*
X146882859Y-84377147D01*
X146883841Y-84377425D01*
X146916581Y-84386695D01*
X146930962Y-84370963D01*
X146948340Y-84362060D01*
X146957352Y-84357443D01*
X146987998Y-84391918D01*
X147006353Y-84446805D01*
X146993865Y-84466359D01*
X146978623Y-84502857D01*
X146980232Y-84506925D01*
X146983431Y-84515014D01*
X147010267Y-84525553D01*
X147025226Y-84508468D01*
X147042082Y-84500001D01*
X147046234Y-84542116D01*
X147055006Y-84623558D01*
X147068784Y-84669185D01*
X147079216Y-84708113D01*
X147059151Y-84704447D01*
X147037308Y-84703444D01*
X147043529Y-84731518D01*
X147044002Y-84732104D01*
X147059198Y-84750923D01*
X147066527Y-84760000D01*
X147082225Y-84746946D01*
X147096120Y-84751049D01*
X147106315Y-84801005D01*
X147108140Y-84825417D01*
X147115155Y-84991399D01*
X147115946Y-85109019D01*
X147109881Y-85188513D01*
X147096325Y-85240116D01*
X147080819Y-85266727D01*
X147055073Y-85301470D01*
X147065170Y-85297418D01*
X147080817Y-85284363D01*
X147097961Y-85270058D01*
X147101003Y-85267520D01*
X147145750Y-85194276D01*
X147156825Y-85133053D01*
X147166660Y-85078685D01*
X147164740Y-84931766D01*
X147140992Y-84764540D01*
X147096421Y-84588026D01*
X147032031Y-84413244D01*
X147020871Y-84388177D01*
X146982787Y-84309580D01*
X146956300Y-84276646D01*
X146930318Y-84280723D01*
X146907640Y-84299881D01*
X146876016Y-84349525D01*
X140873048Y-84349525D01*
X140873048Y-83800193D01*
X146530758Y-83800193D01*
X146558923Y-83836055D01*
X146618530Y-83898105D01*
X146672610Y-83955063D01*
X146702504Y-83989794D01*
X146704757Y-83994774D01*
X146704443Y-84016446D01*
X146717334Y-84050197D01*
X146723610Y-84066628D01*
X146751930Y-84123071D01*
X146779080Y-84163524D01*
X146785821Y-84169451D01*
X146803589Y-84209077D01*
X146799577Y-84238532D01*
X146792162Y-84270781D01*
X146805369Y-84256384D01*
X146854430Y-84256384D01*
X146855138Y-84271174D01*
X146862503Y-84267335D01*
X146877219Y-84259664D01*
X146901943Y-84217824D01*
X146904583Y-84191704D01*
X146899187Y-84162980D01*
X146883147Y-84187358D01*
X146877219Y-84200800D01*
X146854430Y-84256384D01*
X146805369Y-84256384D01*
X146810543Y-84250744D01*
X146813374Y-84246777D01*
X146824973Y-84191959D01*
X146801435Y-84144573D01*
X146769251Y-84086960D01*
X146760385Y-84054448D01*
X146772566Y-84050408D01*
X146791280Y-84075713D01*
X146828814Y-84118194D01*
X146850597Y-84127219D01*
X146849971Y-84106461D01*
X146819050Y-84052413D01*
X146772488Y-83987416D01*
X146711421Y-83914342D01*
X146661959Y-83866580D01*
X146638695Y-83854971D01*
X146614801Y-83838939D01*
X146612329Y-83823086D01*
X146588665Y-83788352D01*
X146568181Y-83783843D01*
X146535355Y-83786217D01*
X146530758Y-83800193D01*
X140873048Y-83800193D01*
X140873048Y-83759316D01*
X146465168Y-83759316D01*
X146479884Y-83774032D01*
X146494600Y-83759316D01*
X146479884Y-83744600D01*
X146465168Y-83759316D01*
X140873048Y-83759316D01*
X140873048Y-83560904D01*
X146334733Y-83560904D01*
X146337527Y-83584211D01*
X146356494Y-83591658D01*
X146400436Y-83624592D01*
X146414078Y-83653422D01*
X146451201Y-83702587D01*
X146479884Y-83716889D01*
X146492361Y-83723110D01*
X146535751Y-83729831D01*
X146531240Y-83709677D01*
X146522380Y-83698460D01*
X146481433Y-83670992D01*
X146461833Y-83673081D01*
X146438913Y-83665121D01*
X146435736Y-83646928D01*
X146418058Y-83597215D01*
X146379177Y-83561117D01*
X146340317Y-83556712D01*
X146334733Y-83560904D01*
X140873048Y-83560904D01*
X140873048Y-83490952D01*
X146259143Y-83490952D01*
X146279862Y-83517812D01*
X146288575Y-83523859D01*
X146316091Y-83531359D01*
X146318007Y-83527333D01*
X146297287Y-83500473D01*
X146288575Y-83494426D01*
X146261059Y-83486926D01*
X146259143Y-83490952D01*
X140873048Y-83490952D01*
X140873048Y-83432088D01*
X146170846Y-83432088D01*
X146191566Y-83458947D01*
X146200278Y-83464994D01*
X146227794Y-83472494D01*
X146229710Y-83468468D01*
X146208991Y-83441609D01*
X146200278Y-83435562D01*
X146172762Y-83428062D01*
X146170846Y-83432088D01*
X140873048Y-83432088D01*
X140873048Y-83376698D01*
X146111981Y-83376698D01*
X146126698Y-83391414D01*
X146141414Y-83376698D01*
X146126698Y-83361981D01*
X146111981Y-83376698D01*
X140873048Y-83376698D01*
X140873048Y-81622242D01*
X141040193Y-81548322D01*
X141321326Y-81447027D01*
X141587951Y-81399951D01*
X141847162Y-81406557D01*
G37*
G36*
X145416702Y-90822606D02*
G01*
X145474528Y-90869427D01*
X145493817Y-90954786D01*
X145493905Y-90962940D01*
X145479400Y-91030648D01*
X145443087Y-91112974D01*
X145395770Y-91191506D01*
X145348252Y-91247831D01*
X145316954Y-91264531D01*
X145294361Y-91268677D01*
X145286510Y-91288527D01*
X145294718Y-91335196D01*
X145320306Y-91419798D01*
X145343858Y-91491317D01*
X145387010Y-91652940D01*
X145398378Y-91776292D01*
X145380220Y-91858155D01*
X145334794Y-91895308D01*
X145264355Y-91884532D01*
X145171162Y-91822608D01*
X145134832Y-91789464D01*
X145078706Y-91727467D01*
X145006851Y-91637476D01*
X144927537Y-91531246D01*
X144849031Y-91420531D01*
X144779603Y-91317085D01*
X144727521Y-91232662D01*
X144701055Y-91179017D01*
X144699345Y-91170420D01*
X144720727Y-91141814D01*
X144777120Y-91087899D01*
X144857068Y-91019503D01*
X144871043Y-91008132D01*
X145000808Y-90910224D01*
X145107006Y-90849028D01*
X145205375Y-90817434D01*
X145311653Y-90808333D01*
X145313341Y-90808331D01*
X145416702Y-90822606D01*
G37*
G36*
X150714137Y-88008791D02*
G01*
X150774814Y-88076058D01*
X150827958Y-88168755D01*
X150862851Y-88270995D01*
X150867308Y-88295117D01*
X150877836Y-88472731D01*
X150862764Y-88662230D01*
X150825041Y-88834952D01*
X150806332Y-88887879D01*
X150768443Y-88964683D01*
X150734842Y-89006927D01*
X150713466Y-89010442D01*
X150712252Y-88971059D01*
X150722290Y-88932028D01*
X150732950Y-88868851D01*
X150741386Y-88763605D01*
X150746513Y-88633076D01*
X150747555Y-88542051D01*
X150745925Y-88395984D01*
X150739451Y-88293623D01*
X150725758Y-88219862D01*
X150702470Y-88159595D01*
X150681333Y-88120960D01*
X150635974Y-88041900D01*
X150619130Y-88000739D01*
X150628599Y-87985163D01*
X150656642Y-87982839D01*
X150714137Y-88008791D01*
G37*
G36*
X145988013Y-84705494D02*
G01*
X146014469Y-84787593D01*
X146018135Y-84894834D01*
X146018247Y-84986375D01*
X146040877Y-85054738D01*
X146096436Y-85129272D01*
X146104623Y-85138673D01*
X146170527Y-85219543D01*
X146195528Y-85270368D01*
X146181806Y-85301214D01*
X146143574Y-85318538D01*
X146076030Y-85317774D01*
X145983533Y-85289449D01*
X145881507Y-85242053D01*
X145785374Y-85184077D01*
X145710557Y-85124011D01*
X145672480Y-85070344D01*
X145670498Y-85058114D01*
X145683189Y-85013289D01*
X145716072Y-84935480D01*
X145751437Y-84862606D01*
X145803805Y-84771985D01*
X145855273Y-84701664D01*
X145885606Y-84673377D01*
X145943346Y-84664562D01*
X145988013Y-84705494D01*
G37*
G36*
X150194800Y-85756058D02*
G01*
X150249872Y-85806440D01*
X150380454Y-85967967D01*
X150479160Y-86163882D01*
X150536803Y-86374258D01*
X150545612Y-86448067D01*
X150551478Y-86557601D01*
X150545754Y-86628884D01*
X150524313Y-86682054D01*
X150487417Y-86731970D01*
X150438023Y-86784455D01*
X150404770Y-86806675D01*
X150400208Y-86805550D01*
X150397849Y-86770937D01*
X150406823Y-86697521D01*
X150418548Y-86634118D01*
X150429041Y-86454820D01*
X150394328Y-86255534D01*
X150317646Y-86049720D01*
X150246420Y-85918148D01*
X150182212Y-85809635D01*
X150152173Y-85747505D01*
X150156353Y-85730174D01*
X150194800Y-85756058D01*
G37*
G36*
X146873942Y-91436208D02*
G01*
X146876565Y-91448482D01*
X146859742Y-91485157D01*
X146820088Y-91542898D01*
X146819134Y-91544137D01*
X146780028Y-91592681D01*
X146766164Y-91595992D01*
X146766897Y-91555494D01*
X146767218Y-91551087D01*
X146780195Y-91497381D01*
X146791305Y-91497381D01*
X146797787Y-91514418D01*
X146801901Y-91514705D01*
X146826796Y-91493799D01*
X146835881Y-91480725D01*
X146839350Y-91460584D01*
X146822902Y-91467746D01*
X146791305Y-91497381D01*
X146780195Y-91497381D01*
X146783121Y-91485272D01*
X146801103Y-91455433D01*
X146839350Y-91431937D01*
X146844726Y-91428634D01*
X146873942Y-91436208D01*
G37*
G36*
X149047802Y-87575582D02*
G01*
X149060197Y-87657994D01*
X149087980Y-87796097D01*
X149129805Y-87944244D01*
X149158552Y-88024470D01*
X149196496Y-88125942D01*
X149214798Y-88190711D01*
X149213374Y-88213874D01*
X149192142Y-88190529D01*
X149160399Y-88134223D01*
X149111035Y-88013539D01*
X149068508Y-87865110D01*
X149039152Y-87715407D01*
X149029298Y-87590900D01*
X149029403Y-87586678D01*
X149032496Y-87533358D01*
X149038121Y-87528484D01*
X149047802Y-87575582D01*
G37*
G36*
X149060431Y-87096738D02*
G01*
X149057068Y-87165736D01*
X149044621Y-87262592D01*
X149024753Y-87372466D01*
X149013501Y-87423627D01*
X149007262Y-87431579D01*
X149004693Y-87395722D01*
X149005555Y-87330983D01*
X149009608Y-87252285D01*
X149016613Y-87174556D01*
X149017629Y-87166095D01*
X149032044Y-87100990D01*
X149051232Y-87070714D01*
X149053050Y-87070440D01*
X149060431Y-87096738D01*
G37*
G36*
X153896802Y-84825722D02*
G01*
X153915336Y-84827393D01*
X153941809Y-84849344D01*
X153967375Y-84895525D01*
X153949428Y-84908433D01*
X153897553Y-84881929D01*
X153869038Y-84848308D01*
X153882086Y-84848308D01*
X153896802Y-84863024D01*
X153911518Y-84848308D01*
X153896802Y-84833592D01*
X153882086Y-84848308D01*
X153869038Y-84848308D01*
X153865181Y-84843760D01*
X153874292Y-84823693D01*
X153896802Y-84825722D01*
G37*
G36*
X145895062Y-92146323D02*
G01*
X145915879Y-92160635D01*
X145931090Y-92182905D01*
X145898580Y-92175481D01*
X145893770Y-92173671D01*
X145855119Y-92165316D01*
X145861023Y-92190372D01*
X145861527Y-92191191D01*
X145869626Y-92216312D01*
X145851639Y-92209172D01*
X145819724Y-92178790D01*
X145843075Y-92150106D01*
X145849656Y-92145912D01*
X145895062Y-92146323D01*
G37*
G36*
X146367922Y-91824235D02*
G01*
X146353234Y-91843358D01*
X146331203Y-91883484D01*
X146357016Y-91903097D01*
X146367950Y-91906166D01*
X146402779Y-91917494D01*
X146381189Y-91922606D01*
X146371250Y-91923341D01*
X146315526Y-91911056D01*
X146307922Y-91873346D01*
X146340405Y-91834436D01*
X146374978Y-91809267D01*
X146367922Y-91824235D01*
G37*
G36*
X149537705Y-84317014D02*
G01*
X149481013Y-84347022D01*
X149440889Y-84365371D01*
X149363342Y-84396609D01*
X149311120Y-84411718D01*
X149299865Y-84411124D01*
X149317016Y-84394464D01*
X149373847Y-84365908D01*
X149407764Y-84351645D01*
X149498236Y-84318146D01*
X149542498Y-84306995D01*
X149537705Y-84317014D01*
G37*
G36*
X146660442Y-91560875D02*
G01*
X146628778Y-91586661D01*
X146563181Y-91627553D01*
X146528853Y-91621006D01*
X146524032Y-91598096D01*
X146535420Y-91577841D01*
X146542618Y-91582344D01*
X146580234Y-91585616D01*
X146623557Y-91570910D01*
X146666327Y-91551389D01*
X146660442Y-91560875D01*
G37*
G36*
X149672014Y-87712294D02*
G01*
X149692356Y-87761135D01*
X149687965Y-87801306D01*
X149687088Y-87802248D01*
X149659978Y-87796446D01*
X149642697Y-87775961D01*
X149616355Y-87715715D01*
X149632639Y-87689263D01*
X149640698Y-87688517D01*
X149672014Y-87712294D01*
G37*
G36*
X146219593Y-92003651D02*
G01*
X146214994Y-92015052D01*
X146188546Y-92043130D01*
X146183825Y-92044484D01*
X146171183Y-92021713D01*
X146170846Y-92015052D01*
X146193472Y-91986751D01*
X146202015Y-91985620D01*
X146219593Y-92003651D01*
G37*
G36*
X146699495Y-91655059D02*
G01*
X146700626Y-91663603D01*
X146682594Y-91681181D01*
X146671194Y-91676582D01*
X146643116Y-91650134D01*
X146641761Y-91645412D01*
X146664533Y-91632771D01*
X146671194Y-91632433D01*
X146699495Y-91655059D01*
G37*
G36*
X146670062Y-91478466D02*
G01*
X146671194Y-91487009D01*
X146653162Y-91504587D01*
X146641761Y-91499988D01*
X146613683Y-91473540D01*
X146612329Y-91468819D01*
X146635101Y-91456178D01*
X146641761Y-91455840D01*
X146670062Y-91478466D01*
G37*
G36*
X146882152Y-91211241D02*
G01*
X146906651Y-91235098D01*
X146924315Y-91270618D01*
X146913859Y-91279247D01*
X146872286Y-91258956D01*
X146847787Y-91235098D01*
X146830123Y-91199579D01*
X146840579Y-91190950D01*
X146882152Y-91211241D01*
G37*
G36*
X150490580Y-90642359D02*
G01*
X150510113Y-90647633D01*
X150489618Y-90652858D01*
X150402576Y-90657700D01*
X150342457Y-90652456D01*
X150330614Y-90645563D01*
X150369176Y-90641120D01*
X150423801Y-90640156D01*
X150490580Y-90642359D01*
G37*
G36*
X151489416Y-88358100D02*
G01*
X151494285Y-88443865D01*
X151489416Y-88490545D01*
X151482137Y-88504492D01*
X151477519Y-88467514D01*
X151476661Y-88424322D01*
X151478957Y-88360665D01*
X151484827Y-88343190D01*
X151489416Y-88358100D01*
G37*
G36*
X143845701Y-88394890D02*
G01*
X143870606Y-88448545D01*
X143874232Y-88468470D01*
X143862087Y-88473735D01*
X143845701Y-88453754D01*
X143820796Y-88400099D01*
X143817170Y-88380174D01*
X143829315Y-88374909D01*
X143845701Y-88394890D01*
G37*
G36*
X149643297Y-87422555D02*
G01*
X149643396Y-87429248D01*
X149628399Y-87482465D01*
X149614415Y-87497207D01*
X149588415Y-87499582D01*
X149592736Y-87464487D01*
X149614415Y-87423627D01*
X149637272Y-87396046D01*
X149643297Y-87422555D01*
G37*
G36*
X143281609Y-86694119D02*
G01*
X143286489Y-86699389D01*
X143263474Y-86718367D01*
X143242341Y-86727897D01*
X143204442Y-86728509D01*
X143198192Y-86716330D01*
X143222045Y-86691033D01*
X143242341Y-86687822D01*
X143281609Y-86694119D01*
G37*
G36*
X143580811Y-86643673D02*
G01*
X143608919Y-86671405D01*
X143610243Y-86676579D01*
X143591232Y-86678588D01*
X143580811Y-86673105D01*
X143552703Y-86645374D01*
X143551379Y-86640199D01*
X143570391Y-86638191D01*
X143580811Y-86643673D01*
G37*
G36*
X143521947Y-86378783D02*
G01*
X143550055Y-86406515D01*
X143551379Y-86411690D01*
X143532367Y-86413698D01*
X143521947Y-86408216D01*
X143493839Y-86380484D01*
X143492514Y-86375309D01*
X143511526Y-86373301D01*
X143521947Y-86378783D01*
G37*
G36*
X155205404Y-85680320D02*
G01*
X155206535Y-85688863D01*
X155188504Y-85706441D01*
X155177103Y-85701842D01*
X155149025Y-85675394D01*
X155147671Y-85670673D01*
X155170442Y-85658032D01*
X155177103Y-85657694D01*
X155205404Y-85680320D01*
G37*
G36*
X155074090Y-85293864D02*
G01*
X155113084Y-85324742D01*
X155118239Y-85340692D01*
X155100739Y-85350441D01*
X155074090Y-85333940D01*
X155037539Y-85299112D01*
X155029942Y-85287111D01*
X155052223Y-85286819D01*
X155074090Y-85293864D01*
G37*
G36*
X154176408Y-85054334D02*
G01*
X154204516Y-85082065D01*
X154205840Y-85087240D01*
X154186828Y-85089248D01*
X154176408Y-85083766D01*
X154148300Y-85056034D01*
X154146976Y-85050860D01*
X154165987Y-85048852D01*
X154176408Y-85054334D01*
G37*
G36*
X146730058Y-83994774D02*
G01*
X146758166Y-84022505D01*
X146759490Y-84027680D01*
X146740478Y-84029688D01*
X146730058Y-84024206D01*
X146701950Y-83996475D01*
X146700626Y-83991300D01*
X146719637Y-83989292D01*
X146730058Y-83994774D01*
G37*
G36*
X145629160Y-92304827D02*
G01*
X145599525Y-92336424D01*
X145582488Y-92329942D01*
X145582202Y-92325827D01*
X145603107Y-92300933D01*
X145616181Y-92291848D01*
X145636322Y-92288379D01*
X145629160Y-92304827D01*
G37*
G36*
X146789402Y-91353124D02*
G01*
X146806381Y-91388397D01*
X146802382Y-91399009D01*
X146773969Y-91425107D01*
X146760066Y-91395383D01*
X146759490Y-91380523D01*
X146773971Y-91350209D01*
X146789402Y-91353124D01*
G37*
G36*
X142067863Y-87242486D02*
G01*
X142040503Y-87273835D01*
X142033883Y-87276466D01*
X142021786Y-87262498D01*
X142048892Y-87233417D01*
X142054884Y-87229507D01*
X142075024Y-87226038D01*
X142067863Y-87242486D01*
G37*
G36*
X143174399Y-86764141D02*
G01*
X143180148Y-86770733D01*
X143171431Y-86792642D01*
X143152749Y-86795740D01*
X143112760Y-86789319D01*
X143129001Y-86768010D01*
X143137294Y-86762659D01*
X143174399Y-86764141D01*
G37*
G36*
X143392312Y-86418384D02*
G01*
X143362677Y-86449981D01*
X143345640Y-86443499D01*
X143345353Y-86439385D01*
X143366259Y-86414490D01*
X143379333Y-86405405D01*
X143399473Y-86401936D01*
X143392312Y-86418384D01*
G37*
G36*
X154429392Y-85329392D02*
G01*
X154399757Y-85360989D01*
X154382720Y-85354507D01*
X154382433Y-85350393D01*
X154403338Y-85325499D01*
X154416413Y-85316413D01*
X154436553Y-85312944D01*
X154429392Y-85329392D01*
G37*
G36*
X154118581Y-85062704D02*
G01*
X154128774Y-85085295D01*
X154130830Y-85115677D01*
X154117206Y-85112990D01*
X154092808Y-85081510D01*
X154088714Y-85047775D01*
X154099678Y-85039618D01*
X154118581Y-85062704D01*
G37*
G36*
X153222671Y-84328697D02*
G01*
X153193036Y-84360294D01*
X153175999Y-84353812D01*
X153175713Y-84349698D01*
X153196618Y-84324803D01*
X153209692Y-84315718D01*
X153229833Y-84312249D01*
X153222671Y-84328697D01*
G37*
G36*
X146720247Y-91524515D02*
G01*
X146723770Y-91559444D01*
X146720247Y-91563758D01*
X146702750Y-91559718D01*
X146700626Y-91544137D01*
X146711395Y-91519911D01*
X146720247Y-91524515D01*
G37*
G36*
X146720247Y-91377354D02*
G01*
X146723770Y-91412283D01*
X146720247Y-91416597D01*
X146702750Y-91412557D01*
X146700626Y-91396976D01*
X146711395Y-91372750D01*
X146720247Y-91377354D01*
G37*
G36*
X146985137Y-91289058D02*
G01*
X146988660Y-91323987D01*
X146985137Y-91328300D01*
X146967640Y-91324260D01*
X146965516Y-91308679D01*
X146976284Y-91284453D01*
X146985137Y-91289058D01*
G37*
G36*
X150227285Y-90613075D02*
G01*
X150222681Y-90621927D01*
X150187751Y-90625450D01*
X150183438Y-90621927D01*
X150187478Y-90604430D01*
X150203059Y-90602306D01*
X150227285Y-90613075D01*
G37*
G36*
X151106131Y-86152523D02*
G01*
X151109640Y-86198522D01*
X151103807Y-86208935D01*
X151090430Y-86200157D01*
X151088349Y-86170305D01*
X151095537Y-86138900D01*
X151106131Y-86152523D01*
G37*
G36*
X142928096Y-86168810D02*
G01*
X142923492Y-86177663D01*
X142888563Y-86181186D01*
X142884249Y-86177663D01*
X142888289Y-86160166D01*
X142903870Y-86158042D01*
X142928096Y-86168810D01*
G37*
G36*
X151076215Y-86050124D02*
G01*
X151079737Y-86085053D01*
X151076215Y-86089367D01*
X151058717Y-86085326D01*
X151056593Y-86069745D01*
X151067362Y-86045519D01*
X151076215Y-86050124D01*
G37*
G36*
X155672245Y-85992217D02*
G01*
X155667640Y-86001070D01*
X155632711Y-86004592D01*
X155628397Y-86001070D01*
X155632437Y-85983572D01*
X155648019Y-85981448D01*
X155672245Y-85992217D01*
G37*
G36*
X147132298Y-84843403D02*
G01*
X147135821Y-84878332D01*
X147132298Y-84882646D01*
X147114801Y-84878606D01*
X147112677Y-84863024D01*
X147123446Y-84838798D01*
X147132298Y-84843403D01*
G37*
G36*
X149697505Y-84255717D02*
G01*
X149692901Y-84264569D01*
X149657972Y-84268092D01*
X149653658Y-84264569D01*
X149657698Y-84247072D01*
X149673279Y-84244948D01*
X149697505Y-84255717D01*
G37*
G36*
X153141074Y-84255717D02*
G01*
X153136470Y-84264569D01*
X153101541Y-84268092D01*
X153097227Y-84264569D01*
X153101267Y-84247072D01*
X153116848Y-84244948D01*
X153141074Y-84255717D01*
G37*
G36*
X149874099Y-84196852D02*
G01*
X149869494Y-84205705D01*
X149834565Y-84209227D01*
X149830251Y-84205705D01*
X149834291Y-84188207D01*
X149849873Y-84186083D01*
X149874099Y-84196852D01*
G37*
G36*
X149962395Y-84167420D02*
G01*
X149957791Y-84176273D01*
X149922862Y-84179795D01*
X149918548Y-84176273D01*
X149922588Y-84158775D01*
X149938169Y-84156651D01*
X149962395Y-84167420D01*
G37*
G36*
X150050692Y-84137988D02*
G01*
X150046087Y-84146840D01*
X150011158Y-84150363D01*
X150006844Y-84146840D01*
X150010885Y-84129343D01*
X150026466Y-84127219D01*
X150050692Y-84137988D01*
G37*
G36*
X150168421Y-84108556D02*
G01*
X150163816Y-84117408D01*
X150128887Y-84120931D01*
X150124573Y-84117408D01*
X150128613Y-84099911D01*
X150144195Y-84097787D01*
X150168421Y-84108556D01*
G37*
G36*
X146553465Y-91764878D02*
G01*
X146538749Y-91779594D01*
X146524032Y-91764878D01*
X146538749Y-91750162D01*
X146553465Y-91764878D01*
G37*
G36*
X141903175Y-91293963D02*
G01*
X141888459Y-91308679D01*
X141873743Y-91293963D01*
X141888459Y-91279247D01*
X141903175Y-91293963D01*
G37*
G36*
X149143499Y-89351437D02*
G01*
X149128783Y-89366153D01*
X149114067Y-89351437D01*
X149128783Y-89336721D01*
X149143499Y-89351437D01*
G37*
G36*
X141873743Y-88821657D02*
G01*
X141859027Y-88836373D01*
X141844311Y-88821657D01*
X141859027Y-88806941D01*
X141873743Y-88821657D01*
G37*
G36*
X144022294Y-87173453D02*
G01*
X144007578Y-87188169D01*
X143992862Y-87173453D01*
X144007578Y-87158737D01*
X144022294Y-87173453D01*
G37*
G36*
X143875133Y-86996860D02*
G01*
X143860417Y-87011576D01*
X143845701Y-86996860D01*
X143860417Y-86982144D01*
X143875133Y-86996860D01*
G37*
G36*
X143669108Y-86879131D02*
G01*
X143654392Y-86893847D01*
X143639676Y-86879131D01*
X143654392Y-86864415D01*
X143669108Y-86879131D01*
G37*
G36*
X143257057Y-86790834D02*
G01*
X143242341Y-86805550D01*
X143227625Y-86790834D01*
X143242341Y-86776118D01*
X143257057Y-86790834D01*
G37*
G36*
X143551379Y-86702538D02*
G01*
X143536663Y-86717254D01*
X143521947Y-86702538D01*
X143536663Y-86687822D01*
X143551379Y-86702538D01*
G37*
G36*
X143521947Y-86467080D02*
G01*
X143507231Y-86481796D01*
X143492514Y-86467080D01*
X143507231Y-86452364D01*
X143521947Y-86467080D01*
G37*
G36*
X143463082Y-86437648D02*
G01*
X143448366Y-86452364D01*
X143433650Y-86437648D01*
X143448366Y-86422932D01*
X143463082Y-86437648D01*
G37*
G36*
X143610243Y-86408216D02*
G01*
X143595527Y-86422932D01*
X143580811Y-86408216D01*
X143595527Y-86393499D01*
X143610243Y-86408216D01*
G37*
G36*
X151144890Y-86261054D02*
G01*
X151130174Y-86275771D01*
X151115458Y-86261054D01*
X151130174Y-86246338D01*
X151144890Y-86261054D01*
G37*
G36*
X149202364Y-84465689D02*
G01*
X149187648Y-84480406D01*
X149172932Y-84465689D01*
X149187648Y-84450973D01*
X149202364Y-84465689D01*
G37*
G36*
X146965516Y-84436257D02*
G01*
X146950800Y-84450973D01*
X146936083Y-84436257D01*
X146950800Y-84421541D01*
X146965516Y-84436257D01*
G37*
G36*
X149261228Y-84436257D02*
G01*
X149246512Y-84450973D01*
X149231796Y-84436257D01*
X149246512Y-84421541D01*
X149261228Y-84436257D01*
G37*
G36*
X149614415Y-84289096D02*
G01*
X149599699Y-84303812D01*
X149584983Y-84289096D01*
X149599699Y-84274380D01*
X149614415Y-84289096D01*
G37*
G36*
X149761576Y-84230232D02*
G01*
X149746860Y-84244948D01*
X149732144Y-84230232D01*
X149746860Y-84215516D01*
X149761576Y-84230232D01*
G37*
G36*
X146671194Y-83906477D02*
G01*
X146656477Y-83921194D01*
X146641761Y-83906477D01*
X146656477Y-83891761D01*
X146671194Y-83906477D01*
G37*
D15*
X119340000Y-97120000D02*
X139660000Y-97120000D01*
X139660000Y-97120000D02*
X139660000Y-81880000D01*
X119340000Y-81880000D02*
X119340000Y-97120000D01*
X139660000Y-81880000D02*
X119340000Y-81880000D01*
D11*
X120710000Y-81290000D02*
G75*
G02*
X120510000Y-81290000I-100000J0D01*
G01*
X120510000Y-81290000D02*
G75*
G02*
X120710000Y-81290000I100000J0D01*
G01*
D15*
X123840000Y-45120000D02*
X144160000Y-45120000D01*
X144160000Y-45120000D02*
X144160000Y-29880000D01*
X123840000Y-29880000D02*
X123840000Y-45120000D01*
X144160000Y-29880000D02*
X123840000Y-29880000D01*
D11*
X125210000Y-29290000D02*
G75*
G02*
X125010000Y-29290000I-100000J0D01*
G01*
X125010000Y-29290000D02*
G75*
G02*
X125210000Y-29290000I100000J0D01*
G01*
D13*
X105930000Y-43645000D02*
X105930000Y-42375000D01*
X107200000Y-43645000D02*
X105930000Y-43645000D01*
X109360000Y-41332071D02*
X109360000Y-40935000D01*
X110120000Y-41332071D02*
X110120000Y-40935000D01*
X111900000Y-41332071D02*
X111900000Y-40935000D01*
X112660000Y-41332071D02*
X112660000Y-40935000D01*
X114440000Y-41332071D02*
X114440000Y-40935000D01*
X115200000Y-41332071D02*
X115200000Y-40935000D01*
X106820000Y-41265000D02*
X106820000Y-40935000D01*
X107580000Y-41265000D02*
X107580000Y-40935000D01*
X105870000Y-40935000D02*
X116150000Y-40935000D01*
X108470000Y-40935000D02*
X108470000Y-38275000D01*
X111010000Y-40935000D02*
X111010000Y-38275000D01*
X113550000Y-40935000D02*
X113550000Y-38275000D01*
X116150000Y-40935000D02*
X116150000Y-38275000D01*
X105870000Y-38275000D02*
X105870000Y-40935000D01*
X106820000Y-38275000D02*
X106820000Y-32275000D01*
X106880000Y-38275000D02*
X106880000Y-32275000D01*
X107000000Y-38275000D02*
X107000000Y-32275000D01*
X107120000Y-38275000D02*
X107120000Y-32275000D01*
X107240000Y-38275000D02*
X107240000Y-32275000D01*
X107360000Y-38275000D02*
X107360000Y-32275000D01*
X107480000Y-38275000D02*
X107480000Y-32275000D01*
X109360000Y-38275000D02*
X109360000Y-32275000D01*
X111900000Y-38275000D02*
X111900000Y-32275000D01*
X114440000Y-38275000D02*
X114440000Y-32275000D01*
X116150000Y-38275000D02*
X105870000Y-38275000D01*
X106820000Y-32275000D02*
X107580000Y-32275000D01*
X107580000Y-32275000D02*
X107580000Y-38275000D01*
X109360000Y-32275000D02*
X110120000Y-32275000D01*
X110120000Y-32275000D02*
X110120000Y-38275000D01*
X111900000Y-32275000D02*
X112660000Y-32275000D01*
X112660000Y-32275000D02*
X112660000Y-38275000D01*
X114440000Y-32275000D02*
X115200000Y-32275000D01*
X115200000Y-32275000D02*
X115200000Y-38275000D01*
X100470000Y-97045000D02*
X100470000Y-91045000D01*
X101230000Y-97045000D02*
X100470000Y-97045000D01*
X103010000Y-97045000D02*
X103010000Y-91045000D01*
X103770000Y-97045000D02*
X103010000Y-97045000D01*
X105550000Y-97045000D02*
X105550000Y-91045000D01*
X106310000Y-97045000D02*
X105550000Y-97045000D01*
X108090000Y-97045000D02*
X108090000Y-91045000D01*
X108850000Y-97045000D02*
X108090000Y-97045000D01*
X99520000Y-91045000D02*
X109800000Y-91045000D01*
X101230000Y-91045000D02*
X101230000Y-97045000D01*
X103770000Y-91045000D02*
X103770000Y-97045000D01*
X106310000Y-91045000D02*
X106310000Y-97045000D01*
X108190000Y-91045000D02*
X108190000Y-97045000D01*
X108310000Y-91045000D02*
X108310000Y-97045000D01*
X108430000Y-91045000D02*
X108430000Y-97045000D01*
X108550000Y-91045000D02*
X108550000Y-97045000D01*
X108670000Y-91045000D02*
X108670000Y-97045000D01*
X108790000Y-91045000D02*
X108790000Y-97045000D01*
X108850000Y-91045000D02*
X108850000Y-97045000D01*
X109800000Y-91045000D02*
X109800000Y-88385000D01*
X99520000Y-88385000D02*
X99520000Y-91045000D01*
X102120000Y-88385000D02*
X102120000Y-91045000D01*
X104660000Y-88385000D02*
X104660000Y-91045000D01*
X107200000Y-88385000D02*
X107200000Y-91045000D01*
X109800000Y-88385000D02*
X99520000Y-88385000D01*
X108090000Y-88055000D02*
X108090000Y-88385000D01*
X108850000Y-88055000D02*
X108850000Y-88385000D01*
X100470000Y-87987929D02*
X100470000Y-88385000D01*
X101230000Y-87987929D02*
X101230000Y-88385000D01*
X103010000Y-87987929D02*
X103010000Y-88385000D01*
X103770000Y-87987929D02*
X103770000Y-88385000D01*
X105550000Y-87987929D02*
X105550000Y-88385000D01*
X106310000Y-87987929D02*
X106310000Y-88385000D01*
X108470000Y-85675000D02*
X109740000Y-85675000D01*
X109740000Y-85675000D02*
X109740000Y-86945000D01*
X98000000Y-31900000D02*
X98000000Y-37900000D01*
X97240000Y-31900000D02*
X98000000Y-31900000D01*
X95460000Y-31900000D02*
X95460000Y-37900000D01*
X94700000Y-31900000D02*
X95460000Y-31900000D01*
X92920000Y-31900000D02*
X92920000Y-37900000D01*
X92160000Y-31900000D02*
X92920000Y-31900000D01*
X90380000Y-31900000D02*
X90380000Y-37900000D01*
X89620000Y-31900000D02*
X90380000Y-31900000D01*
X87840000Y-31900000D02*
X87840000Y-37900000D01*
X87080000Y-31900000D02*
X87840000Y-31900000D01*
X98950000Y-37900000D02*
X86130000Y-37900000D01*
X97240000Y-37900000D02*
X97240000Y-31900000D01*
X94700000Y-37900000D02*
X94700000Y-31900000D01*
X92160000Y-37900000D02*
X92160000Y-31900000D01*
X89620000Y-37900000D02*
X89620000Y-31900000D01*
X87740000Y-37900000D02*
X87740000Y-31900000D01*
X87620000Y-37900000D02*
X87620000Y-31900000D01*
X87500000Y-37900000D02*
X87500000Y-31900000D01*
X87380000Y-37900000D02*
X87380000Y-31900000D01*
X87260000Y-37900000D02*
X87260000Y-31900000D01*
X87140000Y-37900000D02*
X87140000Y-31900000D01*
X87080000Y-37900000D02*
X87080000Y-31900000D01*
X86130000Y-37900000D02*
X86130000Y-40560000D01*
X98950000Y-40560000D02*
X98950000Y-37900000D01*
X96350000Y-40560000D02*
X96350000Y-37900000D01*
X93810000Y-40560000D02*
X93810000Y-37900000D01*
X91270000Y-40560000D02*
X91270000Y-37900000D01*
X88730000Y-40560000D02*
X88730000Y-37900000D01*
X86130000Y-40560000D02*
X98950000Y-40560000D01*
X87840000Y-40890000D02*
X87840000Y-40560000D01*
X87080000Y-40890000D02*
X87080000Y-40560000D01*
X98000000Y-40957071D02*
X98000000Y-40560000D01*
X97240000Y-40957071D02*
X97240000Y-40560000D01*
X95460000Y-40957071D02*
X95460000Y-40560000D01*
X94700000Y-40957071D02*
X94700000Y-40560000D01*
X92920000Y-40957071D02*
X92920000Y-40560000D01*
X92160000Y-40957071D02*
X92160000Y-40560000D01*
X90380000Y-40957071D02*
X90380000Y-40560000D01*
X89620000Y-40957071D02*
X89620000Y-40560000D01*
X87460000Y-43270000D02*
X86190000Y-43270000D01*
X86190000Y-43270000D02*
X86190000Y-42000000D01*
X150010000Y-67330000D02*
X150010000Y-65590000D01*
X151750000Y-67330000D02*
X150010000Y-67330000D01*
X150250000Y-67090000D02*
X150250000Y-64290000D01*
X164850000Y-67090000D02*
X150250000Y-67090000D01*
X150250000Y-60690000D02*
X150250000Y-57890000D01*
X150250000Y-57890000D02*
X152250000Y-57890000D01*
X155850000Y-57890000D02*
X164850000Y-57890000D01*
X164850000Y-57890000D02*
X164850000Y-67090000D01*
%LPC*%
D16*
X157480000Y-34036000D03*
X158750000Y-96500000D03*
X83312000Y-71628000D03*
D17*
X115890000Y-87170000D03*
D18*
X113350000Y-87170000D03*
D17*
X96075000Y-86625000D03*
D18*
X93535000Y-86625000D03*
X90995000Y-86625000D03*
X88455000Y-86625000D03*
X85915000Y-86625000D03*
D19*
X120610000Y-95850000D03*
X123150000Y-95850000D03*
X125690000Y-95850000D03*
X128230000Y-95850000D03*
X130770000Y-95850000D03*
X133310000Y-95850000D03*
X135850000Y-95850000D03*
X138390000Y-95850000D03*
X120610000Y-83150000D03*
X123150000Y-83150000D03*
X125690000Y-83150000D03*
X128230000Y-83150000D03*
X130770000Y-83150000D03*
X133310000Y-83150000D03*
X135850000Y-83150000D03*
X138390000Y-83150000D03*
X138390000Y-88230000D03*
X138390000Y-85690000D03*
X136739000Y-86960000D03*
X125110000Y-43850000D03*
X127650000Y-43850000D03*
X130190000Y-43850000D03*
X132730000Y-43850000D03*
X135270000Y-43850000D03*
X137810000Y-43850000D03*
X140350000Y-43850000D03*
X142890000Y-43850000D03*
X125110000Y-31150000D03*
X127650000Y-31150000D03*
X130190000Y-31150000D03*
X132730000Y-31150000D03*
X135270000Y-31150000D03*
X137810000Y-31150000D03*
X140350000Y-31150000D03*
X142890000Y-31150000D03*
X142890000Y-36230000D03*
X142890000Y-33690000D03*
X141239000Y-34960000D03*
X130042000Y-75787000D03*
X127502000Y-75787000D03*
X124962000Y-75787000D03*
X122422000Y-75787000D03*
X119882000Y-75787000D03*
X117342000Y-75787000D03*
X114802000Y-75787000D03*
X112262000Y-75787000D03*
X109722000Y-75787000D03*
X107182000Y-75787000D03*
X104642000Y-75787000D03*
X102102000Y-75787000D03*
X99562000Y-75787000D03*
X97022000Y-75787000D03*
X94482000Y-75787000D03*
X130042000Y-50387000D03*
X127502000Y-50387000D03*
X124962000Y-50387000D03*
X122422000Y-50387000D03*
X119882000Y-50387000D03*
X117342000Y-50387000D03*
X114802000Y-50387000D03*
X112262000Y-50387000D03*
X109722000Y-50387000D03*
X107182000Y-50387000D03*
X104642000Y-50387000D03*
X102102000Y-50387000D03*
X99562000Y-50387000D03*
X97022000Y-50387000D03*
X94482000Y-50387000D03*
D17*
X107200000Y-42375000D03*
D18*
X109740000Y-42375000D03*
X112280000Y-42375000D03*
X114820000Y-42375000D03*
X100850000Y-86945000D03*
X103390000Y-86945000D03*
X105930000Y-86945000D03*
D17*
X108470000Y-86945000D03*
D18*
X97620000Y-42000000D03*
X95080000Y-42000000D03*
X92540000Y-42000000D03*
X90000000Y-42000000D03*
D17*
X87460000Y-42000000D03*
D20*
X151050000Y-62490000D03*
D21*
X157050000Y-62490000D03*
X154050000Y-57790000D03*
%LPD*%
M02*
